P1
# Created by GIMP version 2.10.30 PNM plug-in
176 240
0000000000000000000000000000000000000000000000000000000000000000000000
0000000000000000000000000000000000000000000000000000000000000000000000
0000000000000000000000000000000000001001001000000001000100100100010010
0010001000100010000001000000000100000100001000001000010001001000100010
0100100100100101001001000100100010000000000000000000010001000100000100
0000000000100100000100000000010000001000100000000000100100010010010001
0000010000100000100001000000100010000000000000001000000000010000000000
1001001001001001000001000000010000010000101000000001000001000100000010
0000000010010010000000000000000000001000000000001000000000001000000000
0010010010010000010101000000010010000000000000000000010000000100001000
0000000000010000000000000100010010001000100000000000010000000100010000
0000100010000000100100001000100100100100000000000100000000001001000000
0100010001000100000000010000000000100010100100000100100101000000000000
0000000100001001000001001000000000010000000000101000000001000000000000
0000100100101000010010010000000100100000000000000000100010000010010000
0000000000000000000000000100100100100010000001000000000100000001000100
0001001000100000100100000010001001001000000000000010000100000010000000
0001000100010001000010000100000001001000000000100100100100100000000000
0100001000000001001000000100001000010000000100000000000010010001000000
0000100100100100001000100100001001001000100000001000000000000000010000
0001010001000000000000000010010010000000100010010000000000100000000000
0000000000000100100000000000000100100100000001000001000000000000100000
0000000001000000010010001001000001000000000000000001001000100000000000
1001000000000010010001000000010000100100101000100000001001001001000000
0000010010000100010010101001000001001001001000001000000000000000010000
1001000100001010000000000010010100100000001000100000000100001001000100
0000000000000001000000000000000100100100000000000001000000000000001000
0000000000010000100010010000000000000000010000000000001000100000000000
0100100001000100010000000000000000000001000010010000010010010001000000
0000001000100100000010010010010000010010010000000000000000000010010001
0001000000000000010000100001000001000000001000000000000001001001000100
1001000000000000010000000000000100010000100000000000001000000000000010
0000000001000100001000001000000001000000001001000010000000000000010000
0000100000001000010010000000000000000000000010000010000000000001000000
0010000001001000010000010000100100000010000000000001000001000010010000
0010010000000000000100000100000000010000000010000010000000010001001000
0010001000001000000010010010000100100000000100000010000000000100000000
1000001000010001000010000000000000001000000010010001000000100001010010
0001000100000000000010000000000000010000000100000100000000000000000000
0100001000001000000000100000000000000100000010001000000000000100010001
0000010000000000000100100001000000000100000000100100010000010010000010
0000010000000000010010000100100100000001000000000001010010000100101010
0000000000000000001000100100000001000001000100000100000000001000000100
1000010010000000000000000000000100000000000000010000000000100000000000
1000000001001000000000000000000000001000101001000010000100000000010000
0010000000001000000100100000100100000000000000100100100101000000100000
0100100010010000100010000001001000100010010000000010000100010001000000
1000000000000100000000001000100000000000000100100000100000000100000010
0100101001000000000000000101000000100000010000000000000000001000000100
0000000001001000010000100000001001000001010001000000100100000100010001
0100010000000010000000101000001000000000000000001001001000010000001000
0001000000010001000100010000010000000100010000000000000000000100000000
0001000001000001000000010000000000000000000000100000000000000001000010
0100100010010000000000100000000000010000000010000000000000000010000000
1000000001000100100010100000010001001000000000001000000000000000010001
0000010001000100010100000100100010000000001000000100100100000101010010
0001001000000100010001000100001010000001000000010000001000001001000000
0000010010010000100101000100100001000100000000000001000000100000000000
0010010000010000000000010000000000001000000010000010001000000010000000
0100000101000000100000000000000010010010000000000100000000100000000000
0000010001000000000000000001001001001000000010000100100100000000001001
0000010000001000000000010000000100100001000000000100001000100010001000
0000001010010000010100000000100100001000000000010010001001001000000000
0000100100000000000000010001010000000010000010000000001000000010000000
0100000010001000000000000100000000010010000000000010000010100100000001
0000010001000000010000000000100100100000000000101001000100000100000010
0100000100000100100000100100001000100000100000100001001001000000100010
0000001001010100000100000000001000000001000100000100000010001000000000
0101001001000000001000000000000000000000100000100000010100000010000100
0000000010000000000000000000000100010010000000000000100010001001000010
0010000000001000000000000000010010000000000000010010000001010010010100
1001000001000001000000010000001000010010010000000100010000100101000000
0000001001000101000000001000000010000000000001000001001000100000000001
0100100100100000001000000000000000000000001000001000001000000010000010
0000000001001000100001000000001000100001000000100000010010000010010000
0100010010000000000001000001000100000000000000000100000010000100100100
1001000000010000101000100100000000001010100100000000000100001000000010
0010000100000010010000001000000000100000000000001001000000001000000100
1001001001001000001000001000001000000000010010001000000000000100101010
0000000000001001001000010000010000000001000010100000001001000100100100
0000100100010000001001000000000000000000000000000010000010000010000010
1001000000000000100101001000000000001000010001000000000001000010000100
0100000000000010010000000000000000001000000000000000000000010001001001
0100100100100100001000000100000100000000001010010100000000001001001001
0000100010001001010010000100001000000010001010010000001001010100101001
0000100100010000100010000010000000000000000000000001000010010001010000
1001010000000000010010010000000100000100000000000000000000000001000001
0000000000000001000000100000010000000100000001000100000000100000010000
0100101010101010000100000000000000000000000100100100000000000010100000
1000010100100100100100101010000010000100100100010000100100000010000010
1000100100000000010010000000000001000000000000000000010000100101001010
0100100100000000010010010010000010100001000000000000000000000000101000
1000000000010001000000010100001000000010000001000100000000010101001000
0000100100010000100000001000000000000000000001001010000000000000010000
0010000100100101010101010010000000000010101010000000001010000001000010
0100001010000000100100100000010000010000000001000100001010000010010010
1001001000000000001001010010010000100000100001000000000000000000100010
1001000000000100010000000101000100001000100000101000001000001000000101
0000001010000000010000010100000100000000000010010010000000000000000100
0101000010000010000100001001000100001000100100100010000100100000100001
0001000000000010010001010000101000000010000000101001000010000001010001
0010101000000000001001000100100000000000001000010000100001000000010001
0000100010010000000100000010000010000000010101000000000100000100000101
0100001001000010000100000010000000000000000100101001000000100000001010
0100010000000010000010000010100010000100010000001010100001010000010000
1010100000001001001000001000101000000010100000010000100001010000101010
1010010000000000000010000010100100000001000101000000100000101000001000
1000010001010000000000000001010001000000001000000000000001000010000010
1001000000000010000010000001000000000000001001010010010000100000000001
0010000000000101000101000010010001001010001000010010100101001000000001
0010010000101001000000000100000100001000010000100000100000100100010010
0100100000000000000001000010010010000000100100100000010000010000100100
0000010000100001000010000000101010000000000100000000010000000001010001
0000100010000001000101000000100000100000010010100100101000010000000000
0101000000000100100000100001000000001010000100001000010000100100000000
0101001000010001000000100000000000000100010000000100000000010100001010
0010100000000000000000100001010100100000010101000001001010001000101010
1000001010010000100001000000010010100000000001000100010010000000000010
0100010001010000010100100000010000000000001001000100100100001000000010
0010100000001010000000010001000000000010100000001010001001001010000000
0100010010000000000000000001000000000000001000000100000001001001000101
0100100000000100010000010000100100001000001010010001010100000100010010
0100000010101000001000000100001010000001000000010010010010010000001000
0000100000101000000010000000001000000000010010100000001010000100100001
0000101000100010000000101000100000010001010000000001000010100001000001
0010000100100000000000000010000000010000001000000000100000100101000010
0101000000000010100000010100000010100100000010001000100100000010001010
0001000001010101000100000010000100000000000000001001010100100000100000
0000000000010010000001000000001000100000001010010000001010000010101000
0000010100000001000000100100000000001000001000000000100000100001000010
0010010010010000000000000010000000000010000000000000001000010100000010
0010010000001001010000001000000000101010000001010000010010000001010010
1000101000100100000010000010000100001000000000000101000100100000100100
0000000010000010010001000000010100000000001001000000010101000101010100
0000001010000100100000010010000100000100000100000010100001010000000010
0000010010010000001000000101000000010000000000000000000000010010000000
1001001000000101000000001000000000010101000000100000001001000000100001
0000010000010000000010000000101000001000000000000100000010100000001001
0000000000001000000000000000010001000000000010100000010101000010101010
0000000101000010010000000101000010000010000100001001000000000000000010
0000100001001000001000000100010000000100100100000000100000000100000100
0101010000000010010000001010000000001001010000010000000101000000010000
1010000100000000000100010010000000001000001000000010000010000001000100
1000000000000000000000010000001000000000001010010010001001000000100101
0010000000100000101000000100100001000000100001001001000000000000010010
0000010000001000010100001010000000000010010000100010000000000000100010
1001001000001000001000100101000010000000100100001010000010010000000100
0010000000000000000001000100010000000101000001000010000001000000101010
1000000001000000000010000000000000000001000001000001000100000000010000
0101000000100000001000000001001000010000100010001000001000000000000000
0000000010000000000100000010000000000010010000000100000000000100001010
0100000101000101000100010101010001010000010000001000000010010000000000
0000000010000000100000001000000000100100001000001001000001001000100100
0100001000001000010000000000100000000010100000100000100010000000001000
0000000010100000010000000001000100100100100000010000000000000001001000
0000000000010000001010010000000000100001000001000000000100100000000010
1000000010000101000000001001001000100101000000000001000010000000010000
0000000000000000000100100000000000000000100010000010000000000101001000
0010000101000001000000000000100000000101010010100000010101001000000000
0000000100000010000000010010000000000001000100100001000000000100000000
0010000100000100000001001000000000100000100000001000001001000100000100
0100000000000101010000000000101001001000000000100000000100000000000010
0100000000000000000000000000000000100000000000100000100000000010101000
0010000001001000001000000100000000000000101010100000000010010100000000
0000100100000100010000000000100100000000001000000010000010001000001000
0000000000000100000100100100000001010001001000000000000000000000000000
1001000000000010101010000000010010010000000000000000000000010000000000
0001000000010000000000000000000000000010010010000001000000000001001000
0000000000100010100001001000100001000000010101010000000000101010000000
0010001000010000000001000001000000010000010000000100000100000000100000
0000000000000000000100010010010001001010100100010000010000000000010000
0001010000000001010010100000001001000000000001000010010000000000001000
0000000000100000001000000100000000100000000000010010000001000000000100
0000000000000000000000000000000000000000000001001000010000001001000000
1000010000000000000000001000000000100000100000000000000000000000000000
0010000000000000010010000000001000001001001010100101001001000000000000
0010000100000100100001010000000010000000000010000000000000000001000000
0001000001000010000000010000010000000000010010000000000000010101000010
1000100000000010000000000000000000000000000010100000001000001010010000
0000100000000001001000100000000100000000000000000000001000000000000010
0000000000001001000100100000001000000100000100010000101001000000100000
0000010000000010101000100000000000010010000000001000000000000010000000
1000000000000100010000000010000000000000000000000000000000000010000001
0000010100010000100000000010000000000000000010010000000100001001010010
0000000001000000000001000000000000000010010010000000000001000000000000
0001000000000000001000100100000100001010000010000100000010100000000010
0000000100000001001000010001000000000000000100000000000000001000000000
0000000000000000000000000000010001000000001000100001000000000000100000
0000001000001000010100000000000000000000000001001000000010001000000100
0000100000000001000100000000000100100000000000000001000000000000000000
0000000000000000000001001001000000101001000101000010000001000101000000
0000000000000000101001001000101000010010000000001000000000000000000000
0000100000010000000010000100000000000100000000000010000000000000010100
0000000100000100001001000100000000000000001000100100000000000100000100
0000000010000000000000001000010000000000000100000100000000000001000100
0000000000000000000001000001000000010000100000100001000000000001000100
0001000000000000010010100100010000000000000000010000001000000000000000
0010000000000000000000001000000000000000010001000000001000001000010001
0001000001000010000101001000000100000000000000010010010000000010000101
0010001000000000000000100001000000100000000000000000000100000000000000
0010000000000010000000000000000010000000001000010000100000000001000000
0100000000000000000001001000001000000000000000000001000000000000000000
0000001000010000010000000000000000010000000000000000000000010001000000
0101010000100001000010010010000000000000000000010010010001000101001001
0010000001001000000000000000000010000000000000000100000000000001000100
0000000001000000000100000000000100100000000100001000010010000000100101
0000001000000000000001000100000000000000010000000000001000000000000000
0001000000100000000000001000000000000000001000001000000000100001000000
0010010010010000100000001001000000000000000000000001001000000000100101
0010000000000000000000010001001000000000000000000000000010000000000000
0000000000000000010000000000000000100000000000000100010101001000001001
0010100000000001000000010100100000000100000000001000100000000000000000
1000000100000000000000000000000000000010000000000000000000000010001000
0001001010010010000000000000101000000100000001000000010010000000001010
1000100100100000000000000000000000000000000000000000001000000001000100
1000000000000000000000010000000000001000000000000001010010001000000010
1000000100000000000000000100100000000000000000000000000001000010000000
0000100000010010010000000000000000000000000100000000000000000000000001
0000010010101010000001001000100100000010100000000000010100100000001010
0101010000000000010000000000000000100000000000000000000000000100000000
0000000000000100010001000010000100000000000000000001001000000100000010
0100000001000100000000000010100000000000000100001000000010000000000100
0000000001000000000000001000000000000000000000000000000000000000000000
0001001001000100000100100100010100001001010100000000001001010000010100
1010010000000000000000000010000000000010000000000000000000000000000010
0000001000000000000000000000010000010000000000100000100000100000000001
0000000000010000000000100000100000000000100100100000100000000000000000
0000000100000000100001000000000100000100000000000000000000000000000000
0000000000000010100010000010101001000101001001000001000000000100000100
1001000000000000000000000000000100000000000000000000000000000000000000
0000000001000100010000000100000000000000000100100000000001010000000000
1000000000000100000000010100010000000010010010000100000010001000000000
0000000000001000000010000100010000000000010000000000000010000000000001
0000100100000001001000000001001010000010010101000000001000000010000101
0100000100001000000000000000000000010001000000000010000000000000000000
0001000000001000100000000000010000000000000000000000000001000000000001
0100000000000100100000000100001000000000100001000000010000000000100000
0000000001000000000000000000000010010000010010000010001000100000000010
0001000000010010001001000101001001000001010010010000000001000001000100
1001000010001001000000000000000000000000000000000000001000001000100000
0001000000010100000001000100100000000000100010000001000000100000000000
0101000100000000101010000001000100010000010000100000000001000100000001
0000000000000010000000010000000010010010010100000001001000000000001001
0100000010000100000101000010010100100000010001001001000000100000100010
0010100001000010010000000000000000000000010010000000000000000001000000
0000000000010100000000010010010000000010100000100001000000010000000000
0100100010000000000001000100000100001000001000010000000000000000000000
0001000000000100001000000000000010010100100101000000100010000000100101
0010000010000001000100100001010010100000001000000000000100000001100001
0000010000100000101001000000000001000000000000000000000001000100000000
0000001000000001000100000101000000000001010000001000000000001000010000
0001010001001000000000001010000010000101000100001010000000000100010000
0000001000000000000000000000001000100100100010010000000001010000010101
0100000010100000101010100000100001001000000100000001000000100000100010
1000001000010000001001000000000000000010000001001000100010000000000100
0000000000000001001010000001010000000101010000001000000000010100010000
0001001000010000000101000001000000000100100010000100100000000000000001
0010000001000000000000000100100000001001001010010100010000101000000101
0000000001001000100001000000000001010000000010000010000000000100010010
1001000000101001000001001000000100000000001000000010000100000000000001
0000010000000000100001000001001000001010101001000000001000100100101000
0001010100000000001001001000000000000000010100000000010100000001000001
0010010000010000000000001000000100000100000100101000001000000000000001
0000000000000101001000000000010000101000000000101000000000010000101010
0010100000101010100000001000001000000000010010000100100100000000000000
0000010001000001010000001001000100000010010101010000000010010010000100
0000101001000000101001000001000000000100001010000000001001000000000010
0100100000001000000000000001001000100100000100010000000010000000000001
0000000000000001000000000000000100010100000000000010000000001000001001
0000010000010010101000010100100000000100000101000100100100010000000000
0000101000100001000000010000010010000010010010101000100100010001000010
0000010010100100000010000000100000010001000100000100000010000000001000
1000010100000000000000010000000000000000000010000100010100000100000000
1010000000000000100000000000000000001001000000000000010000100000000010
0001001000101000100100010010100001000000000000010010010010000001000001
0010010100001000000000010000010101000000010010010100001000100010010010
0000000101001001000010000010010100001000000100000010001001000000001000
0001000001000000000000000100000010000000100001000001000000000101000000
0100100000000000100000000000000000001001010000000000000000100000000000
1000101000010100000000000100100000000000001000100100100100100000100000
0001000010000010000100101000000100100000010101001000101001000000000000
0000000001001001000100000000000010000100000010100001000000000000000010
0100010000000000000000000010100010010100010000100000100000000010010000
0010010000000000100000000010001000100010001000000000000000000100000000
0000010000000100001001001000100100000010001001010101010101010000000000
0000100010100001000000100100000010010000000000100100000101000000000000
0000010001001001000100010000000100010010001001000001000000010010001001
0100010000100000000000000001010101010100010000001000010100001000100000
0000100010000000001000000100000000000000000000000000000001000000100000
0000001000001010000010100000010000000010000100000010010010010100000000
0000100001010001000000010001000000100100010000100010000010100000100010
0010000000100101001000000001000000100001000100000001010000001010000101
0010000000001000000000000000010101010100010100000100000100000000010010
0000000000100000000010000000000000000000010010000000000000101000001000
0001000100011010000001010000010100000000001000000100010010010010000000
0000100000101000001000010001000000000100100100000100010000101001000000
0000000000001001000000000010010001000000000010000000101000001010000001
0010000000000000010001000000001010101001001000000101000000000100010010
0100000000000100000000000000000010000100000000000000010000000000000000
0100001000001001000001010000001010000000010000100100001000010101000000
0010000001001000000010010000000000000000100100100000100000100101000000
0000001000010010100000100000101010100000000001000000101000000101000000
1010010000100000010000100000000010010000100000000010100000000010010010
0100100000000000000001000000000000010000000000000000000000000000000000
0001000010000100000001010100001010000000000000001010000100000100010000
0001000000000000000101001000000000000000000100100100100000000010100100
0000000001000010001001000001000010001000100000100010010000000001000000
1001010010000000001000010000010000101000000000000000100000010000000100
0100000000000000000001000100000000000010000000000000000000001000000000
1000000000100000000010101010000101001000000000101001000010000100000000
0000101001000010000010100001001000000001001001000000000000000000101000
1000000100001000010000000000000010000000000000000101000000000001010000
0000100101000000100010000100001001000100000000000000000000000100000000
0000000000000010010010000000000000000000000000000000000010000000010000
0100100010000100000010101010000001001000000000100100000000000001000000
1000101010000000000001001000001000100100000000000000000000010010001010
0001001000000000100000000001000000000000000000000000010000000000101000
1000010000000000010010010000000100100000000000000000001000000100100000
0000001000100000000000000000000000000000000001001000000100010000000001
0000001000001000100000010010100001000100001001000100000000000101000000
0010001001000001000000000001000001000000000000000010010001000000010010
0100000000000000000000000000001000000000000000000100000100000100001000
0100010000000000001000100100000100100000000010001000000000010000010000
0010000000000100000000000001000000000000010010000000100000000000000000
0100100000100000001000001000010000100010000010000001000000000001000000
0000010000000000000000000000100010010000001001000000000000000000000001
0100000000000000000000001000100001000000000000000001000100000010000101
0010000100001000000001000100000100100100000001010000000100000000001000
0000010000000000000010001000000100100000100000010010000100000000000000
0000000000001000000000010000010100000000100000000010010000000001000000
0000000000000000000000010000000000010000000000000000100000000001000000
0000000000000000000000010000000100001000100010000010001010000000000001
0101000010010000000000001000000001000000100100010000000000000010000001
0001000010001001000000000000000000100100000100100000001000000010000000
0000000000000000001000001000010010000000010000001001001010000010001000
0010000000000001001000000000010000001000000000000000000000100100000100
0000010000000000000000000000000000100010000000000000000010000100000000
1010101001000000000000000000000000000000000000100100000000000000000000
0000101000010000000100000000000000010000000000000010010000000000010000
0000000100100010000010001000010101000000000000010000100010010000000000
0100000010000000000000000000000001000000000100000001000001000000100100
0001000000100100000000001001000000000000100000000000010000000010000000
0101010101010001000010000000100100000000100000000001000000010000000000
0000000100010001000000000010000000010000001000000000000001000000000010
0100100000100000000000101000000000100000000000001000000000001000000000
1000000000000100001000000000001000000001000000001000001001000000100100
0000000001000000000100000000000000000000000000010010000000000101010001
0010010010101000100100101000000000000001000100000000100000000000000001
0010000000100000100000000100100000010001000000010010010000000010000100
0000000010000000000100100000000001000000010000000100000000000001000000
0000000000001000000000010000100000000000001000010100001010100100000100
0000000100000000000000001000000000000000010000000000000000010010001000
0100100001010000010100000010000010010000000000000001001000000000000000
0000000000000000010000000000010000010010000000000000100001000000001000
0010000000100001000000100000001000000100001000000101000010010000100000
0000100010010000000001000000000000000000100001000000001010010010001010
0000001000010010000000000000000000000000100000001000001000000010000001
0000010000100100000100000000000000000000000000000010010000000000000010
0000000000000000100000000001000000000100000001000000000100001001000000
0100000001001000001000010100001000000010000100100001010001010001001010
0100000100000000000001000000100000000010000000000000000000101000001001
0000001000000000001000010000001000000000000000000000000010000010000010
0100001000000010000001000000000000000000000000100000010100001000000000
0000000010000000000010010000100100000100100010000100000000000000000001
0000001000010001010000000100001000000000000101010000100100010101000000
0000001000000100100000000000000000000000000000100010000000000100000001
0000000000010000010000100001000000000000000000000000000000000010000010
1001000100000001000010010000000100100100000000000000001001000000000100
0100000000000000000000000000010010000100001000000000000000000000001000
0001000001000010000001001000001000000000000001001000010000000010100000
0000010001001000010010001000100000000000010000000000000000010010000001
0000010001000000100001000010000000000000000000000000010000000001000001
0010010001000100100001010100000101001000000100000010000000100000000000
0000000000000000000100000000001000000100000000010010000100001000010000
1000000100000100000000000001000100000000000100100000001000000010100001
0001001000010100001001000000000000000001000000100010000010010010000101
0000101001000000000000000000000000000010000000000000100000000000000001
0010010000000010101000100100000010000100000000000001000000001001000010
0010000000000000000000000000001000000100000000010010000000010000000010
0000000000010000000001001000001001000000000100010000000100000100101000
1000000000100010000010010000000000000000000001000000010010010101000000
0000000010100000001001000000001000000000001000000000000000000000000000
0100101000000001001000010100000000100010100000000000010000000100000000
0000000010000010100000001000000010101001010000001001000000000001000000
0100000000000001001000000000100001000000000010001001000010000001010100
0010000001000010000010010000100010001000100000000000000101000000010000
0000000010010000000010001000000001000000100000100000000010001000000000
0100100100010000000100001001000000010000101000000000100000000100000000
0000000000100100010100000101000000000010000000000100100000000000001000
0000100000000000000000000000000010000000000001000100100001001000010010
0010100001000100000000010000001000000000000100000010000000100000100100
1000010010001000000101001000100000000000000010000010000000000000000000
0001001010001000010010000000100000001000001000000000000100000100100001
0010010000001000000100100001000000000000000000100001000000000000000000
1001000000000000000100000100010000000000000000100010000001010100000101
0000010001010100001000010000000010000000001001000100100000001000000100
1000100000000010000100001001000010000000000100001000000001000000000000
0100001001000100000100000000010100000101000100000001000000000010000000
0100100000000000000010100000010000000000000100000000010001000000010000
0000000000000000000000000000000010000000000000010001000001010010000000
1000001000001010000000100100001001000000000100100101010000010010001001
0000100000100100000000000001000000001001001000010000001000000000000000
0000100000100010001001000001001010100010000010100000100010000000100000
0100010000000010000001000000000000000100000000000001001001001000010000
0000000000000000100000000100100000001000000100001000100000001000000000
0100010100000001000000000010000001000000000010010000001000010010100100
0000000010000000000000000001000010010001000000100000000001000000000100
0000000000010001000100010000101001000001000001001000010100001000100100
0100100010000000100000100001000000010000010000010010001001000000000000
0000000100000001000100000000000000000000000000000000010001010100000000
1010000100010000100000100000000000000000000000010000010100001000001000
0001000000000000000000000010001001000100000001000000000000000000100000
0100000100000010100010000000010101000000100001000100001000000001000100
1001001000000001000000010000010000000000000001000000100100010000100000
0000001000000100000000010010000000000000100000100000000000100010000000
1001000010001000010000100100001000000000000100100000100000000010000010
0100000100001001000000100010000000100100000001000000100100000000000001
0000000000000000000101000000001001000000010000000010000100000000000001
0010010000000000000010010010000000000001000000000000010000000000010010
0000010001000000100000000000010010000000000000000010010000010001001000
0010100001010100001001001010010010000000001000000010000000000000000100
0100000010010010100001010100100000000100000000001000000000000100000000
0000010000010000000000100000000000101000001000000001000000000000000000
0100100000100100000100000100010000010001001000100000001010000000000100
0000000010000000000010010000000000001000000010000000000010001010010100
0000010001010010001010101010010000100000010000000000000000100000000010
0000000001000010010000000101010000010010010000010010010000000000100010
0001000000000010000000010000000000010101000100000100000000000000100100
0001000001000000010000000001001010001010101000010000000100100000000000
0000000000000000000000010010000000000000000000000000010000000100010010
0000001000001000101001001001000000000000010000100100000001001000000000
0000000000100001010001000010100010100100010010010000100000000000000100
0000000010000000000000000000100001001001000010000000000010000000010010
0100010000000000000010000000101001010010010010000100000000010000000000
0000010000000001000010000000010000001000010000010000000000000001000000
0000000100001010100100001010100000000000000100100010010000100100000000
0000100000001000000010000100100010000100000000000000000000010010000000
0001000000000000100100000000000100010101000001000000001001000000001010
1001000000000010000000100000010010010100001000000000010000100000001000
0100000010101000010000100000000010010000000000000000000000000000010001
0000001010001010010000000010010000001000100100100000010100001010000010
0000010000010001000000000100100000000000010000000010000100000100000000
0000000010010010000000010000000010000100100000100000100101010000100100
0000000000000000100000010000001000000001000010000000000010000001000001
0000100000000000000000000100001000000010010000000000001000000000000000
0000000001000001000000000001000000010101010001000100000010000101000100
0100000000000010001000001000000100000100000010010010001000100000000010
0100000000000000000000100000000000010001010100010100010100100100010010
0000000000000100001000001000000000000000001000000000000000000010000000
0000001000000000000000000000010000000000000100100010010000000001000010
0000000000100000100001000001000100001001010010000000000001000010101000
1000100000100100000000010100001000100100000010010010001001000100000100
0000001000000000000000000100000000000100010000001000001000010100010001
0001000001000000100100000010000000000000000000000000101010000000000000
0000010000000000001000000000000000010010000000001000000001000000000010
0100010001010010010000100000000000001000001000010100000001000000010010
1000100001001000000000010010010001001000000010000100000001000100010000
0000001000010001000100000000000000000000000100000000100100001001010101
0000101000100000001000000100000000000010001000000010010010000000000000
0000000100001000010000000000000000100000000010000000000000001000000100
1010100000001001000000010010000000000100000100100100000001000000100010
0100000000010000100000000100010001000001000000000000000010000100010000
0001001000000000001000100000010000000000010001000010010100100000100100
1000010000000010010001000001000000000001010010000100001010010000000000
0100000000100010000100001000000001000000000001001001000000000010000001
0010000001000100000001000001001000000010000101010000000000001000000100
0100000000001000010000000000100010000010000100000000100000000000010000
0010001000000000000000001000000010010000101000010001001000010100000010
1010001010000001010100000000001000000000001001000001000000010000000000
0000000100000100000000100010010000000000000010001000010010000000100000
0001000000100010010000100000100100000001000001001000000001010001000000
0000010000000000000001000001000100100100000000000001000100000000000010
0100010000010000100000010000000101001000100100000000000100001000001001
0010000100000100100101000000000001001000000000010010000100000000000000
0000010000100100000000001000000000000000000000000000000000000100100000
0000100000010000101000010001010000000000100010100000000000100010001000
0000100000100000000000000100010010001000001000000001000100000100100100
0000100100100100100100100000000000010100001010000000000010000100000101
0100100010000010101010000010000000001000000100000010010000010000000000
0000000000000000000000000000000000010010000000000000000000000001001010
0000010000001010010100001000001000000100000000010000000001010000010001
0000000000000000000000100000010010010010010000010010001001001000000000
0000000001000100010010010010000000010010001001000000000001000010100010
0000010101010001001001000001000001000001001000100100001000000010000000
0000000001000000000000000000010010000000010000010001000000000000010100
0001000000000100100010000100000100001010000000001001000000001000010000
0000000000000000010000100100000100100100010000100100001000000000000000
0100100010000000000000100100100000101000001010100000000100101001000001
0000001001001000000101010000100001000100000001000000000010000001010000
0000000000000000001000010010000000010000000000100010010100000000001000
0000101000000010100000000000001010000101000001000010100000000100001000
0000010010000010010000000100000000100010010001000000000000000000100100
0000000100000100000000100010010001010100000010010000010001010010000000
1000000101000100000010100100010000010010000000001000000100010001000100
0010000001000100100000100000000000000010000001000000100000001000000100
0000010010000001000001000100001001000100100000100001010000100010000010
0000000100000000000000100000001000100000010000000000001000000100100000
1000000100000001000010100000001000010010010000101000001000000001000010
0000010010000010000001000010001010001001000001000001001000000100000000
0010000000001000000000000000000001000000010000100100001000001001000010
0000000001000000101000001010010100001010000010010010101000010000000000
0000001000000010000000000000100100100001001001000010010000001000000000
0001000000000000010000000000000100001010101000100100000001000000000001
0000001000001000000000100001010001010010000010001000001001001000000000
0010000000000000000000100000010000000000000010010010000101010010100001
0000000000000000010010000110010010000101000101000100101010001000001000
0000001000000000000000000000010010010000001000100010000000000000001001
0010000100000000010000000100000010001010010010101010010000100000000100
1000000100000100010000001000100000100101000010010000100000010010000000
0000100000100000001000000100000000000000010000100100000100000001010000
1000001000000000000001000010101000000010100000100000001001000100000100
0000000100000000000001000000000001001000001000000100000001000000100000
0000000000000000001000101010000101000001000101001001001000010000000010
1010000010100010100000100100010100010100010001010100000000000100010000
0000000000000000000010000000100000100100100001001010100000000000100000
0101000000000100000100100001000100000000010000010000010100000010000000
0000100000000000100100010000000010010000010000010000100000001000000000
0000000000000000000001010010000100100000010100100010100000001000000001
0010100001000001000000010100001001001000001001000100000000000001000000
0000100000100000000000000000000001000000000100010010010100000000100001
0010100000010000000010010000101010010000001000101000101010000001000000
0000010000001000100100100000001000000000000000000010000100010000010000
0010010000100000000000100101000010000000001010000010010010000100000000
0001010000100000100000010100100100101010000100100000000000000100000001
0010000100000000000000000000100000000000000000000100100100001000010000
1010010000001010000000001000010010001000000100000100010010000100000000
0000001000000000100100100000000000000000000000100100001000000000000000
0100000010001000001000010000100101000001000101000001010101000010010000
0100101000010100000001001000010010100100100010100100001000000000100000
0000010000000000001000001000000010010001001000000010000010000100000000
1010000100000100000000000100000001000000000010000000101000000010010000
0000000000000000010001001010000100100100000001000000000000000000100000
0000000000001000010100001000010101000000100000100010100100100001010001
0001001010001010100000101010000001001010101010010101000000000000000000
0000000000000001000000010000100000000000000001000010000001000101000000
0100100010100010000010000010000001000101000001000000010010000000101000
0000000000000000000100100100010000000000010010000000000100000000000100
1001001010000100001010001000000100100100010000010000010001010001001000
0000000100000100100001001010000000101001001001001000100000000001000010
0100000000000100001000000010000000000000000000000001000000100010100001
0000010001000001010000000001000100101000100010100100001000000000100100
0000000000000001000001001010000000000000100100000001000000100000001000
0010001000001010000101000100000010000010001000101000000101001000100000
0001000010000000010000101010100010001010101010101000010100000000101000
0000100000001000000001000000010000100000000010100000100000100010101000
1010001000100000101000000100000010010000010001001010000100000000010001
0000000000000001000000001001000001001000000000000010000000000100000000
0001001000000001000101000100000000100001000100000100000010100001010000
0010100000000100001000101010100001000100100100100000010010010000001000
0000000010010000000100000000000100001000000010010100010000010001010100
0010000100010100010100000010000001010000001010100001000100000000001000
0000000000000010100000000010010000010010010000000100000001001000100001
0000100100000000100010100010000000010000100010000010000001010000101000
0010010000000010000100010010101000101010101010100100001010010000000100
0000000000000000010000000000000001000010000001010010001000001000101010
1001000000001000010101000001000000100000100010010000100000010000000100
0000000000001000000000000000101000001010010001010100001001000010010000
0000000010000000010000010001000000000001010101001010000000001000100100
0101000100000001000010100001010000010010010010000010101001010010000001
0000000001000000000000000100000001001010010000100100000101000100010100
1010000000000000001001010000100010000000000001001000010000001000001010
0000100000000100000000000000000010000100101000000000100100100001001000
0000000001001000101000001000100001000001001010101001001000000100010001
0101001010010000100010101000101000010100001010100001000100100101010000
1000000000100101000000000001000000101001010100000010000101000010001000
0100000100000000100000101000010000000000010000000100010000000010000010
0000010000000010001001000000000010000100100100000000001001001000000100
0010000000010100001000000100010000100010100010010100000100000010000101
0100100001001000010001001010001010001001000101001000000000010100100000
1000000000010100101000000000101000010000100101000001000010100010000101
0010000010000000010100010100001000000001000100000010001001000001000001
0000001000010000010100100000000010000010010010000000000001010100000010
0010001000000010001010000100010100000001010000101010000010000001000001
0010001000010100000000000100000100000101000010000101000000001001001000
0100000000001001010010000000000000000000100010101000100000100001000001
0100000001000000010010001010001010000100000010000001000010100010100101
0100000100001000001001010000000000100001001001000000010001010010000000
0010000000000001001001000101000010000010101000010010010001000001000000
1000010100010010000000000010000000000001001001000010000000000101010000
0001000000000101000001000001000000000000100101001000000010010000010100
1001000001010001000001000100000101000010000001000000101001010001001010
1010000000000100000101001000000001001000000100100001001000001000101000
1000000000000000010100000000100000001000001000001000001000000010100000
0100001010000101000000000000000100000000101010101001010000000010010000
0000100100000000000000101000100000000000010100101010000001010100001010
0000101000100000101000101000000101010001000000100000010010001010100001
0101000000000000000000010100000010100100000001001010010100000100001000
0001000000000000001010000000010000010100000100001010000100000010100000
0010001001000100100100000000000101000000100100101010100101000001001000
0000010010000000001000010000010000000000000000100101000001001001000010
0000101000010100001000010101000010010000100010000001000001001010100000
1001001000000000001000000100000000010010000000001001000010001010000101
0010001001000000001010000000000100010100000101000001000010000000010010
0001000100001010000010010000000010000010000010100100100010010001010010
0000001001001000000010000000001000000000100010001000100000010000000001
0000100100000100000100001001000000001000010001000000101000000110010001
0100000100000001000100000000000000001001000000000001010000010101000101
0100000100010001000000000000010010000100100000100001010001001000010101
0000100000000101000001001000000001000010101001010100000001010010010010
0000000100100100000001001000000100000000100000000100001000100010000000
1000000010100010100001000000101000000100001010100000010000010001101000
0100000000000000001010000100000100000100100000000001001000000000100010
0101000000101000010000000000000001000010101000010000001000010100000100
100101000000001010001010001000