<?xml version="1.0" encoding="UTF-8" standalone="no"?>
<svg
   width="178.12787"
   height="240.89705"
   version="1.1"
   id="svg35"
   sodipodi:docname="HM2.svg"
   inkscape:version="1.1.1 (c3084ef, 2021-09-22)"
   xmlns:inkscape="http://www.inkscape.org/namespaces/inkscape"
   xmlns:sodipodi="http://sodipodi.sourceforge.net/DTD/sodipodi-0.dtd"
   xmlns="http://www.w3.org/2000/svg"
   xmlns:svg="http://www.w3.org/2000/svg">
  <defs
     id="defs39" />
  <sodipodi:namedview
     id="namedview37"
     pagecolor="#ffffff"
     bordercolor="#999999"
     borderopacity="1"
     inkscape:pageshadow="0"
     inkscape:pageopacity="0"
     inkscape:pagecheckerboard="0"
     showgrid="false"
     fit-margin-top="0"
     fit-margin-left="0"
     fit-margin-right="0"
     fit-margin-bottom="0"
     inkscape:zoom="0.51076917"
     inkscape:cx="562.87657"
     inkscape:cy="392.54523"
     inkscape:window-width="1312"
     inkscape:window-height="855"
     inkscape:window-x="0"
     inkscape:window-y="23"
     inkscape:window-maximized="0"
     inkscape:current-layer="svg35" />
  <polyline
     points="0, 238 0, 234 1, 231 2, 229 2, 226 1, 224 3, 223 4, 221 1, 221 2, 219 4, 219 3, 217 3, 215 0, 216 0, 214 2, 213 1, 211 1, 209 1, 208 1, 206 1, 204 2, 202 2, 200 0, 198 3, 198 5, 197 6, 196 8, 195 9, 194 11, 194 10, 192 9, 191 8, 189 7, 187 5, 188 6, 190 7, 192 5, 192 5, 194 2, 195 3, 193 1, 191 2, 189 2, 187 3, 186 5, 185 5, 183 1, 182 1, 179 2, 178 6, 177 7, 175 7, 173 7, 171 5, 171 4, 173 3, 175 0, 176 1, 172 2, 169 3, 167 3, 165 0, 162 1, 158 1, 155 1, 152 0, 150 2, 149 3, 150 3, 152 3, 154 3, 156 4, 158 3, 160 4, 162 5, 164 6, 166 7, 169 8, 168 9, 166 8, 164 10, 163 11, 165 12, 163 12, 161 14, 161 14, 159 15, 158 13, 157 14, 155 16, 156 17, 158 18, 160 17, 161 19, 162 18, 163 16, 164 15, 163 14, 165 14, 167 12, 167 10, 168 11, 170 13, 169 14, 170 16, 169 16, 167 17, 166 18, 168 19, 170 19, 171 18, 173 17, 171 15, 172 13, 172 11, 172 9, 172 10, 174 12, 174 11, 176 9, 176 8, 177 8, 179 6, 179 6, 181 8, 182 9, 184 8, 185 9, 187 11, 186 13, 186 14, 188 13, 189 11, 189 12, 191 13, 193 15, 193 14, 195 15, 197 16, 199 17, 197 19, 196 17, 195 18, 194 17, 192 15, 191 16, 190 18, 189 18, 188 16, 187 16, 185 17, 183 18, 181 20, 182 19, 183 19, 185 20, 187 21, 189 23, 189 23, 187 24, 186 22, 185 24, 184 26, 184 25, 182 24, 181 22, 182 21, 180 23, 179 23, 177 21, 177 20, 178 19, 179 17, 179 15, 180 15, 181 15, 183 13, 184 11, 183 10, 181 12, 181 11, 179 12, 178 14, 178 13, 176 14, 174 16, 174 16, 176 16, 177 18, 176 19, 175 20, 173 21, 175 23, 175 24, 173 22, 173 22, 171 21, 169 23, 169 24, 168 26, 168 26, 170 24, 171 26, 172 28, 172 29, 170 29, 168 30, 166 29, 163 27, 164 27, 166 25, 166 23, 165 22, 166 20, 167 19, 165 20, 164 22, 163 24, 163 25, 162 25, 160 26, 158 28, 160 29, 157 30, 154 27, 154 30, 151 32, 149 34, 147 35, 143 31, 143 29, 145 27, 147 26, 149 25, 151 23, 152 24, 154 23, 155 24, 156 23, 158 23, 160 21, 161 20, 159 20, 158 21, 156 19, 156 20, 154 21, 152 19, 152 18, 154 16, 154 16, 152 16, 150 18, 150 20, 149 21, 150 23, 149 22, 147 24, 146 25, 144 25, 142 24, 140 22, 140 22, 142 22, 144 21, 145 20, 143 18, 144 19, 146 19, 147 17, 148 16, 147 16, 145 15, 143 17, 142 19, 141 18, 139 20, 139 20, 137 22, 138 23, 136 24, 134 23, 132 21, 132 21, 133 21, 135 19, 135 17, 136 17, 137 15, 138 16, 140 14, 141 13, 139 11, 140 12, 142 13, 144 13, 146 14, 148 13, 150 14, 152 12, 153 11, 155 9, 155 9, 157 11, 158 11, 159 9, 160 9, 161 7, 162 6, 160 7, 158 6, 156 6, 154 6, 152 5, 150 5, 148 4, 146 3, 147 1, 147 1, 145 3, 144 1, 143 2, 142 3, 141 5, 140 6, 142 5, 143 7, 144 6, 145 7, 147 8, 149 8, 151 9, 153 10, 151 11, 150 11, 148 11, 146 9, 146 10, 144 9, 143 10, 142 8, 141 7, 139 8, 137 9, 139 10, 138 12, 137 12, 136 14, 136 14, 134 14, 132 16, 132 16, 134 18, 133 18, 131 19, 130 19, 128 17, 129 15, 130 14, 129 12, 130 11, 131 12, 132 12, 134 10, 134 9, 135 8, 133 9, 132 8, 130 10, 129 9, 127 10, 126 10, 124 12, 124 13, 126 15, 125 16, 126 18, 125 19, 124 20, 126 22, 125 23, 126 22, 128 22, 130 24, 130 26, 129 26, 132 28, 131 29, 130 29, 127 30, 126 31, 125 33, 124 34, 126 33, 127 33, 129 32, 131 32, 133 30, 134 29, 135 26, 136 25, 138 27, 140 31, 139 33, 136 35, 135 35, 133 35, 132 37, 131 38, 133 39, 131 41, 132 41, 134 41, 135 38, 135 37, 137 35, 139 39, 140 40, 137 42, 138 44, 136 44, 134 43, 132 43, 130 43, 128 43, 126 43, 124 44, 122 43, 121 41, 122 40, 124 39, 126 41, 126 40, 128 39, 129 36, 128 37, 126 36, 125 36, 123 37, 122 39, 121 40, 120 39, 118 37, 119 35, 120 34, 118 36, 117 38, 116 36, 115 37, 113 34, 113 34, 111 35, 109 37, 108 38, 106 38, 102 41, 101 41, 104 41, 107 41, 109 39, 110 37, 111 39, 112 41, 112 43, 111 44, 109 44, 106 44, 103 45, 101 45, 98 42, 98 42, 95 43, 94 46, 94 45, 92 44, 90 44, 88 45, 86 47, 85 48, 83 45, 83 43, 84 42, 86 41, 87 41, 89 42, 91 40, 92 39, 90 38, 88 37, 90 35, 91 37, 92 36, 94 39, 96 38, 98 35, 99 32, 99 33, 96 30, 96 28, 96 28, 98 29, 100 28, 102 26, 101 26, 99 25, 96 23, 98 21, 101 24, 101 24, 103 26, 104 26, 106 27, 108 28, 106 29, 104 32, 103 35, 103 34, 106 32, 107 31, 109 30, 111 27, 110 27, 112 26, 114 25, 115 26, 117 28, 116 30, 116 29, 114 31, 113 32, 115 33, 116 32, 118 30, 119 32, 120 30, 122 28, 124 27, 125 26, 127 25, 125 26, 123 27, 120 25, 119 24, 121 23, 123 21, 123 19, 122 18, 120 17, 122 16, 123 14, 123 14, 121 16, 120 16, 118 18, 117 18, 116 20, 115 21, 117 20, 119 21, 121 22, 119 23, 117 23, 115 23, 112 22, 109 24, 108 23, 106 22, 104 20, 106 19, 107 20, 110 20, 112 19, 113 16, 114 15, 116 14, 118 13, 119 11, 119 12, 121 11, 122 9, 122 7, 123 7, 125 5, 126 4, 127 5, 128 7, 128 6, 130 5, 131 3, 132 4, 134 6, 133 7, 135 5, 136 5, 137 4, 138 2, 138 2, 139 0, 140 0, 136 2, 136 2, 134 1, 133 1, 131 2, 130 3, 129 0, 128 2, 127 1, 125 2, 124 4, 124 5, 123 6, 121 7, 120 9, 120 9, 118 11, 117 11, 115 13, 116 13, 114 14, 113 15, 112 17, 111 17, 109 16, 107 15, 105 17, 104 19, 103 18, 101 17, 99 19, 99 20, 98 21, 96 19, 96 17, 97 17, 95 15, 96 15, 98 13, 98 11, 97 13, 96 12, 94 14, 93 15, 94 17, 93 17, 91 18, 90 20, 90 22, 89 23, 91 22, 92 20, 92 19, 94 21, 94 23, 94 25, 93 25, 91 25, 90 24, 88 26, 87 24, 86 26, 85 28, 85 29, 84 29, 82 28, 80 26, 79 26, 77 28, 76 27, 74 29, 73 29, 72 30, 70 32, 70 31, 68 30, 66 29, 64 28, 63 26, 64 26, 66 28, 66 28, 68 28, 70 26, 70 26, 72 24, 73 25, 75 23, 76 23, 77 21, 78 19, 78 18, 79 19, 81 20, 83 21, 81 22, 80 24, 79 25, 81 27, 82 26, 83 24, 84 23, 82 22, 84 21, 85 22, 87 20, 88 18, 88 19, 86 18, 84 17, 86 15, 86 15, 84 15, 82 17, 82 16, 80 15, 78 14, 79 13, 81 12, 83 13, 85 13, 87 15, 88 15, 89 15, 91 13, 91 12, 89 11, 87 9, 88 8, 89 8, 91 10, 90 11, 92 9, 93 10, 95 8, 96 8, 97 9, 99 10, 101 11, 99 12, 101 14, 101 15, 100 16, 102 15, 103 13, 103 12, 105 13, 106 11, 107 10, 105 11, 103 9, 103 8, 105 9, 107 9, 109 10, 110 12, 109 14, 108 14, 110 13, 111 11, 112 10, 113 9, 115 8, 116 7, 118 5, 118 4, 119 4, 121 2, 122 0, 122 1, 120 2, 119 1, 117 2, 116 4, 116 6, 116 6, 114 8, 113 8, 111 6, 112 5, 110 3, 111 4, 112 4, 114 2, 114 0, 114 1, 112 0, 110 2, 109 3, 108 4, 106 5, 108 7, 109 7, 107 6, 105 7, 103 7, 101 7, 100 6, 98 5, 96 3, 97 4, 99 4, 101 5, 103 3, 104 1, 106 1, 104 2, 102 1, 101 1, 99 1, 98 0, 96 2, 95 3, 94 5, 94 7, 94 6, 92 5, 91 3, 92 1, 93 1, 91 2, 90 1, 88 0, 86 1, 83 2, 84 3, 86 3, 87 4, 89 6, 89 6, 87 5, 85 4, 83 5, 82 5, 80 4, 78 3, 80 1, 81 1, 79 1, 77 1, 76 3, 76 2, 74 1, 72 1, 70 3, 70 5, 69 4, 67 2, 68 1, 67 1, 65 1, 63 1, 61 1, 59 1, 57 1, 55 1, 53 2, 52 3, 54 4, 56 3, 58 5, 58 6, 60 5, 61 3, 61 4, 63 3, 65 5, 65 6, 64 8, 64 7, 62 9, 61 8, 59 8, 58 7, 56 6, 55 5, 53 5, 52 4, 50 6, 49 5, 47 3, 48 2, 50 1, 48 2, 46 1, 45 1, 43 3, 42 3, 43 4, 45 6, 45 7, 46 8, 48 10, 47 9, 45 10, 44 11, 42 10, 41 9, 39 7, 40 8, 42 6, 43 5, 41 5, 40 6, 38 5, 37 6, 35 6, 33 7, 31 8, 33 8, 35 8, 37 10, 36 11, 34 12, 36 11, 38 12, 40 13, 38 14, 40 15, 42 14, 43 12, 44 13, 46 12, 47 11, 49 9, 50 7, 51 8, 53 10, 52 11, 54 11, 55 9, 55 10, 57 11, 58 13, 57 14, 59 16, 58 15, 56 14, 55 13, 53 12, 51 13, 50 14, 48 15, 50 17, 49 19, 49 21, 48 21, 49 21, 51 22, 53 23, 55 23, 57 21, 57 20, 55 20, 54 19, 52 18, 51 16, 52 15, 53 17, 54 18, 56 18, 57 19, 59 17, 60 17, 61 15, 61 13, 62 12, 60 11, 61 10, 63 12, 64 11, 65 9, 66 7, 67 7, 69 6, 71 4, 72 4, 73 5, 75 6, 77 7, 79 8, 80 7, 82 7, 84 8, 86 10, 85 10, 84 9, 82 11, 81 10, 79 12, 79 11, 77 12, 76 14, 76 13, 74 15, 73 16, 75 17, 77 19, 76 21, 75 22, 74 21, 72 23, 71 24, 70 25, 68 24, 67 22, 68 20, 68 19, 69 20, 70 19, 72 18, 74 17, 72 17, 70 16, 68 15, 70 14, 71 12, 72 10, 72 10, 74 9, 75 8, 77 7, 75 7, 73 8, 71 9, 69 10, 68 11, 70 13, 69 12, 67 14, 66 14, 64 16, 63 17, 64 16, 66 18, 66 20, 65 21, 66 23, 65 23, 63 21, 63 19, 63 20, 61 21, 59 23, 60 23, 61 25, 62 27, 61 27, 60 25, 59 25, 57 26, 55 27, 57 29, 56 28, 54 27, 52 26, 53 24, 53 24, 51 26, 50 28, 49 27, 47 28, 45 29, 47 30, 46 30, 44 29, 42 28, 40 30, 40 31, 42 33, 41 35, 40 37, 39 38, 41 39, 39 40, 38 39, 36 41, 35 40, 33 40, 31 38, 31 37, 29 36, 31 37, 33 37, 35 36, 37 35, 35 34, 33 33, 31 34, 29 32, 29 31, 27 32, 25 32, 23 32, 21 32, 19 32, 17 32, 15 32, 13 31, 11 29, 12 29, 13 30, 15 28, 15 27, 13 25, 14 26, 16 26, 17 26, 19 28, 19 29, 17 30, 19 29, 21 30, 23 30, 25 28, 26 29, 28 29, 29 30, 31 31, 32 32, 34 31, 35 32, 37 33, 36 34, 38 32, 39 30, 38 28, 38 29, 36 28, 35 29, 33 27, 33 27, 31 27, 30 26, 28 24, 27 26, 26 27, 24 26, 23 27, 22 25, 21 23, 22 22, 23 24, 24 22, 25 22, 27 21, 29 22, 30 24, 29 25, 31 24, 32 22, 32 20, 32 19, 33 17, 34 16, 35 18, 36 19, 38 20, 40 20, 41 21, 43 23, 43 24, 42 23, 40 22, 39 23, 38 21, 37 20, 35 22, 35 23, 34 25, 34 26, 36 25, 37 26, 38 26, 40 26, 41 27, 43 25, 44 25, 45 25, 47 24, 49 23, 47 22, 45 20, 46 19, 44 18, 46 16, 47 15, 45 17, 44 18, 42 17, 41 16, 39 17, 38 15, 37 14, 35 13, 33 14, 32 16, 32 18, 31 19, 30 18, 28 16, 28 15, 30 13, 29 11, 29 12, 31 10, 32 9, 30 8, 28 6, 29 6, 27 7, 26 6, 24 4, 24 3, 25 4, 27 4, 29 5, 31 3, 32 3, 33 4, 35 2, 36 3, 38 2, 40 0, 40 0, 38 0, 36 1, 34 0, 32 2, 30 1, 29 1, 27 1, 26 0, 24 2, 23 3, 22 2, 20 0, 20 1, 18 0, 16 2, 15 3, 14 1, 13 2, 12 2, 10 3, 8 1, 8 2, 6 2, 4 0, 4 0, 2 0, 0 2, 0 3, 2 5, 1 7, 0 7, 2 6, 3 4, 4 4, 6 6, 6 7, 5 9, 5 10, 4 9, 2 10, 1 12, 1 12, 3 13, 4 14, 1 15, 2 17, 1 19, 1 21, 1 20, 3 18, 3 16, 4 16, 5 15, 6 14, 8 16, 8 15, 10 13, 11 13, 10 12, 8 13, 6 11, 6 9, 7 10, 8 10, 10 11, 12 10, 13 12, 14 12, 16 10, 15 10, 17 9, 19 7, 20 6, 18 8, 17 8, 15 8, 13 7, 11 8, 10 7, 8 6, 9 4, 10 5, 12 5, 13 6, 15 5, 16 3, 17 4, 19 5, 21 6, 22 8, 22 9, 24 9, 25 10, 27 12, 27 14, 27 15, 26 17, 25 18, 26 20, 27 20, 25 20, 23 20, 21 22, 20 24, 19 23, 17 21, 18 20, 19 18, 19 18, 21 18, 23 16, 23 16, 21 14, 21 13, 22 14, 24 12, 25 11, 23 10, 21 11, 20 13, 19 13, 18 15, 17 16, 19 17, 17 18, 16 20, 16 21, 15 23, 15 23, 13 24, 12 26, 11 28, 10 30, 9 29, 7 27, 8 26, 7 24, 7 25, 9 23, 10 22, 9 21, 11 20, 13 18, 14 16, 15 14, 15 14, 13 16, 13 17, 12 17, 10 19, 11 19, 9 18, 7 19, 5 20, 7 22, 7 22, 5 24, 5 23, 3 23, 2 24, 0 26, 0 27, 2 26, 3 26, 5 28, 5 28, 4 30, 3 29, 1 31, 1 31, 0 34, 1 33, 3 35, 4 37, 3 37, 1 37, 0 40, 1 39, 3 39, 5 40, 7 41, 9 43, 9 42, 11 40, 12 41, 14 41, 15 42, 17 40, 17 38, 17 37, 15 38, 14 37, 12 37, 10 39, 10 38, 8 37, 6 35, 6 33, 5 31, 5 31, 7 33, 8 35, 8 34, 10 33, 11 35, 12 34, 14 35, 16 36, 18 36, 19 34, 19 35, 21 36, 23 34, 23 35, 25 34, 27 36, 27 38, 27 38, 25 38, 23 38, 21 39, 19 40, 20 42, 20 44, 19 45, 17 44, 15 43, 13 45, 13 45, 11 45, 9 47, 8 46, 6 45, 4 44, 6 43, 7 42, 5 42, 3 44, 2 43, 0 46, 0 47, 2 48, 4 49, 6 51, 5 50, 3 49, 1 52, 1 53, 3 54, 5 55, 7 57, 6 58, 4 56, 3 55, 1 57, 0 60, 0 59, 2 61, 2 63, 1 64, 3 66, 4 66, 1 67, 2 69, 2 70, 0 71, 2 73, 1 74, 0 75, 2 74, 3 72, 4 70, 4 69, 5 67, 6 68, 8 70, 7 71, 9 73, 10 72, 11 72, 13 71, 15 69, 15 70, 13 69, 11 69, 10 67, 11 67, 13 65, 13 64, 11 63, 9 65, 9 65, 8 65, 6 64, 5 62, 6 61, 4 60, 6 60, 8 61, 10 62, 12 63, 14 62, 16 64, 16 66, 15 67, 17 65, 18 64, 20 64, 22 64, 25 67, 25 68, 23 70, 24 70, 21 67, 20 69, 18 71, 18 73, 18 74, 16 74, 14 75, 12 75, 10 74, 8 72, 7 73, 6 75, 5 76, 7 78, 6 77, 4 79, 4 79, 2 77, 2 77, 0 79, 0 82, 1 82, 4 84, 3 85, 2 86, 0 88, 0 89, 2 88, 3 89, 4 86, 4 85, 6 84, 8 80, 8 78, 8 77, 9 78, 10 79, 12 77, 12 77, 14 77, 16 78, 18 77, 19 75, 20 73, 21 73, 24 73, 26 71, 28 68, 28 65, 28 64, 29 63, 31 60, 32 59, 34 63, 34 63, 36 60, 37 60, 40 58, 39 57, 41 55, 42 55, 44 53, 45 52, 43 51, 41 52, 40 54, 39 55, 37 55, 35 56, 34 57, 32 58, 30 58, 28 60, 28 61, 26 59, 25 57, 26 56, 24 54, 24 55, 22 55, 20 57, 19 58, 21 58, 23 60, 23 61, 22 61, 20 62, 18 60, 18 57, 17 59, 16 60, 14 59, 12 58, 10 57, 8 55, 10 53, 11 53, 9 52, 7 50, 8 50, 10 48, 11 50, 12 48, 13 49, 15 47, 15 47, 17 46, 19 45, 21 43, 22 42, 23 40, 23 41, 25 42, 27 40, 27 40, 29 42, 30 43, 32 44, 34 43, 35 42, 37 43, 39 45, 39 45, 37 47, 37 47, 35 46, 33 45, 31 46, 29 44, 29 45, 27 44, 25 45, 24 47, 23 48, 21 49, 19 50, 17 51, 15 52, 14 54, 13 56, 12 57, 14 56, 15 54, 16 54, 18 52, 18 52, 20 51, 21 52, 22 51, 24 49, 23 48, 25 47, 27 49, 27 51, 26 54, 26 55, 28 54, 29 55, 30 54, 32 53, 33 52, 30 51, 28 49, 29 48, 31 50, 32 49, 33 49, 36 51, 35 53, 35 52, 37 50, 38 48, 39 48, 41 49, 43 49, 45 47, 46 46, 44 46, 42 44, 41 42, 41 43, 43 44, 45 45, 47 46, 49 44, 50 43, 51 41, 51 40, 49 41, 48 43, 48 42, 46 41, 44 40, 42 39, 43 39, 45 39, 47 38, 49 36, 49 36, 47 37, 45 35, 45 36, 43 36, 42 34, 43 32, 44 33, 46 33, 47 34, 49 35, 51 36, 52 38, 51 39, 53 41, 53 40, 55 41, 56 43, 55 43, 53 45, 52 47, 52 48, 50 49, 48 51, 47 53, 48 52, 50 51, 52 50, 54 49, 56 47, 55 46, 57 46, 59 43, 58 41, 58 40, 60 39, 59 38, 57 38, 56 37, 54 35, 54 33, 54 32, 53 33, 52 32, 50 31, 48 30, 50 29, 51 30, 53 31, 55 32, 57 30, 58 29, 59 30, 61 32, 60 33, 59 34, 57 35, 56 36, 58 37, 60 35, 60 35, 62 33, 62 31, 63 32, 65 34, 65 33, 67 34, 69 35, 70 37, 69 36, 67 36, 65 36, 64 37, 62 39, 62 40, 64 39, 65 39, 67 40, 70 40, 72 40, 74 39, 75 38, 77 36, 79 38, 80 36, 82 33, 81 32, 79 33, 77 34, 76 35, 74 37, 72 34, 72 32, 72 32, 74 30, 75 31, 77 29, 78 30, 80 31, 82 33, 84 31, 86 28, 87 27, 89 29, 90 28, 91 28, 93 31, 93 33, 92 32, 90 34, 88 36, 86 38, 85 39, 83 41, 82 41, 80 40, 78 42, 77 43, 75 43, 73 43, 71 43, 69 45, 68 45, 66 43, 67 43, 64 43, 62 45, 61 47, 62 46, 64 48, 66 50, 65 50, 63 50, 61 49, 59 51, 58 53, 57 53, 55 54, 53 55, 51 56, 49 57, 47 58, 44 61, 45 60, 47 60, 50 58, 51 57, 54 56, 56 56, 59 56, 61 53, 60 54, 62 53, 64 52, 66 50, 68 49, 69 47, 70 46, 71 46, 73 46, 75 45, 77 44, 79 44, 81 46, 80 47, 78 49, 77 49, 75 49, 73 50, 72 52, 71 53, 68 55, 66 55, 64 57, 63 58, 65 58, 67 57, 69 55, 71 58, 72 56, 74 53, 74 52, 75 52, 77 51, 79 49, 80 50, 82 50, 84 50, 86 49, 87 47, 88 47, 90 48, 92 48, 93 49, 95 48, 97 48, 100 51, 99 51, 97 53, 96 51, 95 51, 93 52, 92 50, 91 50, 89 53, 89 54, 86 53, 83 53, 81 56, 83 56, 81 55, 79 56, 77 58, 78 59, 80 60, 82 59, 83 58, 86 58, 89 56, 92 56, 95 55, 98 54, 99 54, 101 55, 103 56, 102 59, 100 60, 96 61, 93 62, 89 62, 86 63, 84 63, 82 62, 80 61, 78 59, 76 61, 75 62, 74 64, 73 67, 73 67, 71 67, 69 68, 67 68, 65 68, 64 69, 62 70, 60 70, 57 68, 58 66, 57 67, 55 66, 53 65, 55 63, 56 62, 58 64, 58 66, 60 65, 62 64, 63 62, 64 63, 66 65, 65 66, 67 64, 68 64, 70 61, 71 61, 68 60, 66 60, 64 59, 62 61, 62 62, 60 60, 60 58, 60 59, 58 60, 56 61, 54 63, 52 66, 50 63, 49 64, 47 64, 44 62, 43 63, 41 64, 39 66, 41 67, 39 67, 37 67, 35 67, 33 68, 32 71, 31 74, 31 75, 29 76, 26 76, 23 78, 22 81, 21 83, 20 81, 24 79, 25 79, 28 79, 31 78, 33 81, 34 84, 33 84, 36 82, 37 82, 39 80, 40 79, 38 78, 36 75, 36 75, 34 72, 34 71, 35 70, 37 70, 39 70, 42 69, 43 67, 44 67, 47 69, 46 72, 45 73, 43 73, 41 74, 40 73, 38 76, 38 77, 40 78, 42 77, 43 75, 44 74, 46 72, 47 73, 49 72, 51 70, 49 69, 51 69, 53 70, 55 72, 54 75, 53 77, 54 75, 55 73, 56 73, 58 74, 61 76, 60 76, 58 78, 57 78, 56 80, 55 81, 57 82, 55 83, 53 85, 52 85, 50 86, 48 86, 46 89, 46 89, 48 88, 50 89, 52 88, 54 87, 56 85, 55 84, 57 84, 59 87, 58 86, 59 86, 62 85, 64 84, 66 84, 68 82, 67 81, 64 82, 62 82, 59 79, 60 78, 63 78, 65 79, 67 78, 69 80, 69 82, 69 81, 71 79, 72 77, 71 75, 72 74, 70 76, 69 76, 67 76, 66 75, 64 73, 63 73, 65 71, 65 71, 67 73, 67 72, 69 70, 69 71, 71 70, 73 69, 75 67, 76 65, 76 64, 77 64, 79 65, 80 67, 80 67, 82 66, 83 66, 85 66, 87 65, 90 65, 93 66, 97 70, 96 69, 92 72, 90 69, 88 69, 85 70, 84 70, 82 69, 80 68, 78 70, 77 71, 79 73, 78 72, 76 72, 74 75, 75 75, 77 76, 78 75, 80 74, 81 72, 81 73, 83 73, 85 72, 87 74, 87 75, 85 77, 86 77, 88 76, 90 76, 94 74, 95 74, 98 71, 101 68, 102 64, 100 63, 103 60, 106 57, 106 55, 105 55, 107 55, 109 57, 109 56, 111 54, 112 54, 114 53, 115 52, 117 52, 119 52, 121 50, 122 49, 120 49, 118 47, 117 46, 115 48, 113 49, 115 50, 114 50, 112 51, 110 51, 107 52, 105 51, 102 48, 104 48, 107 47, 109 46, 111 45, 113 43, 114 43, 116 41, 115 41, 117 42, 119 45, 118 45, 120 47, 120 47, 122 46, 124 45, 126 47, 126 46, 128 46, 130 47, 132 46, 133 47, 135 49, 134 50, 132 49, 130 49, 128 49, 126 49, 124 51, 124 51, 126 53, 125 53, 123 55, 123 54, 121 56, 121 58, 120 58, 121 57, 123 57, 125 55, 125 54, 127 52, 128 52, 130 53, 132 52, 134 52, 136 52, 138 49, 138 47, 137 46, 139 45, 141 43, 143 40, 145 38, 147 38, 151 35, 152 34, 155 33, 158 32, 160 32, 163 34, 164 33, 167 32, 169 32, 171 33, 173 31, 174 30, 172 29, 174 29, 176 27, 176 26, 174 25, 176 26, 178 25, 179 27, 180 29, 179 30, 178 32, 177 32, 176 34, 175 35, 177 36, 175 36, 173 35, 171 36, 170 36, 167 38, 168 39, 165 41, 166 42, 163 45, 164 46, 161 48, 160 49, 156 52, 156 53, 160 52, 162 49, 164 46, 167 49, 168 52, 168 53, 166 56, 165 57, 162 56, 158 56, 155 58, 153 61, 151 60, 147 62, 146 64, 144 67, 143 70, 144 71, 142 74, 141 74, 139 74, 137 73, 135 71, 136 71, 138 70, 139 67, 140 66, 137 67, 135 68, 133 71, 133 72, 132 74, 132 75, 134 77, 133 78, 132 78, 130 76, 131 75, 129 73, 130 71, 130 70, 129 72, 128 74, 127 72, 126 71, 124 73, 123 74, 125 75, 124 76, 122 76, 120 75, 118 77, 117 78, 118 79, 120 82, 119 83, 121 81, 122 79, 123 79, 125 77, 126 78, 128 80, 127 81, 125 83, 124 84, 126 83, 128 81, 129 81, 131 83, 132 85, 131 87, 131 89, 130 88, 128 86, 128 87, 126 86, 125 87, 124 89, 123 90, 121 91, 119 91, 116 89, 117 88, 119 87, 121 85, 122 85, 119 85, 117 82, 116 84, 114 87, 114 90, 113 91, 110 88, 110 90, 107 93, 107 96, 108 95, 105 97, 104 100, 103 100, 101 99, 99 100, 98 102, 98 101, 96 103, 95 105, 97 105, 99 103, 100 102, 102 105, 102 104, 104 103, 106 100, 106 100, 109 101, 112 98, 112 95, 111 94, 113 94, 116 94, 119 93, 121 95, 122 96, 120 97, 118 97, 116 100, 115 100, 118 99, 120 98, 122 97, 124 97, 126 98, 128 99, 130 100, 132 101, 134 102, 136 101, 138 103, 138 105, 139 105, 137 105, 135 103, 133 102, 131 101, 129 100, 127 100, 125 101, 124 101, 122 102, 120 103, 118 103, 115 106, 115 105, 112 104, 109 107, 108 109, 106 109, 103 107, 104 107, 101 108, 99 110, 98 111, 101 113, 100 113, 97 115, 98 118, 98 120, 96 122, 94 122, 91 124, 92 124, 88 125, 86 122, 85 121, 87 119, 89 117, 91 119, 92 117, 94 115, 95 114, 92 112, 91 111, 94 110, 95 108, 96 106, 95 106, 93 107, 92 109, 91 110, 89 109, 87 108, 85 109, 84 111, 84 112, 86 112, 88 115, 88 116, 86 118, 84 120, 82 117, 81 115, 82 114, 84 112, 82 113, 80 115, 79 116, 78 115, 76 114, 74 112, 73 112, 76 111, 78 110, 79 109, 81 107, 82 105, 83 105, 85 106, 87 107, 89 105, 90 103, 92 101, 93 99, 94 98, 96 97, 95 96, 93 97, 92 99, 91 100, 90 102, 90 102, 88 104, 88 103, 86 102, 84 102, 82 100, 83 98, 84 100, 86 99, 87 97, 87 97, 89 95, 90 93, 90 92, 91 90, 92 91, 94 93, 93 94, 95 95, 97 96, 98 97, 100 97, 101 95, 102 94, 100 93, 98 92, 96 90, 96 89, 95 86, 95 84, 97 85, 100 83, 100 82, 101 81, 103 80, 105 78, 106 77, 107 79, 108 81, 107 82, 105 83, 104 85, 103 86, 102 88, 101 87, 99 88, 98 90, 98 90, 100 92, 100 92, 102 91, 104 89, 103 87, 105 86, 107 85, 109 84, 111 81, 110 81, 112 80, 114 79, 116 77, 115 78, 113 77, 111 78, 110 76, 109 74, 110 75, 112 75, 113 74, 114 74, 116 73, 118 72, 119 73, 121 71, 121 70, 122 69, 124 70, 126 69, 127 67, 128 68, 130 65, 130 64, 133 61, 133 60, 135 60, 138 63, 137 63, 140 60, 141 58, 143 55, 145 57, 149 54, 150 52, 152 49, 151 46, 153 45, 156 42, 157 41, 159 39, 161 36, 162 36, 158 38, 155 41, 153 42, 150 45, 148 47, 146 51, 146 49, 142 52, 142 55, 141 56, 138 57, 136 55, 134 57, 132 55, 131 55, 129 56, 127 58, 128 59, 130 62, 129 63, 127 65, 127 66, 126 67, 125 67, 123 68, 122 68, 120 70, 119 70, 117 72, 116 71, 114 71, 111 68, 113 66, 116 65, 120 64, 121 65, 123 64, 124 63, 125 61, 125 60, 127 59, 125 59, 123 61, 123 62, 122 61, 121 60, 119 61, 116 58, 116 57, 118 55, 119 54, 117 56, 116 56, 114 58, 114 57, 112 60, 111 63, 112 65, 109 67, 108 70, 107 71, 106 73, 104 74, 101 77, 102 78, 100 79, 98 80, 94 81, 91 82, 90 83, 88 82, 87 80, 88 79, 86 78, 84 76, 83 78, 82 78, 80 78, 78 78, 76 78, 74 81, 74 83, 73 84, 71 85, 70 87, 69 87, 67 89, 65 90, 63 92, 62 94, 61 96, 60 97, 58 98, 54 97, 55 95, 56 93, 58 91, 60 89, 60 90, 58 91, 56 92, 54 92, 52 92, 50 92, 48 93, 46 91, 44 93, 43 95, 44 97, 43 98, 46 97, 47 95, 48 95, 52 97, 51 98, 50 102, 51 101, 53 103, 54 101, 56 100, 58 100, 60 99, 62 98, 64 97, 63 95, 64 94, 65 92, 66 91, 68 89, 68 90, 70 89, 72 88, 71 86, 72 87, 74 85, 76 83, 77 81, 78 82, 80 81, 81 81, 83 81, 85 83, 85 84, 84 85, 82 85, 80 87, 79 90, 80 92, 82 90, 84 88, 82 87, 84 87, 86 87, 88 85, 88 85, 90 87, 92 88, 90 90, 89 90, 87 92, 87 94, 87 94, 85 95, 84 95, 81 96, 80 95, 77 92, 78 89, 77 91, 75 92, 74 92, 72 93, 70 94, 72 95, 74 97, 73 98, 75 98, 77 99, 80 101, 79 102, 77 101, 75 102, 74 103, 72 103, 70 102, 68 101, 70 101, 72 99, 72 98, 71 96, 71 95, 69 95, 68 97, 66 97, 67 98, 69 100, 68 100, 66 102, 65 104, 66 103, 63 105, 62 103, 60 105, 59 105, 57 106, 55 107, 53 109, 52 111, 50 111, 48 114, 48 112, 45 114, 44 115, 41 112, 42 109, 42 109, 45 108, 48 107, 50 105, 51 104, 48 101, 48 101, 46 104, 45 106, 46 106, 43 106, 40 109, 39 110, 38 113, 38 116, 38 116, 35 117, 33 118, 32 118, 30 118, 27 116, 28 115, 26 117, 25 116, 23 117, 22 116, 20 115, 21 113, 22 114, 24 112, 24 110, 23 108, 23 106, 24 105, 26 105, 29 107, 30 109, 29 108, 26 110, 26 113, 27 112, 29 114, 30 113, 32 113, 35 110, 35 110, 32 107, 33 106, 36 104, 35 103, 37 102, 39 102, 42 100, 43 99, 40 96, 40 94, 41 94, 38 96, 37 96, 35 99, 36 100, 34 97, 32 100, 31 103, 32 102, 29 102, 26 102, 24 101, 22 100, 20 98, 19 98, 21 98, 23 96, 24 99, 26 98, 28 96, 27 94, 29 93, 32 92, 34 91, 36 90, 38 91, 40 88, 40 89, 42 88, 44 86, 43 84, 44 83, 46 83, 48 80, 47 79, 49 81, 50 79, 52 77, 51 76, 48 77, 46 79, 45 81, 45 81, 43 82, 42 84, 41 85, 40 86, 38 88, 37 87, 34 88, 32 90, 30 88, 29 85, 30 82, 30 83, 27 84, 25 85, 23 86, 20 86, 18 85, 16 83, 15 83, 17 81, 18 80, 16 80, 14 82, 13 84, 13 86, 12 87, 14 89, 13 90, 12 88, 10 90, 9 89, 7 91, 7 92, 5 92, 3 93, 2 91, 1 93, 0 96, 1 96, 3 98, 4 97, 5 96, 7 95, 5 94, 7 95, 9 93, 9 92, 11 94, 12 94, 13 92, 14 92, 15 91, 17 90, 15 88, 16 89, 18 90, 20 89, 22 88, 24 87, 26 91, 27 92, 25 93, 23 93, 21 95, 20 93, 19 94, 17 96, 17 95, 15 97, 15 97, 13 96, 11 98, 11 98, 9 98, 7 100, 6 100, 4 100, 1 104, 1 103, 3 103, 5 102, 6 101, 8 103, 8 104, 10 104, 11 106, 12 105, 13 103, 14 101, 14 102, 12 101, 10 100, 11 99, 13 99, 15 99, 17 101, 16 102, 18 103, 20 104, 22 106, 21 107, 19 105, 19 104, 17 104, 16 106, 15 107, 17 108, 16 110, 16 111, 15 110, 13 108, 14 108, 12 110, 11 111, 10 109, 9 107, 10 106, 9 107, 7 105, 7 106, 5 107, 2 109, 0 110, 2 112, 1 114, 0 115, 2 116, 0 118, 0 120, 1 118, 2 118, 3 117, 4 115, 4 114, 5 113, 3 111, 4 109, 5 109, 7 111, 6 112, 8 113, 10 115, 11 113, 12 112, 13 113, 15 113, 17 111, 18 110, 19 109, 21 111, 21 112, 20 114, 19 115, 17 116, 16 115, 14 116, 13 117, 12 118, 10 117, 9 115, 9 114, 7 116, 7 117, 6 119, 6 120, 5 121, 3 122, 1 123, 0 124, 2 126, 1 128, 1 129, 2 130, 0 131, 2 131, 4 130, 6 129, 5 128, 7 127, 5 127, 3 125, 4 123, 4 122, 5 122, 7 120, 8 120, 9 121, 11 123, 11 124, 10 123, 9 124, 7 125, 6 126, 8 126, 10 127, 12 126, 13 124, 14 123, 13 122, 15 121, 13 119, 12 119, 14 118, 15 120, 16 119, 17 117, 18 118, 20 120, 19 121, 18 123, 17 125, 17 125, 16 127, 15 128, 14 129, 12 128, 10 129, 9 131, 9 132, 8 132, 6 134, 5 134, 7 135, 9 136, 10 136, 12 137, 14 138, 16 139, 18 140, 16 142, 15 143, 16 144, 18 142, 18 142, 19 140, 20 139, 21 141, 22 140, 23 142, 24 141, 25 143, 26 142, 27 142, 29 140, 29 139, 30 137, 31 137, 30 137, 28 139, 27 139, 26 138, 24 137, 22 136, 23 134, 23 134, 21 136, 20 137, 18 136, 16 135, 18 133, 19 133, 18 134, 16 133, 15 134, 14 134, 12 133, 10 131, 11 132, 13 130, 14 131, 16 130, 17 128, 17 128, 19 130, 19 131, 20 132, 22 130, 23 128, 23 129, 21 127, 21 126, 19 124, 19 125, 21 126, 23 125, 24 124, 25 125, 27 126, 26 128, 25 129, 27 128, 28 126, 29 127, 31 129, 30 130, 32 129, 33 128, 35 127, 33 126, 35 127, 37 127, 39 128, 41 129, 43 127, 44 126, 46 123, 46 120, 47 121, 45 122, 43 123, 41 125, 42 124, 39 124, 37 124, 35 124, 33 124, 31 124, 30 123, 28 122, 26 121, 24 122, 23 123, 22 122, 20 121, 21 119, 22 119, 24 120, 26 121, 28 120, 29 121, 31 121, 33 121, 35 119, 37 121, 38 119, 40 118, 42 117, 44 117, 47 117, 50 116, 51 116, 53 113, 52 112, 54 110, 55 110, 57 108, 58 110, 60 108, 61 108, 63 107, 65 109, 66 108, 68 106, 68 105, 70 106, 72 106, 74 105, 75 105, 77 104, 79 105, 81 107, 79 108, 76 110, 75 109, 73 109, 71 111, 70 111, 68 113, 67 115, 68 114, 70 115, 72 117, 70 118, 68 121, 68 123, 67 123, 70 120, 71 119, 73 117, 74 119, 76 119, 78 122, 75 123, 73 125, 74 126, 72 126, 70 126, 68 128, 67 128, 65 129, 63 131, 61 133, 60 135, 59 136, 62 134, 63 131, 64 131, 66 134, 66 133, 69 132, 71 129, 70 130, 73 129, 75 127, 76 125, 77 123, 78 122, 80 125, 80 124, 83 127, 83 128, 80 130, 78 131, 82 133, 80 133, 77 132, 74 135, 74 135, 71 136, 69 137, 67 138, 65 139, 62 138, 59 140, 58 142, 57 142, 60 142, 63 141, 65 141, 68 140, 70 139, 72 139, 75 137, 77 136, 79 136, 82 134, 84 132, 86 130, 85 129, 87 128, 89 127, 91 127, 94 130, 93 132, 91 134, 90 136, 88 138, 86 140, 84 143, 83 145, 82 140, 80 141, 78 142, 75 143, 73 144, 70 144, 67 145, 66 145, 63 145, 61 145, 58 144, 55 147, 55 147, 53 148, 50 147, 48 147, 46 146, 44 144, 46 144, 48 145, 50 144, 52 142, 53 141, 55 138, 56 135, 56 136, 54 138, 53 139, 52 139, 50 142, 50 141, 48 139, 47 139, 45 141, 45 142, 44 144, 43 145, 41 144, 39 146, 38 145, 36 144, 34 143, 33 141, 34 140, 35 141, 37 143, 36 143, 37 142, 39 142, 41 140, 42 138, 42 136, 43 136, 45 137, 48 136, 50 135, 47 133, 48 133, 50 133, 52 132, 54 132, 57 129, 58 127, 60 126, 62 125, 64 123, 65 122, 62 123, 60 121, 58 120, 60 118, 59 116, 60 115, 62 118, 62 120, 64 118, 65 116, 65 114, 65 111, 64 112, 62 113, 60 113, 58 115, 57 115, 55 118, 56 120, 55 120, 53 120, 50 123, 50 125, 49 126, 52 125, 54 123, 53 123, 56 125, 58 127, 56 129, 55 129, 52 130, 50 128, 49 129, 47 130, 46 132, 45 133, 44 133, 42 131, 41 133, 40 135, 39 136, 41 137, 39 139, 39 139, 38 138, 36 136, 36 134, 36 133, 37 131, 38 130, 39 130, 36 131, 34 133, 34 133, 32 132, 31 131, 29 133, 28 131, 27 130, 25 132, 24 133, 26 135, 25 136, 26 135, 28 134, 30 135, 32 136, 34 138, 33 140, 32 142, 31 144, 31 145, 30 144, 28 146, 27 145, 25 146, 24 144, 23 143, 21 145, 21 146, 20 147, 19 146, 17 146, 16 145, 14 144, 12 143, 13 141, 13 139, 14 138, 12 139, 11 139, 10 141, 9 142, 11 143, 10 145, 9 146, 8 146, 6 145, 4 144, 6 143, 5 142, 7 140, 7 138, 8 136, 7 137, 6 136, 4 135, 2 133, 3 133, 1 135, 0 137, 0 138, 2 138, 3 139, 5 141, 5 141, 3 140, 1 142, 1 143, 0 143, 2 145, 2 146, 0 147, 2 149, 1 149, 0 151, 0 152, 2 154, 1 156, 1 155, 3 156, 5 157, 4 159, 3 158, 1 160, 0 162, 0 161, 2 163, 2 165, 1 166, 0 168, 0 169, 2 168, 3 166, 3 167, 5 168, 6 167, 8 169, 8 171, 7 171, 6 170, 4 172, 2 171, 1 172, 0 175, 1 175, 3 173, 4 173, 5 174, 7 174, 9 173, 11 172, 9 170, 10 171, 12 172, 14 174, 13 175, 15 173, 16 173, 17 174, 19 174, 21 175, 23 173, 24 172, 25 171, 27 169, 28 168, 30 167, 28 165, 29 166, 31 167, 33 168, 35 170, 34 169, 32 171, 31 171, 30 173, 29 173, 28 175, 27 174, 31 174, 33 172, 33 173, 35 174, 37 175, 39 173, 40 172, 38 171, 36 169, 37 170, 39 170, 41 172, 42 175, 43 173, 44 172, 45 171, 47 170, 45 169, 43 168, 41 167, 39 167, 38 166, 36 165, 35 164, 33 164, 32 163, 30 161, 30 162, 28 161, 26 159, 26 158, 27 159, 28 159, 30 158, 32 156, 31 157, 30 156, 28 155, 26 153, 25 152, 23 151, 21 153, 20 151, 19 151, 17 153, 16 152, 14 151, 12 152, 11 154, 11 154, 13 155, 15 157, 14 157, 12 156, 10 158, 9 159, 11 160, 12 159, 14 161, 14 161, 16 160, 17 161, 18 160, 20 158, 21 157, 19 158, 18 157, 16 156, 17 154, 18 155, 20 154, 22 155, 24 156, 22 157, 24 159, 23 160, 24 161, 22 162, 20 163, 22 164, 24 163, 25 164, 27 165, 26 167, 25 168, 26 170, 25 169, 23 170, 22 172, 22 171, 20 170, 19 171, 18 170, 16 169, 14 169, 12 167, 13 167, 15 168, 16 167, 18 168, 20 167, 21 166, 23 165, 21 164, 19 165, 18 165, 16 163, 16 164, 14 163, 13 164, 12 166, 11 167, 10 165, 9 163, 10 161, 10 160, 8 162, 8 164, 7 165, 6 164, 4 162, 4 161, 6 160, 5 158, 6 157, 7 155, 8 153, 9 151, 9 151, 7 153, 7 154, 6 153, 4 151, 5 150, 3 148, 4 148, 5 149, 7 148, 8 149, 10 148, 11 146, 11 147, 13 148, 15 149, 13 150, 15 149, 17 149, 19 149, 21 147, 22 148, 24 150, 23 151, 25 149, 26 148, 27 147, 29 147, 31 146, 33 147, 35 148, 33 150, 32 149, 30 151, 30 150, 28 152, 27 154, 28 153, 29 154, 31 152, 32 151, 34 153, 34 155, 33 156, 34 157, 36 155, 36 154, 37 155, 38 156, 40 156, 42 155, 44 157, 44 159, 43 159, 42 158, 40 158, 38 160, 38 160, 36 159, 35 160, 34 161, 32 162, 34 163, 36 164, 38 162, 38 162, 40 161, 41 162, 43 164, 42 165, 40 166, 42 167, 44 168, 46 169, 48 170, 50 172, 49 174, 47 174, 49 173, 51 171, 52 170, 54 172, 54 174, 53 175, 55 173, 56 172, 57 175, 59 173, 60 173, 62 170, 61 171, 59 170, 57 168, 59 168, 57 168, 55 167, 53 168, 52 168, 50 166, 51 165, 49 166, 48 166, 46 164, 46 164, 44 162, 45 160, 45 161, 47 162, 48 161, 50 163, 50 164, 52 165, 54 165, 55 165, 57 165, 61 163, 64 161, 66 163, 69 160, 70 159, 72 156, 71 153, 72 152, 68 155, 67 158, 66 158, 63 160, 62 161, 60 161, 56 162, 54 161, 52 159, 52 158, 53 158, 55 158, 57 157, 59 155, 61 154, 64 151, 64 152, 61 153, 58 154, 56 154, 54 156, 51 156, 49 158, 49 159, 48 158, 46 156, 46 155, 47 153, 47 152, 45 153, 44 153, 42 154, 40 152, 40 152, 38 151, 36 149, 35 148, 37 150, 38 149, 39 147, 40 148, 42 150, 41 151, 43 149, 44 150, 46 150, 48 153, 49 153, 51 151, 52 150, 53 150, 56 149, 58 148, 59 148, 61 148, 64 149, 67 149, 70 148, 71 149, 74 146, 73 146, 76 145, 79 148, 79 151, 78 153, 76 156, 75 159, 76 162, 75 164, 73 167, 73 168, 71 169, 70 171, 69 172, 68 171, 67 171, 65 172, 64 173, 66 175, 65 175, 69 174, 71 172, 71 170, 72 169, 74 168, 76 166, 76 165, 78 163, 79 164, 82 163, 84 163, 86 161, 87 160, 89 159, 91 161, 92 161, 95 162, 94 164, 93 163, 91 163, 89 165, 90 165, 88 166, 86 166, 84 168, 84 169, 86 171, 85 172, 84 170, 83 171, 82 170, 80 169, 81 167, 82 166, 80 168, 79 169, 78 171, 77 172, 76 171, 74 173, 73 174, 75 175, 77 173, 78 172, 79 174, 80 173, 81 174, 83 175, 85 173, 86 172, 87 170, 88 168, 88 168, 90 167, 92 168, 94 166, 95 164, 96 163, 97 161, 97 162, 99 161, 101 164, 101 165, 100 166, 98 168, 97 170, 96 170, 94 170, 92 171, 90 173, 89 175, 91 173, 92 173, 94 173, 96 173, 98 172, 100 170, 99 168, 100 169, 102 168, 103 166, 103 166, 105 163, 104 160, 105 158, 102 155, 102 154, 103 153, 105 156, 105 158, 108 154, 108 156, 111 153, 111 153, 113 154, 116 156, 118 156, 120 154, 120 154, 122 154, 123 152, 123 153, 125 155, 126 157, 124 157, 122 158, 120 160, 120 160, 118 158, 117 157, 115 160, 115 160, 113 162, 111 162, 109 164, 108 166, 107 168, 106 170, 105 172, 104 171, 102 173, 102 175, 101 175, 105 173, 106 172, 107 173, 109 173, 112 173, 114 173, 116 174, 118 173, 119 171, 120 168, 121 168, 119 168, 117 170, 118 171, 116 169, 115 170, 113 170, 111 171, 110 170, 108 168, 108 167, 110 167, 112 166, 113 164, 115 164, 118 163, 119 163, 121 161, 122 160, 123 160, 125 159, 127 158, 129 156, 130 155, 131 154, 133 151, 132 151, 130 153, 128 151, 126 149, 128 148, 130 148, 132 149, 134 149, 136 150, 138 151, 140 149, 140 149, 142 148, 143 149, 145 148, 147 150, 147 151, 146 151, 144 152, 142 154, 141 155, 140 155, 138 153, 139 152, 137 152, 135 154, 135 156, 134 158, 134 158, 132 160, 131 162, 130 163, 126 164, 124 167, 123 169, 124 171, 123 172, 122 174, 121 175, 123 173, 124 172, 125 174, 126 173, 127 174, 129 175, 131 173, 132 173, 133 174, 135 172, 135 173, 137 174, 139 175, 141 173, 142 172, 143 173, 145 172, 147 171, 149 171, 152 171, 155 170, 158 166, 156 167, 154 167, 152 165, 151 167, 150 165, 149 167, 148 168, 146 168, 144 170, 144 169, 142 170, 140 172, 140 171, 138 169, 137 170, 135 170, 133 170, 131 172, 130 170, 129 171, 128 170, 126 167, 126 166, 128 165, 130 167, 130 166, 132 164, 133 161, 134 160, 136 158, 137 158, 140 161, 139 163, 138 163, 136 165, 135 167, 134 166, 136 165, 138 168, 139 167, 141 165, 143 166, 144 165, 146 163, 147 163, 145 162, 143 159, 143 160, 145 161, 147 159, 147 159, 149 158, 151 159, 152 161, 151 162, 149 163, 151 164, 153 162, 153 163, 155 164, 156 163, 158 161, 158 161, 156 160, 154 158, 154 158, 156 156, 155 155, 153 156, 152 155, 150 157, 149 156, 147 155, 145 157, 145 157, 144 156, 142 155, 143 153, 144 153, 146 154, 148 153, 149 153, 151 152, 153 151, 151 150, 149 148, 149 147, 151 146, 149 145, 147 146, 145 145, 143 144, 141 146, 141 146, 139 147, 138 147, 136 146, 134 146, 132 145, 130 146, 128 147, 126 148, 124 148, 120 145, 121 143, 122 143, 124 145, 124 144, 126 143, 128 143, 130 143, 132 141, 133 141, 131 141, 129 139, 129 138, 131 139, 133 140, 135 141, 137 142, 135 144, 134 145, 136 143, 137 143, 139 141, 140 141, 141 140, 143 143, 143 143, 145 141, 145 139, 146 138, 144 137, 145 136, 147 136, 149 138, 150 140, 149 141, 148 143, 148 144, 150 144, 151 145, 153 146, 154 148, 153 149, 152 150, 154 149, 156 150, 158 150, 159 148, 160 147, 158 147, 156 145, 156 144, 157 142, 158 143, 160 145, 159 146, 161 144, 162 145, 164 146, 166 145, 167 147, 168 148, 170 148, 172 149, 174 148, 175 146, 176 144, 177 144, 179 142, 180 140, 179 141, 177 140, 175 142, 175 143, 174 145, 174 146, 172 144, 172 145, 170 144, 169 142, 170 141, 172 140, 173 139, 171 140, 169 141, 168 143, 167 142, 165 143, 164 141, 163 141, 161 140, 159 139, 157 141, 156 140, 155 141, 154 143, 154 142, 152 141, 151 139, 152 138, 153 137, 155 136, 153 135, 151 134, 149 133, 147 134, 145 135, 143 137, 142 139, 141 138, 139 139, 138 138, 136 137, 134 136, 132 135, 133 134, 130 136, 129 136, 127 137, 126 140, 127 141, 126 140, 124 138, 123 140, 122 140, 120 142, 120 142, 118 145, 118 148, 117 151, 118 151, 115 147, 114 148, 112 149, 110 150, 108 150, 106 150, 104 148, 103 147, 100 150, 101 150, 99 150, 97 152, 98 155, 99 156, 97 158, 98 158, 96 158, 93 155, 93 153, 95 151, 95 151, 92 151, 89 154, 89 156, 87 158, 85 159, 82 160, 80 156, 79 154, 81 153, 83 152, 86 149, 83 148, 86 146, 87 143, 87 141, 89 139, 91 137, 93 135, 95 132, 96 131, 97 130, 100 131, 103 134, 104 134, 101 136, 99 139, 97 142, 95 143, 93 145, 91 148, 90 148, 93 147, 95 147, 97 144, 98 142, 99 139, 101 137, 104 137, 108 135, 109 134, 111 132, 113 129, 116 129, 113 126, 114 126, 117 125, 119 124, 121 121, 122 118, 122 119, 120 121, 118 122, 116 123, 114 123, 111 126, 111 127, 109 130, 109 132, 107 129, 105 126, 105 127, 102 125, 101 127, 99 128, 97 125, 96 123, 97 122, 99 122, 101 123, 104 124, 107 121, 107 120, 109 119, 112 118, 114 116, 114 116, 116 118, 116 118, 118 116, 118 117, 120 116, 122 114, 123 114, 125 116, 124 118, 124 117, 126 118, 128 119, 126 121, 125 124, 124 124, 127 124, 130 123, 132 121, 128 120, 130 120, 132 119, 133 118, 131 116, 132 117, 134 115, 134 114, 136 113, 134 112, 136 110, 136 111, 134 112, 132 114, 132 113, 130 115, 130 116, 129 116, 128 114, 127 112, 128 111, 126 110, 124 111, 122 111, 119 114, 120 113, 117 112, 114 113, 112 116, 112 117, 110 115, 110 114, 109 115, 107 117, 106 120, 104 119, 101 117, 102 116, 103 113, 104 111, 105 112, 107 111, 109 109, 111 109, 114 109, 117 106, 118 108, 120 107, 122 105, 121 104, 123 106, 124 104, 125 103, 127 105, 128 104, 129 104, 131 106, 132 107, 130 107, 128 108, 126 109, 128 110, 130 109, 132 108, 134 108, 136 107, 137 107, 139 106, 141 107, 142 108, 144 110, 143 111, 141 109, 141 109, 139 111, 139 111, 138 113, 138 115, 138 115, 140 114, 141 116, 142 115, 143 113, 143 114, 145 111, 146 109, 148 109, 152 105, 152 101, 152 101, 148 104, 147 104, 145 105, 144 104, 142 103, 140 101, 140 99, 139 98, 137 99, 136 96, 137 97, 139 98, 141 98, 143 101, 142 101, 144 100, 145 98, 146 97, 148 96, 145 95, 143 94, 141 95, 140 94, 138 93, 136 94, 134 97, 134 97, 132 97, 130 95, 130 95, 128 93, 127 94, 126 94, 124 92, 123 90, 125 90, 127 91, 129 93, 129 93, 131 91, 132 90, 133 90, 135 91, 137 92, 138 91, 140 91, 142 89, 142 87, 143 87, 145 85, 146 85, 143 85, 141 87, 141 87, 139 89, 138 87, 137 88, 136 87, 134 85, 134 84, 135 85, 137 84, 139 82, 140 82, 141 82, 143 83, 144 81, 145 81, 149 84, 150 87, 149 89, 147 90, 145 91, 144 93, 144 94, 146 93, 148 92, 150 90, 154 87, 154 87, 158 86, 161 84, 163 81, 164 81, 167 79, 169 76, 170 73, 169 70, 170 68, 171 65, 172 63, 173 61, 175 61, 178 59, 177 58, 179 56, 180 55, 181 55, 183 55, 185 57, 184 59, 184 58, 182 60, 181 61, 183 62, 181 64, 182 64, 180 66, 179 64, 177 65, 176 68, 176 68, 174 71, 174 73, 172 74, 175 73, 177 71, 178 69, 179 68, 181 66, 182 67, 184 68, 186 69, 188 68, 189 70, 190 69, 191 70, 192 69, 193 69, 195 71, 197 69, 198 67, 197 65, 198 64, 196 66, 195 67, 193 65, 193 66, 191 66, 190 64, 191 64, 189 65, 187 65, 186 64, 184 62, 185 63, 187 61, 188 60, 186 59, 188 58, 186 56, 187 57, 189 58, 191 56, 192 55, 193 53, 193 52, 195 51, 193 49, 194 50, 196 48, 197 48, 199 46, 200 45, 198 45, 196 47, 195 46, 193 45, 191 45, 189 46, 188 47, 186 49, 186 51, 185 52, 187 50, 188 48, 188 47, 190 48, 192 50, 191 50, 190 52, 189 53, 191 55, 190 54, 189 54, 187 53, 185 53, 183 52, 181 51, 179 52, 178 54, 178 56, 176 57, 174 59, 172 60, 170 63, 169 65, 168 68, 167 70, 166 73, 166 76, 166 75, 163 77, 162 77, 159 78, 156 81, 160 82, 157 83, 154 79, 152 76, 151 77, 147 78, 145 79, 143 79, 141 80, 139 80, 137 82, 137 82, 135 81, 133 79, 134 79, 135 77, 136 77, 137 77, 139 77, 141 76, 143 74, 144 73, 147 71, 149 68, 147 66, 149 65, 153 63, 155 61, 157 60, 160 64, 161 66, 159 68, 157 68, 153 71, 153 74, 154 73, 158 71, 159 71, 162 68, 163 64, 164 61, 164 60, 167 56, 168 55, 171 52, 171 53, 174 52, 175 49, 172 47, 171 47, 174 49, 176 47, 177 45, 177 45, 179 47, 180 49, 180 50, 182 50, 183 48, 184 47, 182 46, 184 45, 186 44, 184 45, 182 44, 181 43, 179 41, 180 39, 179 40, 178 42, 177 42, 175 44, 174 44, 172 44, 169 41, 170 40, 172 39, 173 39, 175 38, 177 37, 179 35, 179 33, 179 34, 181 35, 182 37, 181 39, 181 38, 183 37, 184 35, 184 35, 186 35, 187 33, 187 34, 189 36, 189 35, 191 37, 192 36, 194 37, 196 37, 198 36, 199 35, 201 35, 203 36, 205 36, 207 38, 207 37, 209 37, 211 39, 211 40, 209 41, 207 41, 205 39, 205 38, 203 38, 201 40, 200 40, 198 39, 196 39, 194 40, 192 39, 191 40, 190 40, 188 38, 188 37, 186 39, 186 40, 185 40, 183 42, 182 42, 184 43, 186 42, 187 43, 189 42, 190 43, 192 44, 194 42, 194 42, 196 42, 198 43, 200 43, 202 41, 203 43, 204 44, 206 46, 206 46, 204 46, 202 48, 202 49, 204 51, 203 50, 201 51, 199 52, 198 54, 197 55, 195 56, 197 55, 199 55, 201 53, 201 54, 203 53, 205 54, 207 54, 210 54, 212 54, 214 51, 215 51, 213 51, 211 51, 209 52, 208 51, 206 49, 206 48, 208 48, 210 48, 212 48, 214 48, 216 49, 218 51, 217 50, 220 49, 222 49, 225 48, 227 50, 229 51, 227 52, 225 52, 223 53, 221 53, 219 54, 217 56, 216 58, 218 57, 220 56, 221 55, 224 55, 227 53, 229 55, 230 57, 229 58, 227 58, 225 59, 223 60, 221 61, 219 61, 217 62, 216 65, 219 65, 217 66, 216 66, 213 64, 214 63, 212 61, 212 60, 213 58, 215 57, 213 57, 211 56, 209 57, 207 56, 205 57, 203 58, 201 58, 199 60, 198 59, 197 58, 195 58, 193 60, 192 60, 190 62, 190 62, 192 63, 194 61, 194 61, 196 62, 198 63, 200 63, 202 61, 201 60, 203 59, 205 59, 207 58, 209 60, 210 62, 209 62, 207 62, 206 62, 204 64, 204 65, 206 65, 208 65, 209 65, 211 68, 210 68, 208 68, 206 67, 205 66, 203 66, 201 67, 200 69, 200 70, 202 68, 203 70, 204 71, 206 70, 208 72, 208 74, 207 73, 205 75, 204 73, 203 75, 202 74, 200 72, 201 72, 199 73, 197 72, 195 73, 194 72, 192 73, 191 72, 189 71, 187 70, 185 69, 183 71, 183 73, 182 71, 181 73, 180 75, 178 76, 180 76, 182 75, 184 73, 185 75, 186 74, 187 76, 188 75, 189 75, 191 75, 193 76, 194 75, 196 77, 196 79, 195 81, 196 80, 197 78, 198 77, 199 77, 201 78, 202 77, 204 76, 206 76, 209 78, 209 77, 211 78, 213 77, 215 78, 217 76, 218 76, 220 76, 222 74, 223 76, 225 75, 227 77, 228 75, 229 75, 231 74, 233 74, 235 76, 234 78, 234 80, 233 78, 231 80, 230 80, 228 79, 225 79, 223 79, 221 79, 219 80, 217 80, 215 81, 214 80, 211 80, 209 79, 207 80, 206 80, 204 81, 202 80, 200 82, 199 84, 198 83, 196 82, 194 81, 192 80, 193 78, 193 77, 191 78, 190 80, 190 79, 188 81, 187 80, 185 78, 186 77, 184 79, 183 81, 182 81, 180 79, 181 78, 178 77, 175 77, 173 79, 172 82, 171 84, 169 85, 167 88, 168 89, 166 89, 163 91, 162 91, 158 94, 155 97, 153 100, 157 103, 158 106, 157 109, 156 113, 154 114, 152 115, 150 117, 147 119, 145 120, 144 120, 141 118, 142 117, 140 118, 139 117, 137 117, 136 119, 135 121, 135 120, 137 120, 139 122, 138 124, 137 124, 135 126, 136 126, 134 127, 132 128, 130 128, 127 128, 124 129, 121 132, 120 133, 118 134, 116 136, 114 139, 113 140, 110 140, 107 141, 105 142, 103 145, 103 146, 106 145, 108 144, 110 143, 113 142, 115 139, 116 138, 118 137, 120 135, 123 132, 124 132, 127 131, 130 131, 132 132, 134 129, 134 130, 136 129, 137 130, 139 128, 139 127, 141 126, 139 124, 140 124, 142 122, 143 124, 144 127, 145 127, 143 129, 142 131, 141 132, 139 133, 138 133, 136 135, 135 136, 136 135, 138 136, 140 134, 141 133, 143 131, 144 130, 145 130, 148 132, 150 131, 151 132, 153 134, 153 134, 155 132, 155 133, 157 133, 159 131, 159 131, 161 133, 162 131, 163 130, 165 129, 163 127, 164 127, 166 126, 168 126, 170 127, 172 125, 173 123, 174 122, 175 122, 177 122, 179 121, 181 123, 182 124, 180 125, 178 125, 176 128, 175 129, 174 128, 177 128, 179 127, 181 126, 183 124, 184 122, 185 120, 186 119, 187 117, 188 116, 189 114, 190 115, 192 115, 193 116, 195 117, 196 119, 196 118, 194 118, 192 117, 191 119, 190 121, 189 122, 188 124, 187 127, 186 126, 188 125, 190 124, 191 122, 191 120, 192 121, 194 123, 193 124, 195 122, 196 121, 198 123, 198 125, 197 127, 197 129, 198 131, 197 131, 196 131, 194 128, 195 126, 195 126, 193 128, 193 129, 192 128, 190 129, 188 130, 186 129, 184 130, 182 132, 181 131, 179 132, 178 134, 178 133, 176 132, 174 131, 172 129, 171 129, 169 130, 167 131, 169 133, 169 134, 168 133, 166 134, 164 136, 164 135, 161 135, 159 136, 157 137, 158 138, 160 138, 162 139, 164 140, 166 138, 166 137, 167 138, 169 136, 170 137, 172 137, 173 134, 172 135, 174 136, 176 138, 175 139, 177 137, 178 137, 179 135, 180 135, 182 134, 183 135, 185 132, 184 133, 186 132, 188 133, 190 131, 191 133, 192 133, 194 134, 196 134, 198 132, 199 130, 200 129, 201 131, 202 133, 201 134, 203 136, 202 135, 200 136, 198 138, 198 137, 196 136, 194 136, 192 136, 190 135, 188 137, 187 138, 189 139, 191 139, 193 139, 195 141, 194 143, 193 142, 191 141, 189 143, 189 145, 191 145, 189 146, 187 147, 186 149, 186 149, 184 147, 183 145, 184 144, 185 143, 187 142, 185 140, 186 139, 187 138, 184 137, 182 139, 181 140, 183 142, 182 144, 182 146, 181 148, 181 147, 179 148, 178 150, 177 152, 176 152, 174 151, 172 150, 170 152, 170 154, 169 155, 170 155, 172 154, 173 155, 175 155, 177 157, 177 159, 178 160, 176 158, 175 158, 173 160, 173 161, 172 160, 170 161, 168 163, 170 164, 167 163, 164 161, 164 160, 166 158, 166 158, 168 157, 170 156, 168 154, 167 155, 165 153, 165 151, 166 151, 168 149, 167 148, 165 147, 163 149, 162 150, 164 152, 163 151, 161 153, 161 153, 159 152, 157 152, 156 154, 155 155, 157 156, 159 158, 158 159, 160 156, 161 155, 163 157, 164 159, 163 161, 162 163, 161 165, 162 167, 160 171, 162 170, 166 168, 168 173, 172 172, 173 171, 175 173, 176 172, 178 172, 181 172, 184 168, 182 168, 185 166, 187 168, 190 166, 191 165, 193 162, 193 161, 195 163, 196 164, 198 162, 198 161, 199 159, 200 160, 202 160, 204 158, 206 157, 204 157, 202 156, 201 157, 200 158, 198 160, 197 159, 195 157, 196 155, 197 155, 199 152, 198 153, 200 154, 202 153, 203 155, 205 155, 208 154, 210 153, 213 155, 214 157, 213 157, 211 158, 209 161, 209 162, 208 162, 206 164, 205 165, 203 163, 203 162, 201 164, 200 166, 200 167, 199 166, 197 165, 195 167, 194 168, 196 168, 197 169, 199 171, 199 172, 198 171, 197 170, 195 171, 194 169, 193 170, 192 172, 191 171, 189 172, 187 175, 187 174, 189 174, 191 173, 193 175, 193 174, 195 173, 196 174, 198 174, 200 173, 202 173, 204 174, 207 173, 210 174, 213 173, 215 173, 218 174, 221 173, 223 173, 225 173, 227 173, 230 173, 232 174, 235 173, 237 171, 238 170, 235 168, 236 167, 237 165, 238 161, 238 163, 236 162, 234 165, 234 167, 233 170, 233 171, 232 169, 230 171, 229 170, 227 170, 225 167, 226 167, 228 166, 230 165, 231 163, 232 161, 230 159, 231 159, 233 159, 235 159, 237 157, 238 155, 236 153, 237 150, 237 147, 237 149, 235 149, 233 149, 231 150, 229 149, 226 151, 224 149, 223 150, 221 151, 220 153, 222 155, 220 157, 220 159, 218 161, 220 160, 222 159, 224 157, 223 155, 224 154, 226 152, 227 153, 229 152, 231 152, 234 154, 233 156, 234 156, 231 156, 228 157, 226 159, 228 161, 227 163, 228 164, 226 162, 225 163, 223 165, 224 167, 223 168, 221 170, 222 170, 220 171, 218 169, 217 170, 215 170, 213 170, 211 170, 209 171, 207 171, 205 170, 203 171, 201 169, 201 167, 202 167, 203 168, 206 167, 207 165, 208 167, 210 166, 211 167, 214 166, 215 167, 218 166, 219 165, 221 163, 218 161, 216 163, 215 163, 213 163, 211 160, 212 159, 214 157, 216 155, 217 153, 218 152, 215 151, 217 149, 218 147, 220 146, 221 146, 223 146, 225 146, 227 146, 229 144, 230 146, 232 145, 233 145, 235 144, 237 141, 237 141, 235 141, 233 141, 231 141, 229 141, 227 143, 226 141, 225 142, 223 143, 222 141, 220 143, 219 143, 217 144, 215 146, 217 147, 215 149, 214 150, 212 151, 210 151, 208 153, 206 151, 205 149, 206 148, 208 147, 210 146, 212 144, 213 144, 211 144, 209 144, 207 146, 206 147, 204 149, 203 150, 201 150, 200 149, 198 148, 201 146, 202 144, 202 142, 201 143, 199 145, 199 146, 198 147, 196 149, 195 150, 193 152, 194 151, 191 152, 190 154, 189 155, 192 158, 191 161, 190 162, 188 163, 184 164, 182 165, 180 167, 179 169, 178 169, 176 168, 173 165, 173 164, 175 166, 176 163, 177 162, 179 161, 181 159, 182 160, 184 157, 184 157, 186 155, 187 155, 185 154, 183 156, 182 157, 180 156, 179 154, 180 153, 178 151, 179 150, 181 152, 181 151, 183 152, 185 152, 187 150, 188 148, 189 148, 191 147, 193 145, 194 144, 196 142, 196 140, 197 141, 199 139, 200 138, 201 139, 202 138, 204 140, 204 142, 203 144, 204 143, 205 141, 206 141, 208 141, 210 141, 212 141, 214 140, 216 139, 217 137, 217 138, 220 138, 222 138, 224 137, 225 137, 227 138, 230 138, 232 137, 233 137, 235 138, 237 136, 238 134, 236 134, 234 134, 232 135, 230 135, 228 132, 228 132, 230 131, 232 131, 234 129, 235 131, 236 132, 238 129, 238 127, 237 126, 235 125, 238 122, 238 123, 236 123, 234 123, 232 123, 230 123, 228 123, 226 120, 226 120, 228 120, 230 120, 232 119, 233 120, 234 121, 236 119, 236 119, 238 117, 238 116, 237 114, 238 113, 236 112, 234 111, 232 110, 234 110, 236 111, 238 108, 238 107, 236 107, 234 108, 232 107, 231 109, 230 107, 228 109, 226 112, 227 111, 229 113, 230 113, 231 114, 233 115, 235 117, 234 116, 232 116, 230 118, 230 117, 228 114, 228 115, 226 117, 225 118, 223 120, 223 122, 223 124, 222 122, 221 119, 220 120, 218 120, 216 122, 215 123, 213 124, 215 125, 213 125, 211 127, 211 127, 213 127, 215 126, 217 123, 217 123, 219 125, 220 127, 220 129, 219 129, 217 131, 216 132, 218 131, 220 130, 222 128, 222 127, 224 126, 225 126, 227 126, 229 126, 231 126, 233 128, 232 129, 230 129, 228 130, 226 132, 225 134, 224 133, 222 135, 221 135, 219 134, 217 135, 215 136, 214 138, 214 138, 212 138, 210 138, 208 138, 206 136, 206 135, 205 133, 206 132, 204 131, 206 131, 208 132, 210 134, 209 135, 208 136, 211 134, 212 133, 213 133, 215 130, 214 130, 212 129, 210 127, 209 128, 208 129, 206 128, 205 129, 203 127, 203 127, 201 126, 199 124, 200 124, 202 125, 204 126, 206 125, 207 124, 209 122, 210 121, 211 120, 213 118, 214 117, 216 117, 218 116, 220 115, 221 115, 223 112, 224 110, 223 111, 221 108, 220 107, 221 107, 223 105, 223 106, 225 104, 226 104, 228 104, 230 105, 232 104, 234 103, 235 104, 236 105, 238 102, 238 100, 237 100, 235 100, 233 102, 232 101, 230 99, 231 100, 228 98, 227 99, 225 101, 226 102, 224 100, 222 102, 221 103, 220 104, 218 106, 218 108, 217 108, 215 108, 213 109, 212 110, 210 112, 209 113, 208 115, 210 113, 212 112, 213 112, 215 111, 217 111, 219 113, 218 114, 216 115, 214 116, 212 118, 211 117, 209 118, 208 119, 206 120, 208 122, 207 121, 205 122, 204 122, 202 121, 200 119, 199 119, 201 119, 203 117, 204 116, 206 114, 206 113, 204 115, 203 115, 201 116, 200 116, 198 114, 198 114, 196 113, 194 112, 192 112, 190 112, 188 114, 187 114, 185 116, 185 118, 184 120, 183 119, 181 116, 182 113, 182 111, 181 110, 183 111, 186 109, 186 108, 187 109, 189 110, 191 108, 192 107, 190 106, 188 105, 189 103, 189 104, 191 106, 192 105, 193 106, 195 104, 196 103, 197 104, 199 105, 198 106, 200 105, 201 106, 202 107, 204 108, 202 109, 200 108, 199 107, 197 109, 197 109, 196 108, 194 110, 193 111, 195 112, 196 112, 198 111, 199 112, 200 112, 202 110, 202 110, 204 110, 206 109, 207 108, 209 106, 210 105, 211 103, 211 105, 214 104, 215 102, 217 100, 218 98, 220 97, 222 96, 224 94, 226 93, 227 94, 229 97, 229 96, 231 97, 233 97, 235 98, 238 96, 237 94, 238 91, 238 92, 236 94, 235 94, 233 93, 231 91, 232 90, 233 90, 235 89, 237 87, 238 84, 237 85, 235 87, 234 87, 232 86, 230 87, 228 89, 230 91, 229 89, 227 90, 225 91, 224 93, 223 93, 221 95, 220 97, 218 98, 216 98, 213 100, 215 101, 213 100, 211 100, 209 100, 207 102, 206 103, 208 105, 207 105, 205 104, 203 102, 204 100, 203 100, 201 102, 201 102, 200 101, 198 99, 199 98, 197 98, 196 100, 196 101, 195 103, 194 102, 193 102, 191 100, 191 100, 193 98, 194 98, 192 97, 190 96, 192 96, 194 95, 196 94, 197 93, 195 92, 193 94, 193 93, 191 95, 190 93, 189 91, 190 90, 191 90, 193 90, 195 91, 196 92, 198 93, 200 95, 199 96, 198 97, 200 96, 201 94, 202 94, 204 96, 204 98, 203 99, 205 97, 206 95, 207 97, 208 95, 209 97, 210 95, 211 95, 213 95, 215 95, 217 93, 218 91, 219 90, 221 88, 222 87, 225 85, 226 85, 223 86, 221 87, 219 87, 217 89, 216 91, 216 92, 214 90, 213 88, 214 86, 212 85, 210 86, 208 87, 206 86, 204 87, 202 89, 202 89, 204 89, 206 89, 208 88, 210 91, 211 92, 210 92, 208 92, 206 92, 204 91, 202 90, 200 90, 198 88, 197 88, 196 87, 194 88, 193 87, 191 86, 189 86, 187 85, 185 86, 183 88, 182 88, 184 89, 186 88, 187 88, 189 90, 188 92, 187 91, 185 93, 184 91, 183 93, 182 94, 180 96, 179 97, 177 96, 174 97, 171 99, 169 102, 168 105, 166 108, 165 112, 165 114, 163 116, 161 119, 162 119, 159 121, 157 122, 155 123, 153 125, 151 126, 154 126, 156 125, 158 123, 159 122, 161 121, 164 120, 166 119, 168 117, 165 116, 168 114, 169 111, 169 108, 170 106, 171 106, 174 102, 172 100, 174 100, 177 103, 176 104, 179 103, 181 100, 180 99, 182 96, 182 98, 184 97, 185 95, 186 94, 187 96, 188 98, 187 99, 189 101, 189 101, 187 102, 186 101, 184 103, 183 104, 186 106, 185 107, 183 107, 181 107, 178 110, 178 110, 175 112, 173 115, 173 114, 176 114, 179 117, 179 118, 177 119, 176 118, 173 119, 171 122, 171 123, 170 123, 168 124, 166 124, 164 125, 162 127, 161 128, 160 128, 158 130, 157 129, 155 129, 153 128, 151 127, 148 125, 147 122, 147 121, 150 119, 152 118, 155 116, 157 113, 158 110, 160 107, 161 103, 161 101, 163 99, 165 98, 160 95, 159 95, 162 95, 165 94, 167 93, 169 93, 172 90, 171 87, 172 85, 173 82, 174 81, 176 81, 178 84, 178 85, 176 88, 176 90, 174 93, 176 91, 178 90, 180 88, 179 86, 180 84, 181 84, 183 82, 184 83, 186 83, 187 82, 189 84, 190 83, 191 85, 192 84, 193 85, 195 86, 197 87, 199 85, 200 85, 202 83, 202 83, 204 84, 206 83, 207 83, 209 83, 211 84, 213 85, 215 83, 216 84, 218 83, 220 82, 221 82, 223 82, 225 83, 228 83, 230 84, 232 83, 233 82, 235 82, 238 80, 236 78, 237 76, 238 73, 237 71, 238 70, 235 70, 233 71, 232 72, 230 71, 228 72, 226 68, 228 68, 230 66, 230 66, 226 68, 225 69, 224 71, 223 72, 221 73, 219 73, 217 74, 216 72, 214 74, 213 75, 212 74, 210 72, 211 70, 212 69, 213 69, 215 69, 217 69, 219 68, 221 65, 222 63, 221 63, 224 62, 225 61, 227 63, 228 63, 230 63, 232 65, 234 67, 233 68, 236 67, 237 65, 238 63, 237 60, 237 61, 235 61, 233 60, 230 58, 232 57, 233 57, 235 57, 237 55, 238 53, 237 54, 234 53, 232 50, 231 49, 233 51, 234 49, 235 50, 237 48, 238 46, 236 45, 234 46, 232 47, 230 45, 229 43, 230 43, 232 42, 234 43, 236 44, 238 40, 238 40, 236 38, 237 36, 238 34, 237 32, 238 32, 235 32, 233 34, 232 32, 231 32, 229 33, 228 34, 226 36, 225 37, 223 37, 221 39, 221 39, 219 41, 220 43, 220 43, 223 40, 224 39, 226 37, 228 36, 229 36, 231 36, 235 37, 234 39, 233 39, 231 40, 230 41, 228 42, 226 45, 227 45, 225 46, 223 46, 221 46, 219 46, 217 45, 215 45, 213 45, 211 45, 208 43, 209 42, 211 42, 213 42, 215 43, 217 41, 217 39, 217 39, 214 37, 214 35, 213 34, 211 34, 209 34, 208 33, 206 31, 205 32, 203 32, 201 32, 199 34, 199 33, 197 34, 196 34, 194 33, 192 32, 190 30, 190 31, 188 30, 187 31, 185 33, 184 31, 183 32, 182 31, 180 30, 181 28, 182 28, 183 29, 185 27, 186 26, 188 28, 188 27, 190 26, 191 26, 193 27, 195 28, 193 30, 192 31, 194 30, 195 30, 197 28, 197 29, 199 30, 201 30, 203 29, 205 30, 207 31, 209 31, 211 29, 211 29, 213 28, 215 27, 217 28, 219 28, 221 31, 221 31, 219 30, 217 31, 215 33, 214 33, 217 35, 216 36, 218 34, 219 34, 221 33, 223 30, 223 30, 225 30, 227 28, 228 29, 230 29, 232 28, 233 28, 235 30, 236 29, 238 27, 237 25, 238 22, 238 23, 236 25, 235 25, 233 24, 231 26, 230 24, 229 25, 228 26, 226 27, 224 26, 222 25, 220 25, 218 23, 216 25, 215 26, 212 25, 213 22, 213 22, 211 24, 210 26, 209 28, 208 27, 206 25, 205 24, 207 22, 208 19, 209 19, 211 20, 213 20, 215 20, 217 22, 218 22, 220 20, 220 21, 223 23, 222 23, 224 21, 225 21, 227 21, 229 19, 229 18, 231 16, 232 15, 234 17, 234 19, 233 21, 231 22, 233 21, 235 19, 236 19, 238 17, 237 15, 238 13, 236 11, 237 12, 234 13, 232 14, 230 16, 229 15, 227 17, 226 18, 224 18, 222 17, 220 18, 218 17, 216 17, 214 17, 212 16, 210 16, 208 18, 207 20, 206 22, 205 22, 203 22, 202 21, 200 23, 199 24, 201 25, 203 27, 203 27, 201 27, 200 25, 199 26, 197 24, 197 24, 195 24, 194 22, 193 23, 191 21, 191 19, 191 20, 193 21, 195 22, 197 20, 198 19, 200 18, 201 16, 201 17, 203 19, 204 17, 205 15, 206 14, 204 14, 202 13, 200 11, 201 11, 199 13, 198 12, 196 10, 197 8, 198 8, 199 6, 199 4, 200 5, 202 7, 201 9, 202 10, 204 12, 204 12, 206 13, 208 13, 210 14, 212 14, 214 12, 215 14, 216 15, 218 14, 220 13, 221 15, 222 15, 224 13, 224 11, 225 11, 223 10, 221 10, 219 12, 218 10, 217 9, 215 8, 213 9, 212 11, 212 10, 210 10, 208 9, 206 8, 204 6, 204 4, 204 3, 206 4, 208 6, 206 7, 208 7, 210 5, 210 4, 211 5, 213 6, 215 6, 217 7, 218 7, 220 8, 222 8, 224 6, 223 5, 225 5, 227 4, 229 4, 232 7, 232 7, 230 8, 228 10, 227 12, 228 10, 230 10, 232 9, 234 7, 235 8, 237 6, 238 3, 238 4, 236 3, 234 2, 236 0, 238 "
     style="fill:none;stroke:#000000;stroke-width:1.2"
     id="polyline33"
     transform="matrix(1,0,0,-1,1.5639312,239.44853)" />
</svg>
