<svg xmlns="http://www.w3.org/2000/svg" width="181" height="244">
    <polyline points="3,3 6,3 7,5 9,3 11,4 10,6 12,7 13,9 10,9 10,11 11,13 13,11 15,13 13,14 14,16 14,18 16,17 18,17 18,19 16,20 17,21 18,23 17,25 15,26 17,27 17,29 19,31 19,33 21,34 20,36 18,35 17,37 17,39 19,40 19,42 18,44 20,44 22,45 20,46 21,47 20,49 22,50 23,48 24,46 25,48 27,47 27,46 27,44 26,42 25,44 23,43 24,41 22,41 21,40 20,38 22,37 23,35 25,36 25,38 25,39 27,40 28,42 30,41 30,40 30,38 28,38 28,36 27,34 25,33 22,32 22,30 20,29 20,27 20,25 21,23 20,21 21,19 21,17 20,15 18,14 19,12 17,11 16,9 15,7 14,4 16,5 18,3 20,4 22,3 22,5 24,6 25,8 24,10 22,8 20,7 18,7 19,9 21,10 22,12 24,12 24,14 24,16 26,17 24,18 23,21 25,21 26,19 28,21 28,23 30,24 31,26 32,28 32,30 29,29 28,28 28,26 26,25 25,23 23,24 23,26 23,28 25,28 25,30 27,31 29,32 31,33 30,35 32,36 33,34 34,32 34,30 37,30 37,32 37,33 36,35 34,36 35,38 33,38 33,40 35,40 35,42 36,44 37,45 37,47 36,49 35,51 33,51 33,49 34,47 33,46 33,44 32,42 31,44 29,44 30,46 31,48 29,48 29,50 30,51 31,53 29,53 30,55 29,57 31,58 31,59 30,61 29,63 28,62 26,62 27,60 28,59 27,57 25,56 27,55 26,54 26,52 26,50 24,50 24,52 23,54 22,56 22,58 23,59 25,59 24,61 22,62 23,63 24,64 26,64 26,66 28,65 29,67 30,65 32,65 32,67 34,67 35,65 35,64 33,63 32,62 34,61 33,60 35,59 34,58 36,57 34,56 32,56 33,54 34,53 36,54 37,52 38,54 38,55 38,57 38,59 37,60 36,62 38,62 40,62 40,60 42,60 41,58 40,57 40,55 42,55 43,56 45,57 43,58 45,59 44,61 43,63 42,62 41,64 42,66 42,68 43,69 44,71 47,72 49,74 52,73 55,73 56,75 52,77 55,79 56,81 60,79 59,76 59,73 58,70 62,69 60,67 59,65 57,63 55,63 54,62 55,60 56,58 56,56 54,56 53,58 53,59 52,61 50,61 48,62 48,64 50,64 50,67 52,65 55,66 56,67 55,70 52,69 50,70 47,69 47,67 45,66 45,64 46,62 47,60 48,59 47,57 48,55 46,55 45,54 46,52 45,51 46,49 47,47 45,47 45,45 45,43 46,41 46,39 46,37 44,38 44,36 42,36 41,38 41,40 43,41 43,43 42,45 42,47 43,49 42,50 43,51 43,53 41,53 39,52 38,50 40,49 39,47 40,45 40,43 39,42 37,42 38,40 38,38 39,36 39,34 41,34 40,32 40,30 42,30 43,32 44,34 46,32 45,30 45,28 42,27 40,27 38,28 36,27 34,26 33,24 34,22 31,22 31,20 29,19 30,17 29,15 28,13 27,12 29,11 27,10 28,8 28,6 26,5 25,3 28,3 30,4 32,3 33,5 31,6 31,8 32,9 32,11 31,13 33,14 33,16 33,18 34,20 36,18 37,20 37,22 36,24 38,25 39,23 42,22 42,24 44,24 46,24 45,26 48,26 48,28 48,30 48,33 47,35 49,35 49,37 49,39 51,39 52,37 54,38 53,40 54,42 55,43 56,40 57,38 58,40 58,42 57,44 59,44 58,46 58,48 59,49 58,51 57,52 56,50 55,52 53,51 53,50 54,48 56,48 55,46 53,45 51,44 51,42 49,41 48,43 48,45 50,46 52,47 51,49 49,48 48,50 48,52 49,53 50,51 51,53 50,55 49,57 50,59 51,57 52,55 53,53 55,54 57,54 58,56 58,58 58,60 59,61 61,62 62,64 64,63 64,66 66,68 68,69 71,70 73,71 76,72 79,71 82,72 84,74 84,77 87,78 89,80 90,83 90,87 93,87 95,91 96,93 97,95 99,96 100,93 101,95 101,98 101,100 102,102 104,101 104,99 104,97 103,96 104,93 107,94 107,96 108,97 107,99 109,100 110,99 111,97 113,98 112,100 114,100 114,102 114,103 112,102 110,102 108,102 106,101 106,103 105,105 104,103 102,105 101,104 100,102 99,104 97,103 98,101 97,100 98,98 96,97 94,97 93,96 92,94 90,92 87,91 84,92 84,96 86,97 85,98 85,100 85,101 87,102 88,104 90,104 91,105 90,107 88,107 87,106 85,106 85,104 83,104 83,102 82,100 82,98 81,96 80,94 79,90 82,89 86,87 85,84 84,81 81,85 80,82 80,79 78,78 79,75 76,75 73,75 71,74 68,73 66,72 63,71 63,74 64,77 67,77 71,78 74,79 74,82 76,83 77,87 74,88 71,88 71,84 69,82 67,80 63,81 64,84 66,86 68,88 69,92 71,94 74,92 76,94 77,97 79,98 80,100 80,102 80,104 80,105 82,106 82,107 84,108 84,110 86,109 88,110 90,110 92,111 94,112 96,112 96,114 97,115 98,113 98,111 96,110 94,109 93,108 93,106 92,103 90,102 90,100 88,100 88,98 88,95 90,96 90,98 92,99 94,99 94,101 95,103 94,104 96,105 97,107 100,107 100,109 100,111 102,111 101,113 100,115 100,117 101,119 102,121 103,123 103,126 100,125 100,123 99,121 98,119 97,117 95,118 96,120 97,122 97,125 97,128 98,130 101,129 104,129 103,132 103,135 106,135 107,137 108,139 110,140 111,142 113,143 111,145 113,146 114,147 115,150 117,149 118,146 120,147 120,150 122,149 122,152 124,154 125,156 128,155 127,153 125,150 127,149 125,147 123,145 121,143 118,143 116,144 116,141 114,140 112,138 110,137 112,135 110,133 107,132 108,129 109,126 106,126 106,123 105,121 104,119 104,117 103,116 103,114 104,112 105,110 103,109 104,107 106,108 108,106 108,104 110,104 111,105 111,107 112,109 113,111 112,113 111,115 110,113 110,111 109,109 107,110 107,112 108,113 106,114 107,116 109,117 107,118 108,120 110,119 111,121 109,123 112,124 112,127 112,130 114,132 115,134 114,136 116,137 119,138 120,139 122,140 123,137 120,135 118,134 117,132 118,131 120,131 119,129 116,129 115,127 116,124 117,121 114,122 114,119 113,117 114,115 115,113 116,111 118,111 119,112 119,113 117,114 117,116 117,118 119,117 119,119 120,121 119,123 121,123 121,125 119,125 119,127 121,127 122,129 123,132 124,134 127,134 126,137 125,140 125,142 126,144 128,145 131,144 130,142 128,140 130,139 129,136 132,136 135,134 133,132 130,132 129,130 126,130 126,127 125,125 124,123 122,121 121,119 121,117 120,115 121,113 122,115 124,116 124,119 127,117 127,120 128,122 129,124 129,127 132,125 132,128 135,128 137,130 138,132 140,133 140,137 142,140 145,142 147,143 150,144 150,146 151,148 151,151 148,150 146,148 145,146 142,144 139,142 137,140 137,137 134,138 133,141 134,144 135,145 138,146 140,148 142,150 144,152 146,154 149,154 151,155 152,158 155,155 156,158 157,160 159,162 163,161 162,159 161,156 159,154 157,152 154,152 154,149 154,146 156,146 158,148 161,148 162,150 164,149 166,150 167,148 165,147 164,146 164,144 161,143 161,145 159,144 158,142 155,143 153,144 153,142 153,140 150,141 151,138 153,137 153,135 153,133 152,131 151,129 150,127 151,124 154,123 154,126 157,125 160,126 161,124 159,123 159,121 157,121 157,119 157,118 155,118 156,116 154,115 152,113 151,111 151,109 149,109 149,107 148,105 147,107 146,109 146,111 148,111 149,113 150,115 151,117 151,121 148,120 148,123 145,123 145,121 146,119 146,117 148,117 147,115 146,113 144,112 144,110 144,108 145,106 146,104 144,104 143,106 141,105 142,103 141,102 142,100 143,98 144,100 144,101 146,102 147,100 146,98 146,96 144,96 142,95 140,96 141,97 140,99 138,98 137,96 136,94 139,94 139,92 141,91 143,92 144,93 146,93 147,91 147,90 145,89 144,90 142,89 141,88 140,86 139,88 137,88 138,90 137,92 135,91 134,90 135,88 135,86 137,86 136,84 136,82 134,82 134,80 134,78 136,79 138,80 138,82 139,84 140,83 141,81 141,79 142,77 141,75 140,74 139,77 137,77 136,75 137,73 136,72 134,72 132,72 133,74 133,76 132,78 130,77 130,75 129,73 129,71 130,69 132,70 134,69 135,67 132,67 131,66 131,64 131,62 130,60 129,58 127,57 125,56 123,55 122,54 120,53 119,52 120,50 121,49 121,47 122,45 120,45 119,46 117,45 115,45 114,46 116,47 118,48 118,49 117,51 115,51 115,53 117,54 117,56 119,56 121,57 123,58 126,59 127,61 128,63 128,65 128,68 126,67 125,66 125,64 125,62 124,60 122,60 119,59 116,59 114,60 113,58 114,55 112,55 111,54 112,52 113,50 115,49 113,48 111,49 111,47 112,45 112,44 110,44 111,42 112,41 111,39 110,37 109,39 108,40 109,41 107,42 108,43 106,44 107,45 109,46 108,48 109,49 110,51 109,53 108,52 107,50 106,52 104,52 105,50 103,50 102,52 101,54 99,53 98,51 100,51 99,49 101,49 103,48 105,48 106,47 104,46 103,45 104,43 105,41 105,40 103,40 102,42 100,41 99,40 97,39 96,41 98,42 99,43 101,44 101,45 101,47 99,47 97,48 96,50 95,48 96,46 98,45 97,44 95,43 94,45 93,46 93,48 93,50 94,51 96,52 97,54 98,55 100,56 101,57 102,59 103,61 103,64 103,67 105,69 102,72 100,70 99,67 100,64 99,62 97,61 99,59 96,59 94,58 96,57 94,56 95,54 93,53 91,52 91,54 92,55 91,57 91,59 89,58 87,58 88,56 89,54 89,52 87,51 86,50 85,52 84,54 86,54 86,55 85,57 83,56 82,58 82,60 84,59 84,61 84,63 84,65 85,67 88,68 90,69 93,70 93,67 91,65 88,65 87,63 87,60 89,61 91,62 93,61 94,63 96,65 96,69 96,72 97,74 98,76 98,79 98,82 101,81 103,84 106,83 109,84 112,85 113,81 110,80 106,80 104,78 102,76 105,73 108,75 111,76 115,76 117,78 119,80 122,79 122,82 124,84 125,86 126,88 128,90 129,87 129,85 128,83 126,82 125,80 124,77 123,75 122,73 120,76 119,73 117,72 114,72 111,71 109,70 109,67 106,65 107,62 106,60 106,58 104,57 105,55 104,54 107,55 109,56 110,58 110,60 110,63 113,63 113,66 115,68 118,68 117,65 117,62 120,62 121,64 122,65 121,68 122,70 125,70 126,71 126,73 127,75 127,77 128,79 130,80 131,81 131,83 133,84 132,86 132,88 131,90 133,93 130,93 128,94 125,94 124,91 122,89 121,86 119,84 116,83 116,87 117,89 118,91 120,94 122,96 123,97 125,98 127,97 127,99 127,101 129,102 130,100 132,99 130,98 130,96 133,96 134,97 136,98 137,100 139,101 138,103 139,105 138,106 136,105 136,103 135,102 134,100 133,102 131,102 132,104 133,105 132,107 135,107 134,109 134,111 135,114 135,117 138,118 141,118 140,115 139,114 139,112 137,111 138,108 139,109 140,107 142,108 141,110 142,112 143,114 144,115 143,117 143,119 143,121 140,121 141,123 142,125 145,126 146,128 147,131 148,133 149,135 148,138 145,138 144,136 143,134 143,131 142,128 139,127 137,125 136,123 135,121 132,120 131,117 131,114 131,111 130,109 129,107 129,105 127,104 127,106 126,109 127,111 127,114 124,113 123,111 121,110 123,109 122,108 122,106 124,106 123,104 125,103 123,102 123,100 121,99 120,101 121,102 120,104 120,105 120,107 118,107 119,109 117,109 115,109 116,107 114,107 113,105 115,105 117,105 116,103 118,103 118,101 117,100 119,99 118,98 116,98 117,96 114,95 112,93 112,89 108,89 104,89 100,88 97,86 94,83 94,79 92,78 92,75 91,73 88,74 87,72 85,70 82,69 80,68 80,66 81,63 79,61 78,63 76,61 74,60 76,59 74,58 72,58 71,60 72,62 74,63 76,64 77,66 76,69 74,67 71,67 71,65 68,65 67,64 69,62 67,61 65,60 64,58 63,60 61,59 62,57 60,57 61,55 59,54 60,52 61,50 61,48 61,46 62,44 63,43 61,42 61,40 60,38 59,36 60,34 59,32 57,31 57,29 57,27 57,24 56,22 56,20 55,18 55,16 54,14 53,12 51,14 52,16 52,19 53,21 52,23 54,24 54,26 54,28 54,30 54,32 55,33 57,34 56,36 54,35 52,35 51,33 51,31 51,29 51,27 51,25 49,24 49,22 49,20 49,18 48,16 48,14 45,15 44,13 43,11 42,10 42,8 40,7 39,6 39,10 39,12 40,13 42,15 43,17 46,18 46,21 44,21 42,20 40,20 40,18 39,16 37,15 36,13 35,12 35,10 37,9 35,8 35,6 35,3 37,4 39,3 41,4 43,5 43,3 47,3 46,5 45,7 46,9 46,11 48,12 50,11 49,9 48,7 49,5 51,3 53,4 52,6 54,7 52,8 53,10 56,9 57,7 56,4 58,3 60,4 60,6 60,8 61,9 63,11 66,11 66,13 64,14 65,16 66,17 66,20 68,19 68,22 68,24 69,25 69,28 68,30 68,32 68,33 68,35 67,37 66,39 65,37 65,35 65,34 65,32 63,31 64,29 63,28 66,29 67,27 65,25 64,24 64,22 63,20 62,18 61,16 61,14 60,12 58,11 56,12 58,14 58,17 59,20 60,21 61,23 59,25 61,26 60,28 60,30 61,32 62,34 62,36 63,38 64,40 66,41 65,43 64,45 64,47 66,47 68,48 67,50 65,51 65,49 63,49 63,51 64,53 62,53 63,55 65,56 66,54 67,52 68,54 68,55 67,57 67,59 69,59 70,57 71,55 73,56 74,54 72,53 71,52 69,51 69,50 70,48 69,46 67,45 68,43 70,44 72,46 72,48 73,49 72,50 73,51 75,52 76,50 75,49 76,47 75,46 74,44 72,43 72,41 70,41 69,40 69,38 71,38 70,36 71,35 71,33 71,31 73,33 74,35 73,37 73,39 75,40 76,38 76,36 78,37 78,39 77,41 75,42 76,44 78,45 80,45 79,47 78,48 78,50 78,52 79,53 78,55 77,54 76,56 78,57 79,59 80,57 81,55 82,53 83,51 81,51 80,50 81,48 82,46 83,48 84,49 85,47 87,48 88,49 90,50 91,48 90,47 88,46 86,45 84,45 83,44 81,43 80,42 80,40 81,39 80,37 79,35 77,34 75,33 75,30 73,29 72,28 72,26 72,24 72,22 71,20 72,17 71,16 69,15 71,13 71,11 69,11 70,8 68,7 66,9 64,8 64,6 63,4 66,4 68,3 70,4 71,5 73,6 73,8 74,9 75,11 74,13 75,15 74,18 75,20 76,22 76,24 77,25 75,27 77,28 78,29 77,31 79,32 81,32 80,30 81,28 80,26 81,24 79,23 79,21 79,19 77,18 79,16 78,14 80,13 78,12 78,10 77,8 79,7 77,6 76,4 74,3 79,3 81,4 83,5 85,6 85,3 87,4 88,6 90,7 90,9 89,11 90,13 92,14 93,16 94,17 96,18 96,20 98,21 96,23 94,22 93,20 91,19 90,16 88,15 88,18 89,20 90,22 90,24 92,25 94,25 95,27 93,28 91,27 89,29 88,31 89,33 90,35 89,37 90,39 88,39 86,39 86,37 87,35 86,34 86,32 86,30 87,28 88,26 86,25 87,23 86,21 85,20 85,18 85,16 86,13 86,11 87,9 86,8 83,8 81,7 81,10 83,11 83,13 82,16 82,18 82,20 82,22 83,24 83,26 84,27 83,30 83,32 82,34 83,35 83,37 84,39 83,41 85,42 87,43 88,41 90,42 89,44 91,45 91,44 93,43 93,41 94,39 92,39 92,37 92,35 92,33 91,31 94,30 95,31 95,33 95,35 95,37 97,37 99,37 101,38 103,38 102,36 100,35 100,33 98,34 98,32 98,30 100,31 101,28 98,28 98,26 98,24 100,23 101,21 100,19 99,17 97,15 96,14 97,12 94,12 92,11 93,8 94,9 96,10 97,8 97,6 95,5 93,6 90,3 92,4 94,3 97,3 99,4 101,3 103,4 105,3 108,3 107,5 106,6 107,7 105,9 104,11 103,13 102,10 103,8 103,6 100,6 100,8 99,10 100,12 101,14 102,16 104,15 105,17 103,19 105,20 106,21 107,23 109,23 111,24 114,24 115,26 115,28 116,29 118,27 117,25 116,23 114,22 114,20 111,21 110,20 110,18 108,18 109,16 107,15 107,13 107,11 108,9 110,10 111,9 110,7 110,5 111,3 114,3 113,5 113,7 114,9 115,7 117,8 116,10 116,11 117,13 115,14 114,12 112,11 110,13 112,15 113,18 115,17 118,18 118,20 119,21 120,23 120,25 121,27 123,28 124,30 125,31 127,32 128,34 129,35 128,37 127,39 125,39 125,37 124,36 125,34 123,33 122,35 121,33 120,32 121,30 119,29 118,31 116,33 115,32 113,31 112,29 111,28 111,26 108,27 107,26 105,24 103,23 101,25 103,26 104,28 103,30 103,32 103,34 105,35 105,37 107,38 108,36 108,34 106,33 106,30 108,30 109,31 111,32 112,34 113,35 113,37 113,39 115,39 115,41 114,42 115,43 117,43 119,43 119,41 118,40 118,38 116,37 117,35 119,35 120,37 122,38 122,40 122,42 124,41 124,43 125,45 124,47 123,49 122,51 124,52 125,53 127,54 130,55 129,53 128,51 127,50 125,50 126,48 127,46 128,44 126,43 127,41 129,42 130,40 130,38 131,36 132,35 134,35 134,33 135,31 137,32 138,33 139,35 138,36 136,35 135,37 134,39 132,38 132,40 133,41 135,42 136,40 137,38 139,39 138,41 137,43 137,45 136,47 134,47 134,45 134,44 132,43 130,44 131,46 129,46 129,48 131,48 132,49 131,51 132,53 133,55 132,57 133,59 135,60 134,62 135,63 136,65 137,63 138,61 140,62 140,63 139,65 138,67 137,69 140,68 140,69 139,71 141,72 142,70 143,68 144,69 145,71 143,72 144,73 143,75 145,76 146,77 144,78 144,80 146,81 148,82 149,80 147,79 148,77 149,75 148,74 146,74 147,72 148,71 147,69 149,69 148,67 146,67 145,66 144,64 143,66 141,66 142,64 143,62 142,60 143,58 141,57 140,59 138,59 137,58 135,57 138,56 136,55 135,53 136,51 134,50 136,49 139,49 139,47 140,45 139,43 141,43 142,41 141,40 142,39 143,37 141,37 141,35 141,33 141,31 139,30 141,29 141,27 139,27 138,26 137,29 136,28 136,26 137,24 138,22 138,20 136,19 137,17 135,16 133,15 132,13 132,11 131,9 129,8 129,10 129,12 129,14 129,16 130,17 131,19 133,19 134,21 135,23 134,25 133,27 133,29 132,31 131,33 130,32 130,30 128,30 128,28 130,28 130,26 129,24 132,24 132,22 130,21 128,21 126,22 126,24 127,26 126,28 125,26 123,25 123,23 122,21 125,20 127,19 125,18 123,18 121,18 120,16 118,15 120,13 121,11 119,11 119,9 120,7 118,6 116,5 117,3 119,4 120,3 122,3 122,5 124,5 123,7 122,8 123,9 123,11 123,13 123,15 126,15 126,13 126,11 126,9 126,7 126,5 125,3 128,3 129,6 130,4 132,3 135,3 134,5 132,6 134,7 134,9 135,11 135,13 138,13 138,11 137,9 137,7 137,5 139,3 141,4 140,6 140,8 141,9 141,11 140,14 140,16 141,17 141,19 141,21 140,24 142,24 143,25 144,27 144,29 144,31 144,33 144,35 146,36 147,37 145,38 147,39 149,39 151,40 152,43 153,41 153,40 152,38 150,37 149,35 147,34 147,32 147,30 147,28 149,29 150,31 151,33 152,35 154,33 154,31 153,29 152,27 150,26 149,24 147,26 146,24 146,22 144,21 146,19 145,18 144,16 146,15 144,14 144,12 144,10 144,8 144,6 144,4 147,4 150,4 148,6 148,8 149,9 147,11 149,12 149,14 149,16 149,18 149,20 150,21 152,23 154,24 156,23 158,24 160,25 158,27 155,26 156,28 157,31 158,33 158,36 156,35 154,36 156,38 157,39 156,41 155,43 158,44 158,42 160,41 159,40 160,39 160,37 161,35 163,37 163,39 162,41 164,42 165,43 163,44 161,43 160,45 162,46 164,46 165,48 166,45 167,43 167,41 165,40 166,38 168,38 167,36 165,35 165,33 164,32 161,32 160,30 160,28 162,27 163,29 166,30 166,28 166,26 164,25 162,23 160,21 158,21 156,19 154,21 153,20 152,18 154,17 152,15 153,12 152,10 152,8 152,6 153,4 156,4 158,5 160,3 164,3 162,4 162,6 162,8 162,10 164,11 166,9 168,10 169,11 170,13 170,15 173,16 173,14 174,12 172,11 174,9 173,8 170,8 168,7 165,7 166,5 168,3 170,4 171,5 173,6 174,3 176,4 177,6 176,9 176,11 176,14 176,16 176,18 177,20 176,23 176,26 177,28 176,31 177,34 176,37 176,39 177,41 177,43 176,45 177,46 178,48 176,48 177,50 177,52 178,54 175,54 174,52 175,50 173,49 172,48 174,47 173,46 174,44 175,43 174,42 172,42 172,40 174,40 173,38 174,36 174,34 173,32 173,30 173,28 173,26 172,24 174,23 173,21 173,19 171,20 170,18 168,17 166,18 165,16 167,15 166,13 164,14 162,13 160,15 159,13 159,10 159,7 157,8 155,7 155,10 156,12 155,14 157,15 158,17 160,18 162,17 163,19 164,21 166,23 168,20 169,22 170,23 169,26 170,27 169,30 170,31 168,33 170,34 171,35 170,38 170,39 169,41 170,42 169,44 171,44 171,45 170,47 168,46 168,48 169,50 171,51 169,54 171,56 171,59 175,57 175,60 175,63 176,65 176,69 175,68 174,66 172,65 172,63 170,62 168,61 167,59 166,57 165,53 164,51 161,50 158,49 157,52 155,51 154,50 155,47 153,48 152,46 150,45 149,43 148,42 146,42 145,40 144,42 143,44 145,45 147,45 148,47 150,48 151,50 151,52 153,53 155,54 155,56 154,58 152,57 152,55 150,55 149,54 148,52 148,50 146,52 144,52 145,50 146,48 144,47 142,46 142,48 142,50 141,52 139,51 138,53 140,54 142,54 143,55 145,56 146,54 147,56 148,57 147,59 145,59 145,61 147,62 147,64 149,65 151,66 152,67 151,69 151,71 150,73 152,74 151,76 150,78 152,79 154,80 156,80 156,82 155,84 155,85 157,86 158,88 159,89 158,91 157,93 156,92 156,90 154,90 155,88 153,87 152,85 153,83 153,82 151,81 150,83 150,85 148,85 147,84 145,83 143,82 142,84 144,85 143,86 144,87 146,87 148,88 149,87 151,88 152,89 150,90 149,92 148,94 149,96 148,98 149,100 149,102 150,103 150,105 152,105 152,107 154,109 154,111 156,113 158,115 160,117 160,119 161,121 163,121 163,123 163,126 163,128 165,130 165,132 167,133 169,134 171,133 170,131 170,129 169,128 167,126 167,123 166,122 166,120 164,119 163,118 163,116 162,114 161,112 159,111 158,110 157,108 159,107 157,106 155,106 155,104 153,103 152,101 152,99 151,98 152,96 151,94 151,92 153,92 153,94 154,95 156,95 156,97 154,97 155,99 154,101 156,102 158,103 158,101 157,100 159,99 158,98 160,97 160,96 158,96 159,94 160,92 162,92 161,90 162,89 164,90 165,92 166,90 165,88 163,87 164,85 164,83 166,83 167,85 166,86 167,88 168,90 170,89 170,87 169,85 170,81 168,79 166,80 164,79 162,78 162,81 161,83 161,85 161,87 159,86 158,84 159,82 159,80 158,78 160,77 158,76 156,76 155,78 153,77 154,75 154,73 153,71 155,71 154,69 155,67 155,65 153,64 151,63 150,62 149,60 150,58 151,60 153,60 154,62 155,60 157,61 156,63 158,64 158,66 157,68 158,69 158,71 157,72 157,74 159,73 160,71 161,73 161,75 163,75 164,77 166,77 167,74 166,71 164,73 163,71 164,69 163,68 161,68 161,66 163,65 162,63 160,64 159,62 160,61 159,59 157,58 158,56 158,54 160,55 160,57 163,57 162,59 164,60 165,62 166,64 167,66 169,65 168,68 171,68 171,73 173,75 174,79 173,83 174,86 174,89 174,92 175,94 176,96 175,98 176,99 178,100 177,102 176,104 175,106 177,106 176,108 176,109 178,110 177,112 176,114 177,115 175,116 176,117 178,118 177,120 175,119 174,118 172,117 173,115 174,113 173,112 175,111 173,110 173,108 173,106 172,104 174,103 175,101 173,101 171,102 170,100 172,99 173,97 171,97 171,95 170,93 170,91 168,92 168,95 169,97 168,98 165,98 166,96 166,94 164,94 162,94 163,96 162,98 161,101 164,102 166,103 168,103 169,105 168,106 170,107 169,109 167,108 166,105 164,107 163,105 161,104 161,107 161,109 163,110 165,111 168,111 170,111 169,113 170,115 166,115 167,117 170,118 171,120 171,122 171,124 172,126 174,125 173,123 174,121 176,122 177,123 176,125 176,127 176,129 173,128 173,130 174,131 176,132 173,133 175,134 176,135 178,136 178,140 176,139 174,139 175,137 173,136 171,135 169,136 169,138 171,138 172,139 171,141 173,142 175,141 176,143 176,145 176,147 176,149 178,150 176,152 174,151 173,149 173,147 173,145 171,144 169,143 168,141 167,140 166,137 163,136 161,133 159,130 156,128 156,130 157,133 159,136 156,136 157,138 158,139 161,139 164,140 165,142 166,144 167,145 169,146 171,147 170,149 171,151 171,153 173,153 172,155 171,157 169,157 169,155 168,153 168,151 166,152 163,152 164,154 166,155 166,157 167,159 166,162 168,163 169,165 171,165 172,167 174,167 175,165 174,164 172,163 171,162 169,161 170,159 172,160 173,161 174,159 173,158 175,157 174,156 175,154 176,155 178,156 177,158 176,160 177,161 175,162 176,163 178,164 177,166 176,168 177,170 178,172 178,176 176,175 175,177 174,176 174,174 175,173 174,172 175,170 173,169 172,171 171,170 170,168 167,168 165,166 162,165 159,166 156,165 154,163 151,162 148,162 149,165 149,168 152,167 151,170 152,171 152,174 151,177 151,180 151,182 152,183 153,185 157,187 157,185 156,183 155,180 154,177 157,177 158,180 160,182 161,184 161,186 161,188 162,189 159,190 159,192 161,192 162,193 161,195 160,197 159,199 159,201 157,201 158,203 157,204 158,205 160,205 159,207 158,208 157,210 159,210 160,211 161,209 162,211 162,213 161,214 162,215 164,215 165,213 164,211 164,209 165,207 163,207 162,206 163,205 163,203 161,203 161,201 162,199 162,198 163,196 165,196 164,194 165,193 164,191 164,189 165,187 164,185 164,181 163,179 161,178 161,175 158,174 155,173 156,169 159,170 162,169 163,171 166,172 164,175 166,177 168,180 168,184 168,186 168,187 167,189 166,191 168,192 169,193 169,195 167,195 167,197 167,199 165,198 164,200 165,201 165,203 166,205 167,203 168,201 169,199 170,197 172,198 173,196 171,195 172,193 173,191 171,191 169,190 171,189 170,188 171,186 171,184 171,182 173,180 176,179 176,181 178,182 174,182 173,184 175,184 176,185 178,186 177,188 175,187 173,187 174,189 176,190 177,192 177,194 175,192 174,194 175,196 176,197 178,198 175,199 176,201 178,202 177,204 175,203 174,205 173,207 175,208 176,206 177,208 177,210 178,214 176,213 176,212 174,211 174,210 172,209 170,208 171,206 172,204 173,202 173,200 171,200 170,202 170,203 169,205 168,206 167,208 167,209 166,211 168,212 169,210 171,211 170,213 172,213 171,215 170,216 168,215 167,214 166,216 167,217 169,218 170,220 171,221 170,223 171,225 170,226 172,227 173,225 174,223 173,222 174,221 175,219 173,219 172,218 173,216 174,214 175,216 176,217 178,218 177,220 177,222 176,224 176,225 178,226 177,228 175,227 174,229 176,230 177,232 177,234 176,236 176,237 178,238 178,240 175,241 174,240 175,239 173,237 174,235 174,234 175,232 173,231 172,229 170,228 169,230 170,231 168,232 170,233 172,233 171,235 170,236 169,238 171,238 172,239 171,241 169,241 168,240 166,239 165,241 163,241 164,239 165,237 167,237 168,235 167,234 165,233 164,231 166,231 167,229 166,228 167,227 166,225 168,225 168,223 167,222 168,220 166,219 164,219 163,217 162,218 160,217 159,219 158,217 158,215 159,213 157,213 156,212 155,214 154,216 156,216 155,218 157,219 158,221 156,221 157,223 159,224 160,225 161,223 160,222 161,220 163,221 165,221 164,223 163,224 164,225 164,227 162,227 163,229 162,230 160,229 160,227 158,226 157,228 157,230 159,231 158,233 157,235 156,234 154,234 154,232 156,232 155,230 154,229 155,227 156,225 154,224 154,222 154,220 153,218 152,220 150,219 151,217 149,217 148,216 149,214 150,212 151,214 152,215 153,213 152,211 153,209 154,211 155,209 156,207 154,207 154,205 152,206 151,204 150,206 151,208 150,210 149,208 147,207 146,208 144,207 143,206 141,205 139,205 137,205 136,204 134,203 133,202 134,200 136,199 136,201 138,202 139,200 140,202 142,202 142,203 144,204 146,205 146,204 148,205 149,203 150,201 148,200 147,202 145,202 145,200 143,199 141,199 139,198 139,196 136,197 135,196 133,195 132,194 131,192 133,191 132,189 132,186 130,185 132,183 135,184 135,187 136,189 136,191 136,193 138,194 140,193 139,191 142,191 142,189 141,188 139,187 138,185 141,185 141,182 143,183 145,184 144,186 145,188 147,189 148,191 147,193 147,195 145,191 144,193 142,194 142,196 144,196 145,197 147,198 149,197 150,195 150,193 151,191 153,193 153,195 152,197 151,199 153,200 152,202 153,203 155,203 155,201 156,199 154,198 155,196 156,197 158,197 159,195 158,194 156,194 156,192 156,190 154,189 153,188 150,188 150,186 147,186 148,183 145,181 148,180 148,178 148,175 147,174 147,171 146,168 145,166 144,163 143,161 148,159 146,158 143,157 141,155 139,153 137,151 135,150 133,148 130,147 130,150 131,152 132,154 133,156 135,155 137,157 139,159 139,162 140,164 142,166 142,169 143,171 144,173 144,176 145,178 142,179 141,176 140,174 139,172 138,170 138,167 135,167 136,164 136,161 134,159 133,163 131,161 130,158 127,158 128,161 125,161 126,163 128,164 130,165 132,166 133,168 132,171 135,170 136,172 137,175 134,175 134,177 137,178 139,179 138,182 136,181 134,180 132,178 131,176 131,174 129,173 129,171 129,169 128,167 126,168 125,166 122,163 122,165 120,167 122,168 123,170 126,171 124,173 126,174 126,176 128,177 129,179 130,181 128,183 126,181 125,179 123,177 121,179 118,179 119,181 121,182 123,181 124,183 126,185 126,188 128,187 129,189 128,192 126,191 123,191 123,188 123,186 121,185 118,186 118,184 116,183 116,181 115,179 114,177 117,176 119,176 121,176 121,173 120,171 118,169 117,171 118,173 116,174 114,173 114,171 112,170 112,168 113,166 111,165 110,162 110,159 112,160 113,162 114,163 115,165 115,168 117,167 118,165 119,163 118,162 116,161 115,159 117,157 118,159 120,160 123,159 121,157 119,155 118,153 115,153 115,155 114,157 112,157 111,156 112,154 113,152 112,150 110,149 109,148 109,146 108,144 108,142 106,141 105,139 103,138 103,140 102,142 103,143 105,143 106,146 104,145 101,145 100,146 102,147 104,148 106,149 105,151 103,151 102,150 100,149 99,148 96,148 97,146 95,145 93,145 92,146 94,147 93,149 95,150 96,151 98,151 100,152 100,154 102,154 103,155 101,157 103,158 105,159 105,157 106,155 105,153 107,153 108,151 110,152 109,154 108,156 108,158 108,160 107,162 108,164 108,166 109,167 109,169 108,171 109,173 111,173 112,175 110,176 111,178 111,180 113,181 111,183 113,184 113,186 115,187 116,189 119,188 119,190 120,191 120,194 117,193 114,193 114,191 112,189 110,188 109,186 108,184 108,182 106,181 108,179 106,178 107,175 105,176 103,175 103,173 101,172 100,174 100,175 98,173 98,172 99,170 101,170 102,169 104,169 104,171 105,173 106,171 106,169 105,167 104,166 105,164 104,162 102,161 101,164 101,166 100,168 98,167 97,169 96,171 95,169 95,167 94,166 92,164 90,162 88,161 88,159 87,157 86,156 84,156 84,158 84,160 85,161 84,163 86,164 88,165 90,167 89,169 91,170 92,169 93,171 92,173 94,173 95,175 97,176 98,177 100,178 101,177 102,179 103,181 103,183 104,185 106,187 104,188 105,190 101,191 100,190 98,189 101,187 100,186 98,185 96,183 100,183 99,181 97,180 95,179 93,178 92,176 90,174 90,172 88,171 87,170 86,168 84,167 81,167 82,169 84,170 85,172 83,172 81,172 82,174 81,176 81,178 82,181 79,181 79,183 81,184 81,185 80,187 78,188 78,186 76,185 76,183 77,180 76,178 78,177 79,175 79,174 79,172 80,170 78,169 77,171 75,172 76,174 76,176 74,176 74,174 73,172 74,170 73,168 75,167 75,165 76,163 74,162 72,161 71,163 73,164 72,166 70,165 68,165 67,164 67,162 68,161 70,161 70,159 69,158 69,156 69,154 68,151 68,148 69,144 73,145 72,149 72,153 72,156 73,157 73,159 75,160 76,158 77,160 78,161 79,163 78,164 78,166 81,165 81,163 81,161 81,159 81,157 79,158 78,156 76,156 77,154 75,154 75,151 79,151 80,153 80,155 82,155 83,153 85,154 86,153 85,151 84,150 88,151 88,153 90,153 90,155 90,157 91,159 93,157 95,159 93,161 95,163 98,164 99,161 98,160 98,157 97,156 97,154 95,154 93,154 93,152 91,151 90,149 89,146 87,144 86,141 85,140 84,138 86,137 85,136 83,136 84,134 82,133 81,135 80,134 79,132 81,131 80,130 81,128 80,126 82,125 83,127 84,129 84,131 87,130 88,132 89,134 90,136 88,138 89,139 88,141 90,142 91,143 93,143 93,141 91,140 92,138 94,137 95,139 95,141 97,141 96,143 98,144 99,143 100,141 100,140 98,139 100,137 98,136 99,133 96,134 93,134 94,131 91,131 93,128 90,127 87,127 85,125 88,124 88,122 85,122 86,120 88,119 90,120 91,122 92,124 94,125 94,122 93,120 92,118 93,116 93,114 91,113 89,113 90,115 90,117 89,116 87,115 86,113 84,112 83,114 84,116 86,117 84,119 82,118 82,116 80,115 81,113 81,111 81,109 80,108 78,107 77,109 79,110 78,112 77,114 75,113 75,115 73,115 72,114 73,112 74,111 76,111 75,109 74,108 71,108 70,106 69,104 70,101 73,102 74,103 74,105 76,106 77,104 77,102 77,100 74,99 73,97 70,98 67,97 65,95 63,94 64,90 61,88 59,86 59,83 55,85 52,85 51,81 49,80 48,77 45,78 44,75 42,76 41,73 39,74 39,71 38,70 39,68 39,66 38,64 37,66 36,68 35,70 35,72 36,74 33,75 32,73 32,71 33,69 31,69 29,69 29,71 27,70 27,68 25,68 24,66 23,68 22,70 22,71 21,73 19,72 20,70 18,69 16,69 17,71 16,72 14,71 14,69 12,69 13,67 14,65 16,65 15,67 17,67 19,67 21,68 22,66 21,65 19,65 19,64 20,62 21,60 20,58 19,56 18,58 18,60 18,61 17,63 15,63 14,62 13,60 15,60 14,58 16,57 16,55 14,55 12,54 11,52 9,51 8,53 10,54 11,56 12,57 11,59 9,60 11,62 9,62 9,64 11,64 12,65 10,66 10,68 10,70 8,70 10,72 11,73 12,75 13,73 15,74 14,76 15,78 15,80 17,80 18,78 19,77 17,76 17,74 19,74 20,75 22,76 23,77 21,78 22,79 20,80 21,81 20,83 18,83 17,82 16,84 17,86 19,85 19,87 19,89 17,89 15,88 14,86 12,86 12,84 14,83 14,82 12,81 12,80 13,78 11,77 10,79 9,81 10,83 9,85 9,87 9,89 11,90 12,88 13,90 14,91 16,91 17,93 16,95 16,97 15,99 14,101 16,102 17,100 18,98 20,99 21,97 19,96 19,94 20,93 19,91 21,91 22,89 24,89 23,87 21,87 22,85 24,85 23,83 23,82 24,80 26,81 26,83 27,85 26,86 27,87 26,89 28,90 29,92 30,94 32,96 34,98 38,98 37,94 35,92 33,90 33,87 30,87 32,84 31,81 29,83 28,81 28,79 27,78 25,78 26,76 25,75 23,74 24,72 25,70 26,72 27,73 29,73 28,75 30,75 30,77 32,78 35,78 37,77 39,79 42,80 44,82 45,84 48,85 49,88 52,90 55,89 57,91 60,92 58,96 61,98 63,100 66,101 66,104 63,103 63,106 64,108 67,108 68,111 71,111 70,113 68,114 69,115 70,116 72,117 70,118 71,119 71,121 73,122 73,124 75,125 76,123 75,122 76,120 74,120 73,119 74,117 76,118 77,116 78,117 79,119 79,121 82,121 81,123 80,124 78,123 77,125 77,127 78,128 78,129 77,131 74,130 74,127 71,128 69,125 68,121 67,120 68,118 67,117 66,116 66,114 65,112 62,111 61,113 59,114 58,116 58,118 59,120 61,121 61,120 62,118 60,118 60,116 62,116 63,114 64,116 64,118 65,119 64,120 63,122 64,125 61,125 61,127 59,127 59,125 60,123 58,122 57,120 56,118 55,120 55,122 55,124 57,124 56,126 57,127 57,129 59,130 60,129 63,130 66,129 68,132 70,133 73,134 74,135 76,137 80,139 81,141 82,143 83,147 79,147 77,146 77,143 77,140 74,140 71,139 67,141 66,138 63,135 60,135 60,132 58,132 58,134 58,136 58,138 59,139 57,140 57,142 58,143 62,141 63,145 64,148 65,152 65,155 66,157 66,159 65,161 64,163 62,161 63,159 62,158 61,155 61,152 59,149 59,146 56,145 54,144 54,142 54,139 55,136 54,134 54,131 53,129 51,128 53,127 52,126 52,123 52,121 53,119 52,117 54,117 56,116 57,114 58,112 58,110 60,109 58,107 60,105 59,103 58,100 55,99 52,99 54,95 50,95 48,93 45,91 44,88 41,86 39,83 35,81 36,83 37,86 38,89 41,90 41,94 43,96 46,98 48,100 49,102 50,104 52,103 55,103 55,105 55,107 56,109 55,111 55,113 54,115 52,115 52,113 52,111 53,109 52,107 50,106 49,108 50,109 49,111 49,113 48,115 50,115 49,117 50,119 50,121 48,121 48,123 50,124 49,126 48,128 49,130 50,132 51,134 51,137 47,135 47,132 46,130 44,129 42,129 40,128 40,130 42,131 44,132 44,134 44,137 47,138 48,140 51,141 51,144 48,143 45,143 44,140 41,139 41,135 40,133 38,132 37,130 37,128 35,126 36,125 35,123 37,123 38,121 40,122 39,124 39,126 41,125 42,123 44,124 44,126 46,127 46,125 45,122 43,121 42,120 40,119 39,118 39,116 40,115 39,113 42,112 43,113 42,115 44,115 43,117 44,119 46,120 47,119 46,117 46,115 46,113 46,111 46,109 47,107 47,105 45,103 43,104 42,101 38,102 40,104 41,106 44,106 44,107 44,109 42,110 41,108 40,110 38,109 38,108 38,106 36,105 34,102 30,101 28,99 28,97 27,95 25,94 26,92 24,91 23,92 22,94 22,95 24,96 25,97 25,99 23,98 22,100 23,102 25,103 25,101 27,101 28,103 29,105 32,106 33,107 35,108 35,110 36,112 36,114 37,115 36,117 34,116 33,115 32,114 32,111 31,110 29,109 27,111 29,112 29,114 28,116 29,118 30,116 31,117 33,119 35,121 33,122 30,121 28,122 27,120 26,118 25,116 26,115 25,113 25,111 24,109 24,108 26,109 27,107 26,105 24,106 23,104 22,106 20,105 20,104 21,102 19,101 18,103 17,105 15,105 15,104 13,103 12,102 10,102 11,100 13,99 12,98 13,97 12,95 14,95 14,93 11,92 10,94 9,96 10,97 8,98 9,99 8,101 7,103 8,104 8,105 7,107 6,109 8,110 9,111 10,113 8,113 7,114 8,115 10,116 10,118 9,120 10,121 12,121 12,119 13,117 13,115 12,114 13,112 11,111 12,109 11,108 9,108 10,106 11,104 12,106 13,107 15,107 17,107 19,107 21,108 19,109 17,109 15,109 14,110 15,111 17,112 18,111 20,112 21,110 22,111 22,113 23,115 22,117 21,116 19,115 18,116 16,115 15,117 14,119 15,120 14,122 14,124 12,123 10,123 11,125 12,126 11,128 9,129 7,129 6,130 8,131 8,133 10,132 11,130 13,131 12,132 12,134 14,134 13,136 12,138 14,138 15,140 13,140 12,142 10,141 10,140 10,138 11,136 10,134 9,136 8,138 7,140 7,142 6,144 8,145 9,143 11,144 11,145 13,146 14,144 14,142 16,143 16,145 15,147 17,148 18,147 18,145 18,143 18,141 17,140 16,138 15,136 16,135 17,133 15,132 17,131 16,130 14,129 13,128 14,126 16,125 17,123 16,122 17,120 17,118 19,118 20,119 19,121 21,121 22,119 24,118 24,120 25,122 23,122 24,124 26,124 26,126 26,129 23,129 22,128 23,126 21,125 21,124 19,123 18,125 19,127 16,127 17,128 18,129 20,130 20,132 19,134 18,136 20,137 18,138 19,139 21,140 22,138 23,135 22,134 23,131 25,132 27,133 26,135 25,137 27,138 29,137 29,135 31,135 30,133 30,131 30,129 29,127 28,126 29,124 31,125 33,125 32,127 34,128 33,130 34,132 35,134 37,135 38,138 35,138 32,137 31,139 32,141 31,143 29,142 29,140 27,140 24,140 23,143 22,142 20,142 20,144 20,146 20,148 22,147 22,145 24,145 26,143 28,145 31,145 33,145 36,145 35,142 38,142 41,143 42,145 45,146 46,147 49,147 48,149 47,151 47,153 48,155 50,156 51,158 53,159 53,157 53,155 52,154 50,153 50,151 51,149 51,148 52,146 54,146 54,148 55,149 53,150 53,152 56,152 57,155 56,158 56,160 59,158 59,160 58,162 59,164 61,163 62,165 64,166 65,167 67,168 70,168 70,170 70,172 69,174 71,174 71,176 71,177 72,179 73,181 73,184 71,183 69,181 68,179 67,178 68,176 66,175 67,173 67,171 64,170 64,173 63,175 61,174 60,172 58,170 61,169 59,167 56,167 55,166 55,164 54,162 52,161 50,163 52,164 52,166 52,168 53,169 55,170 56,173 55,175 56,177 58,175 58,177 57,179 56,181 59,180 59,182 59,185 60,187 61,190 63,191 63,194 64,196 65,198 66,200 67,202 69,200 70,202 70,204 70,206 70,208 71,209 74,210 75,207 74,206 73,204 73,202 76,203 77,201 76,200 73,199 72,198 70,197 67,197 67,194 66,192 66,189 64,187 63,185 62,183 61,181 63,181 62,179 60,178 61,176 63,177 65,177 64,179 65,181 65,183 67,183 66,185 68,186 69,184 70,186 69,188 69,191 70,194 72,195 73,192 72,190 72,188 73,186 75,187 75,190 76,192 75,194 77,195 75,196 76,198 78,197 80,198 81,199 80,201 79,203 78,205 78,207 77,210 78,212 79,215 79,218 81,219 84,220 86,221 84,217 82,216 82,213 82,210 81,208 81,205 82,203 83,201 85,202 85,204 87,205 84,207 87,208 88,211 85,211 86,214 87,216 88,218 89,221 89,223 88,225 86,224 84,223 83,225 83,227 85,228 86,226 87,228 89,229 90,227 91,225 92,223 93,221 92,219 91,217 90,215 91,212 93,211 91,209 90,207 91,204 89,203 88,201 87,200 85,199 84,198 84,196 86,195 86,193 84,191 82,192 83,194 82,196 80,195 79,193 80,190 82,189 83,186 84,184 85,186 86,188 88,189 88,191 89,193 89,195 87,197 89,198 91,197 92,199 91,201 94,201 93,203 94,205 95,207 96,209 97,212 94,214 95,216 96,218 96,220 98,221 96,222 97,224 99,224 98,226 100,226 100,228 102,228 103,230 104,231 105,229 104,227 106,227 107,225 107,224 105,223 104,225 102,226 102,224 101,222 101,220 101,218 99,217 99,214 101,213 102,215 105,215 105,217 104,219 103,221 106,221 107,219 109,220 108,222 110,222 110,224 111,225 113,225 114,226 113,228 115,228 116,229 116,231 118,232 118,230 120,229 119,228 118,227 116,226 116,224 117,222 118,224 119,225 121,226 122,227 124,228 125,226 123,225 122,224 120,223 119,221 118,220 116,219 117,217 115,217 113,218 114,220 115,221 114,223 113,222 112,220 111,218 109,217 108,215 111,215 113,215 112,212 110,211 108,212 105,212 106,209 110,208 109,205 107,206 106,204 105,202 105,199 103,198 102,201 102,205 103,207 103,210 100,209 99,206 99,204 97,203 97,200 99,201 100,198 98,197 96,198 94,197 92,195 92,193 91,191 92,189 91,187 90,185 88,186 87,184 87,182 85,182 85,179 84,177 85,174 87,173 87,175 88,177 89,179 89,182 90,183 92,181 94,181 93,183 94,185 95,187 95,189 95,191 95,193 96,195 98,193 100,194 101,195 104,195 104,193 107,193 108,190 110,191 111,193 109,195 107,196 109,198 109,201 112,202 113,203 113,206 113,209 116,209 117,211 115,212 116,214 118,215 120,216 119,218 120,219 121,221 122,219 122,217 124,217 125,218 126,219 125,221 124,220 123,222 124,223 126,224 128,225 128,224 127,222 128,220 130,220 129,222 131,222 133,222 134,221 132,220 131,218 129,218 128,217 127,216 125,215 123,215 121,214 119,213 121,211 121,209 120,208 119,206 116,206 116,203 119,203 118,200 115,199 112,199 112,196 115,196 117,197 120,197 121,199 122,201 124,203 122,204 124,206 124,208 124,210 123,212 124,213 126,213 127,211 127,210 127,208 127,206 127,204 127,202 128,199 126,200 125,198 124,196 123,194 126,195 129,195 130,197 132,198 131,200 130,202 130,204 129,206 130,208 130,210 129,212 128,214 129,215 131,216 133,216 132,214 131,213 132,211 133,209 132,208 131,206 133,205 134,207 136,207 136,209 135,210 134,212 134,214 136,213 136,215 135,217 133,218 135,219 137,220 137,218 138,216 139,215 138,213 137,211 138,209 139,207 141,208 143,209 145,210 147,210 148,211 147,213 146,215 145,214 145,212 143,212 142,211 140,210 140,211 140,213 142,214 142,215 141,217 139,218 140,219 139,221 140,223 139,225 138,223 136,222 136,223 137,225 136,226 137,227 135,228 137,229 136,231 134,230 132,229 133,227 134,225 133,224 131,224 130,226 131,227 130,229 129,228 127,227 126,228 126,230 127,231 126,232 125,234 127,234 128,235 128,237 130,236 132,236 133,235 131,234 129,233 129,231 131,231 132,232 134,232 135,233 135,235 134,237 136,238 138,239 139,237 137,236 137,234 138,232 139,231 139,229 141,229 142,230 142,231 144,232 145,234 146,236 147,235 148,237 149,235 149,233 148,232 146,231 145,230 144,228 146,228 147,229 148,227 149,225 149,224 147,223 145,222 145,223 146,225 145,226 143,225 142,227 140,227 141,225 142,223 143,221 142,220 144,219 143,218 144,216 145,217 147,218 146,220 148,220 149,221 150,222 152,222 152,224 153,226 152,228 151,226 150,228 149,230 151,230 152,231 151,233 152,234 151,236 151,237 153,238 154,236 156,237 158,238 160,237 159,236 161,235 160,234 161,232 163,233 164,235 163,236 162,238 161,240 159,240 157,240 155,239 154,241 152,241 152,240 150,239 149,241 148,239 146,239 146,241 145,240 143,240 144,238 144,236 143,234 141,233 139,234 140,235 142,236 141,238 141,239 140,241 138,241 136,240 134,239 133,241 131,240 132,239 130,238 129,240 127,239 126,241 125,240 124,238 126,237 125,236 123,236 122,235 123,233 123,232 124,230 122,229 121,231 120,232 119,234 120,235 120,237 121,238 121,239 123,240 121,241 119,241 118,239 117,241 115,240 116,238 118,237 117,236 117,234 115,233 114,231 113,230 112,232 112,234 114,235 112,236 114,237 113,239 112,241 110,239 109,236 110,234 108,234 109,232 110,231 111,229 111,227 109,226 108,228 109,229 107,230 107,231 106,233 104,233 103,235 105,235 106,236 106,238 107,240 103,240 103,237 101,237 100,236 101,234 101,232 101,230 99,230 97,229 97,228 95,227 95,226 94,224 93,226 92,228 93,229 95,230 96,232 98,232 97,234 99,234 98,236 99,238 99,240 96,241 94,240 96,239 95,238 95,236 94,234 92,234 93,232 91,231 87,233 88,235 89,237 92,237 91,238 92,239 91,241 89,241 88,239 87,238 85,237 85,240 82,241 80,241 80,239 82,239 82,237 80,237 78,236 76,235 75,234 74,232 76,231 75,230 75,228 74,226 72,226 73,228 72,230 72,231 70,230 70,228 69,226 68,228 66,227 65,229 67,230 68,232 68,233 66,232 64,231 63,233 63,235 64,237 65,235 67,236 68,235 70,235 71,233 73,234 72,236 73,237 75,237 77,238 78,239 77,241 76,240 74,239 73,241 72,239 69,240 70,239 69,237 67,238 66,240 64,239 62,239 63,241 60,241 58,240 59,238 61,237 60,235 60,233 58,234 57,236 56,238 55,240 52,240 50,239 49,241 46,241 47,239 45,238 45,236 46,234 47,235 48,237 49,235 50,233 48,232 48,230 48,228 46,228 47,226 48,224 50,224 49,222 48,220 47,222 45,221 46,219 45,218 43,218 44,216 45,214 43,214 43,212 43,210 43,208 44,206 42,205 43,203 42,202 40,202 41,200 42,198 43,199 44,197 42,196 42,194 44,193 43,192 41,192 41,190 42,188 40,187 41,185 41,184 39,183 38,181 40,181 40,179 42,179 43,181 42,182 44,183 46,183 49,182 49,184 50,186 52,185 53,187 54,189 55,191 56,193 54,194 52,193 51,191 50,189 48,189 46,188 46,186 44,185 43,186 44,188 44,190 46,190 47,191 49,192 48,194 46,193 45,195 47,196 46,198 45,200 46,202 45,204 46,206 47,207 46,209 45,211 47,212 48,214 47,216 48,217 50,218 51,216 52,218 51,220 52,222 53,224 55,223 55,221 54,220 55,219 54,217 54,215 54,213 55,211 53,209 52,208 51,210 52,212 52,214 50,214 49,212 48,210 49,208 50,206 52,205 50,204 48,204 48,202 47,200 49,199 49,197 50,195 52,196 52,198 51,200 51,202 53,203 55,204 54,206 56,206 56,208 57,209 58,211 57,212 58,213 57,215 57,217 58,219 58,221 57,223 57,225 59,226 60,227 59,229 57,228 55,227 54,226 52,226 50,226 51,228 51,230 53,229 53,231 53,233 52,235 51,237 53,238 54,236 55,234 56,232 56,230 58,231 61,231 62,229 63,227 62,225 60,224 60,222 61,220 61,218 59,217 60,215 61,213 63,213 64,215 62,216 63,218 64,219 64,221 63,223 65,223 65,225 67,225 68,223 67,221 67,219 67,216 70,216 71,218 73,217 73,220 70,221 70,224 72,223 74,223 76,223 77,225 77,227 78,229 78,231 77,233 79,234 81,235 83,233 81,233 80,232 81,231 82,229 80,229 80,227 80,225 81,223 80,222 78,221 76,220 76,217 76,215 74,213 71,213 68,213 67,212 66,210 66,207 66,205 63,204 62,207 63,209 61,211 60,209 59,207 58,206 58,204 57,202 55,201 54,200 55,198 56,196 58,197 58,199 60,200 61,202 63,201 61,197 60,194 59,192 58,190 57,188 56,186 56,184 54,183 52,182 53,180 53,178 53,176 51,175 53,173 52,172 50,171 49,170 49,168 49,166 48,164 47,162 49,161 47,160 48,158 46,157 45,155 44,154 44,152 45,150 43,149 42,151 41,153 40,151 40,149 39,147 38,150 36,149 34,148 31,148 31,150 32,151 35,151 37,153 39,155 41,156 42,158 44,159 44,161 43,163 45,164 46,166 46,168 46,170 46,172 48,173 46,174 48,175 49,177 50,179 48,180 46,179 46,177 43,177 42,176 42,174 43,171 43,169 43,167 42,166 41,164 41,161 39,162 39,159 36,160 35,162 34,164 36,164 37,165 38,167 37,169 35,169 35,167 33,166 31,165 29,164 29,162 31,161 32,163 33,161 32,159 34,159 36,157 34,155 32,157 31,156 29,156 29,158 30,159 28,160 27,162 25,161 24,160 23,158 22,160 20,159 21,157 20,155 21,153 22,155 24,156 25,157 26,159 27,157 27,155 27,153 29,154 31,154 30,152 28,151 28,150 28,148 26,147 24,147 23,149 25,149 26,150 25,152 25,154 23,153 23,151 21,151 20,150 18,150 18,152 18,153 18,155 18,157 16,156 15,158 14,160 15,162 16,160 18,159 19,161 17,162 18,163 20,164 21,162 22,163 24,163 26,164 26,165 28,166 30,167 32,168 32,169 31,171 31,173 31,175 33,175 35,176 37,176 36,174 34,173 33,171 35,171 37,172 38,171 40,169 40,172 39,174 39,176 39,177 38,179 36,179 35,181 36,182 35,184 37,184 38,185 38,187 39,189 38,190 37,192 39,192 39,194 40,196 38,196 39,198 39,199 38,201 36,200 37,198 35,197 36,195 36,194 34,193 35,191 36,189 35,188 36,187 34,186 33,188 32,190 33,191 31,192 30,194 28,194 28,196 28,197 26,198 27,199 26,201 25,202 26,203 24,204 25,206 26,207 25,209 27,209 28,210 30,211 30,210 30,208 28,207 29,205 28,204 29,203 29,201 29,200 30,198 31,196 32,194 33,195 33,197 34,199 33,201 32,199 31,201 31,203 33,203 35,202 37,203 35,204 36,205 38,206 39,204 40,206 40,208 39,210 41,210 40,212 39,214 41,214 41,216 41,218 41,220 43,221 42,222 41,224 43,224 45,224 44,226 44,227 43,229 45,230 46,232 44,232 43,234 42,236 42,238 43,240 40,241 40,240 40,238 38,237 36,238 37,240 34,241 34,240 32,240 33,238 34,236 36,236 38,235 40,235 41,233 42,231 40,231 40,229 41,227 40,226 38,225 39,223 39,222 37,222 38,220 37,218 39,218 38,216 37,214 37,212 35,212 36,210 37,208 35,207 34,206 32,205 31,206 32,208 34,209 33,210 32,212 32,213 34,214 35,216 33,216 33,218 35,218 35,220 35,222 35,224 35,226 35,228 37,227 38,229 36,230 37,231 38,233 36,233 34,234 32,234 30,233 29,234 27,234 27,236 29,236 31,236 31,237 29,238 30,239 29,241 27,241 26,239 26,238 25,236 25,234 23,234 22,232 21,234 19,233 20,231 18,231 16,231 16,230 17,228 19,228 20,229 22,230 24,230 25,232 26,231 28,232 29,230 31,231 33,232 34,230 32,229 32,228 33,226 32,224 33,222 32,220 31,222 29,222 29,224 29,225 31,226 30,228 28,227 27,229 26,228 26,226 26,224 27,222 28,220 30,219 29,218 30,217 31,215 29,215 27,214 29,213 27,212 25,211 24,212 25,214 23,214 23,216 25,216 27,217 26,219 25,218 23,218 23,220 25,221 23,222 24,223 23,225 24,226 23,228 21,227 21,225 20,224 19,226 17,226 18,224 16,223 16,222 14,221 13,220 14,218 15,216 15,214 16,212 14,212 12,211 11,213 13,214 12,216 12,217 11,219 9,219 8,220 10,221 12,222 13,224 15,225 13,226 15,227 13,228 14,229 13,231 11,231 10,230 11,228 11,226 11,224 9,223 7,222 6,224 8,225 9,226 8,228 8,229 7,231 9,232 10,233 12,234 13,233 14,235 12,236 13,237 15,238 16,237 16,235 15,233 17,233 18,235 19,236 19,237 21,238 22,236 23,238 24,240 22,240 20,240 18,239 17,240 15,240 13,240 12,239 10,241 8,240 10,239 9,238 10,236 9,235 7,235 7,237 6,239 5,241 3,241 3,239 3,237 5,237 5,235 4,233 6,233 5,231 5,229 4,228 6,227 5,226 3,225 4,223 3,221 5,221 6,219 5,218 3,217 4,215 4,214 4,212 5,211 7,212 7,214 6,216 7,217 9,217 10,215 9,214 9,212 10,210 8,210 9,208 9,206 7,206 6,208 6,209 3,209 4,207 5,205 3,205 3,203 3,201 5,201 6,203 8,204 9,203 8,201 8,200 9,198 11,199 10,201 12,202 13,200 14,199 15,201 17,201 16,203 14,203 15,205 14,207 13,205 11,204 11,206 11,208 13,209 15,210 16,208 17,209 19,209 18,211 19,213 17,214 18,215 17,217 16,219 17,220 19,220 19,222 21,222 21,220 21,218 19,218 20,216 21,215 21,213 22,211 21,210 23,209 22,208 23,206 21,205 20,207 19,206 17,206 18,204 19,202 20,203 22,203 23,201 23,200 21,199 20,200 18,199 17,198 15,197 13,197 12,196 10,195 9,196 8,194 7,196 6,198 6,199 4,198 4,196 5,195 4,193 6,193 5,191 7,191 9,192 11,193 13,194 14,192 15,194 16,195 17,193 16,191 15,190 16,188 17,186 18,185 16,184 14,183 13,184 14,186 14,187 12,186 11,188 13,189 12,191 10,190 8,189 8,188 6,187 5,189 4,188 4,186 4,184 4,182 4,180 4,178 4,176 4,174 5,173 7,174 6,176 8,176 9,177 7,178 6,180 8,180 9,181 8,183 6,183 7,185 9,186 10,185 11,183 11,182 12,180 10,179 11,177 13,178 15,177 14,176 12,175 10,174 10,172 8,172 9,170 11,170 10,168 10,166 11,164 12,166 13,167 13,169 14,171 12,172 13,173 15,174 16,172 18,171 17,170 15,169 16,167 18,168 20,169 20,171 19,173 19,175 17,175 17,177 16,179 14,180 15,181 17,182 19,183 20,181 20,180 18,180 19,178 20,177 21,175 23,176 24,175 26,176 26,178 24,178 22,178 23,180 22,182 21,184 21,185 20,187 18,188 19,189 18,191 20,192 22,192 21,190 22,189 23,187 23,186 24,184 24,182 26,181 26,180 28,179 30,180 30,181 28,182 28,184 26,184 26,186 25,188 24,190 24,192 24,193 23,195 21,195 19,194 18,196 20,197 22,197 24,198 25,196 26,194 27,192 29,191 27,190 27,188 29,188 30,189 31,187 29,186 30,184 32,185 33,183 32,182 33,180 34,178 32,177 31,178 29,177 29,175 28,173 27,174 25,173 23,173 22,172 23,171 22,169 24,169 26,170 27,171 29,171 29,169 27,168 25,167 24,166 22,165 21,167 19,166 17,165 15,165 14,164 13,162 11,161 10,162 9,164 7,163 6,165 8,166 7,168 7,169 6,171 4,171 4,169 5,167 4,165 4,164 4,162 4,160 6,161 8,161 8,159 7,158 5,157 4,158 3,155 4,153 5,151 4,150 4,148 6,149 8,150 9,149 11,150 13,151 12,153 11,152 9,152 7,152 6,154 6,155 8,156 9,154 11,155 10,157 10,159 12,159 13,157 13,156 14,154 16,154 15,152 16,150 14,149 12,148 10,147 8,147 6,147 5,146 3,145 4,143 4,142 4,140 5,139 6,137 4,137 4,135 7,135 6,133 5,132 3,131 4,129 3,127 5,127 7,127 9,127 9,125 8,123 7,122 7,125 5,125 4,124 5,122 4,121 3,119 5,119 7,120 8,118 7,117 5,117 4,116 5,114 3,113 6,112 5,111 4,110 4,108 5,107 5,105 3,105 5,103 5,102 3,101 6,100 5,99 4,98 6,97 4,96 4,94 6,94 7,95 8,93 8,91 6,91 5,92 3,91 4,89 6,89 6,87 4,86 6,85 7,83 4,83 3,79 6,81 7,79 8,77 9,75 6,76 6,74 5,72 4,69 7,68 6,66 3,65 5,63 4,62 4,59 8,58 8,56 6,55 5,54 5,52 4,50 6,48 5,46 8,47 8,49 10,49 12,50 13,49 15,50 14,52 16,52 17,53 19,54 21,53 21,52 19,51 18,50 18,48 17,46 16,48 14,47 12,47 11,46 9,45 8,44 6,43 3,43 5,41 5,39 4,37 4,35 4,33 4,32 4,30 5,28 3,27 3,25 6,26 6,24 5,22 4,20 4,17 5,15 6,18 7,20 7,22 10,21 10,23 9,24 9,26 8,28 7,30 8,31 7,33 6,35 7,37 8,39 7,41 9,42 10,40 11,42 11,43 13,44 15,45 16,43 14,42 16,41 14,40 12,39 11,37 9,37 9,35 10,33 10,31 13,31 13,33 12,35 13,37 15,37 15,35 16,33 16,31 14,29 12,29 11,28 12,26 13,24 15,23 13,22 13,20 11,19 11,17 9,18 8,16 8,14 7,12 5,12 4,10 3,7 7,9 6,7 5,5 3,3" style="fill:none;stroke:black;stroke-width:1.3" />
</svg>