<svg xmlns="http://www.w3.org/2000/svg" width="181" height="244">
    <polyline points="3,3 6,3 7,5 6,7 7,9 10,9 10,11 11,13 13,14 15,13 13,11 13,9 12,7 10,6 9,3 11,4 14,4 16,5 18,3 20,4 22,3 22,5 22,8 21,10 19,9 20,7 18,7 15,7 16,9 17,11 19,12 18,14 20,15 21,17 21,19 20,21 21,23 20,25 20,27 20,29 19,31 17,29 16,31 16,33 15,35 15,37 17,37 17,39 19,40 20,38 21,40 22,41 23,43 24,41 26,42 25,44 24,46 25,48 27,47 27,46 27,44 29,44 28,42 30,41 30,40 30,38 28,38 27,40 25,39 25,38 25,36 23,35 22,37 20,36 18,35 19,33 21,34 22,32 22,30 23,28 25,28 25,30 25,33 27,34 28,36 30,35 31,33 29,32 27,31 29,29 28,28 28,26 26,25 23,26 23,24 25,23 25,21 23,21 24,18 26,19 26,17 24,16 24,14 22,12 24,12 24,10 25,8 24,6 26,5 25,3 28,3 30,4 32,3 33,5 35,6 35,3 37,4 39,3 41,4 43,3 43,5 39,6 40,7 42,8 42,10 43,11 44,13 45,15 42,15 43,17 46,18 46,21 44,21 42,22 42,20 40,20 40,18 39,16 40,13 39,12 39,10 37,9 35,8 35,10 35,12 36,13 37,15 36,18 37,20 37,22 39,23 38,25 36,24 36,27 34,26 33,24 34,22 34,20 33,18 33,16 33,14 31,13 32,11 32,9 31,8 31,6 28,6 28,8 27,10 29,11 27,12 28,13 29,15 30,17 29,19 31,20 31,22 28,21 28,23 30,24 31,26 32,28 32,30 34,30 34,32 33,34 32,36 33,38 33,40 32,42 31,44 33,44 33,46 34,47 33,49 31,48 30,46 29,48 29,50 30,51 29,53 31,53 33,54 34,53 33,51 35,51 36,49 37,47 37,45 36,44 35,42 35,40 35,38 34,36 36,35 37,33 37,32 37,30 38,28 40,27 42,27 42,24 44,24 46,24 45,26 45,28 45,30 46,32 48,30 48,28 48,26 49,24 49,22 49,20 49,18 48,16 48,14 48,12 46,11 46,9 45,7 46,5 47,3 49,5 48,7 49,9 50,11 51,14 52,16 52,19 53,21 52,23 51,25 51,27 51,29 51,31 51,33 52,35 54,35 56,36 57,38 56,40 58,40 58,42 59,44 58,46 57,44 55,43 54,42 53,40 54,38 52,37 51,39 49,39 49,37 49,35 48,33 47,35 46,37 44,38 46,39 46,41 45,43 45,45 45,47 46,49 47,47 48,45 48,43 49,41 51,42 51,44 50,46 52,47 53,45 55,46 54,48 56,48 58,48 59,49 61,50 61,48 61,46 62,44 63,43 61,42 61,40 60,38 59,36 60,34 59,32 60,30 60,28 63,28 64,29 66,29 67,27 65,25 64,24 64,22 63,20 62,18 61,16 61,14 60,12 58,11 56,12 58,14 58,17 59,20 60,21 61,23 61,26 59,25 57,24 57,27 57,29 57,31 57,34 55,33 54,32 54,30 54,28 54,26 54,24 56,22 56,20 55,18 55,16 54,14 53,12 53,10 52,8 52,6 51,3 53,4 54,7 56,9 57,7 56,4 58,3 60,4 60,6 60,8 61,9 63,11 64,8 64,6 63,4 66,4 68,3 70,4 71,5 73,6 73,8 74,9 75,11 74,13 75,15 74,18 75,20 76,22 76,24 77,25 75,27 77,28 78,29 77,31 75,30 73,29 72,28 72,26 72,24 72,22 71,20 72,17 71,16 69,15 71,13 71,11 69,11 70,8 68,7 66,9 66,11 66,13 64,14 65,16 66,17 68,19 66,20 68,22 68,24 69,25 69,28 68,30 68,32 68,33 68,35 67,37 65,37 65,35 65,34 65,32 63,31 61,32 62,34 62,36 63,38 64,40 66,39 66,41 65,43 64,45 64,47 63,49 63,51 62,53 61,55 60,57 61,59 62,57 64,58 63,60 65,60 67,61 69,62 67,64 68,65 71,65 71,67 74,67 76,69 77,66 76,64 74,63 72,62 71,60 72,58 74,58 74,60 76,61 76,59 79,59 79,61 78,63 81,63 80,66 80,68 82,69 85,70 87,72 88,74 91,73 92,75 92,78 94,79 98,79 98,82 101,81 103,84 106,83 109,84 112,85 113,81 110,80 106,80 104,78 102,76 98,76 97,74 96,72 96,69 96,65 94,63 93,61 91,62 89,61 87,60 87,63 88,65 91,65 93,67 93,70 90,69 88,68 85,67 84,65 84,63 84,61 82,60 84,59 82,58 83,56 85,57 86,55 86,54 84,54 82,53 81,55 80,57 78,57 76,56 78,55 77,54 79,53 78,52 78,50 78,48 79,47 81,48 80,50 81,51 83,51 85,52 86,50 87,51 88,49 87,48 85,47 84,49 83,48 82,46 80,45 78,45 76,44 75,46 76,47 75,49 76,50 75,52 74,54 73,56 71,55 70,57 69,59 67,59 67,57 68,55 68,54 67,52 66,54 65,56 63,55 64,53 65,51 65,49 66,47 67,45 68,43 70,44 69,46 70,48 68,48 67,50 69,50 69,51 71,52 72,53 73,51 72,50 73,49 72,48 72,46 72,43 74,44 75,42 75,40 77,41 78,39 78,37 76,38 76,36 74,35 73,37 71,38 73,39 72,41 70,41 69,40 69,38 70,36 71,35 71,33 71,31 73,33 75,33 77,34 79,35 80,37 81,39 80,40 80,42 81,43 83,44 84,45 86,45 88,46 89,44 90,42 88,41 87,43 85,42 83,41 84,39 83,37 83,35 82,34 83,32 83,30 81,32 79,32 80,30 81,28 80,26 81,24 79,23 79,21 79,19 77,18 79,16 78,14 80,13 78,12 78,10 77,8 79,7 77,6 74,3 76,4 79,3 81,4 83,5 81,7 83,8 81,10 83,11 83,13 82,16 82,18 82,20 82,22 83,24 83,26 84,27 87,28 89,29 88,31 86,30 86,32 86,34 87,35 86,37 86,39 88,39 90,39 89,37 90,35 89,33 91,31 92,33 92,35 92,37 92,39 94,39 93,41 93,43 91,44 91,45 90,47 91,48 90,50 91,52 89,52 89,54 88,56 87,58 89,58 91,59 91,57 92,55 91,54 93,53 94,51 93,50 93,48 93,46 94,45 95,43 96,41 97,39 99,40 100,41 99,43 98,42 97,44 98,45 96,46 95,48 97,48 96,50 98,51 96,52 95,54 94,56 96,57 94,58 96,59 97,61 99,62 100,64 99,67 100,70 102,72 105,73 108,75 111,76 115,76 117,78 119,80 122,79 122,82 124,84 125,86 126,88 128,90 129,87 129,85 128,83 126,82 125,80 124,77 123,75 122,73 120,76 119,73 117,72 114,72 111,71 109,70 109,67 110,63 110,60 110,58 109,56 107,55 105,55 104,54 104,57 106,58 106,60 107,62 106,65 105,69 103,67 103,64 103,61 102,59 99,59 101,57 100,56 98,55 97,54 99,53 101,54 102,52 100,51 99,49 99,47 101,47 101,49 103,48 103,50 104,52 106,52 105,50 105,48 106,47 104,46 103,45 101,45 101,44 102,42 103,40 105,40 105,41 104,43 106,44 107,45 108,43 107,42 109,41 108,40 109,39 111,39 110,37 108,36 107,38 105,37 103,38 101,38 102,36 100,35 99,37 97,37 95,37 95,35 95,33 95,31 94,30 93,28 95,27 94,25 96,23 94,22 93,20 91,19 90,16 88,15 88,18 89,20 90,22 90,24 92,25 91,27 88,26 86,25 87,23 86,21 85,20 85,18 85,16 86,13 86,11 87,9 86,8 85,6 85,3 87,4 88,6 90,7 90,3 92,4 93,6 93,8 94,9 94,12 92,11 90,9 89,11 90,13 92,14 93,16 94,17 96,18 96,20 98,21 101,21 100,19 99,17 97,15 96,14 97,12 96,10 97,8 97,6 95,5 94,3 97,3 99,4 101,3 103,4 105,3 108,3 107,5 106,6 107,7 108,9 107,11 105,9 104,11 102,10 103,8 103,6 100,6 100,8 99,10 100,12 103,13 101,14 102,16 104,15 105,17 103,19 105,20 106,21 107,23 109,23 111,24 111,21 110,20 110,18 108,18 109,16 107,15 107,13 110,13 112,15 115,14 114,12 112,11 110,10 111,9 110,7 110,5 111,3 114,3 113,5 113,7 114,9 116,10 116,11 117,13 118,15 120,13 121,11 119,11 119,9 120,7 118,6 117,8 115,7 116,5 117,3 119,4 120,3 122,3 122,5 124,5 123,7 122,8 123,9 123,11 123,13 123,15 120,16 121,18 123,18 122,21 123,23 123,25 125,26 126,24 127,26 126,28 128,28 128,30 130,30 130,28 130,26 129,24 132,24 132,22 130,21 128,21 126,22 125,20 127,19 125,18 126,15 126,13 126,11 126,9 126,7 126,5 125,3 128,3 129,6 130,4 132,3 135,3 134,5 132,6 134,7 134,9 135,11 135,13 138,13 138,11 137,9 137,7 137,5 139,3 141,4 140,6 140,8 141,9 141,11 140,14 140,16 141,17 141,19 141,21 140,24 142,24 143,25 144,27 144,29 144,31 144,33 144,35 143,37 145,38 147,39 147,37 146,36 147,34 149,35 150,37 149,39 151,40 152,38 153,40 153,41 152,43 155,43 156,41 158,42 158,44 160,45 162,46 163,44 165,43 164,42 162,41 161,43 160,41 159,40 160,39 157,39 156,38 154,36 152,35 151,33 150,31 147,32 147,30 149,29 147,28 147,26 146,24 146,22 144,21 146,19 145,18 144,16 146,15 144,14 144,12 144,10 144,8 144,6 144,4 147,4 150,4 148,6 148,8 149,9 147,11 149,12 149,14 149,16 149,18 149,20 150,21 152,23 149,24 150,26 152,27 153,29 154,31 154,33 156,35 158,36 160,37 161,35 163,37 163,39 165,40 167,41 169,41 170,42 171,44 171,45 170,47 168,46 169,44 167,43 166,45 164,46 165,48 168,48 169,50 171,51 174,52 175,50 173,49 172,48 174,47 173,46 174,44 175,43 174,42 172,42 172,40 174,40 173,38 174,36 174,34 173,32 173,30 173,28 173,26 172,24 174,23 173,21 173,19 171,20 170,18 168,17 166,18 165,16 167,15 166,13 164,14 162,13 160,15 159,13 159,10 159,7 157,8 155,7 155,10 156,12 155,14 157,15 158,17 160,18 162,17 163,19 164,21 166,23 168,20 169,22 170,23 169,26 170,27 169,30 170,31 168,33 170,34 171,35 170,38 170,39 168,38 166,38 167,36 165,35 165,33 164,32 161,32 158,33 157,31 160,30 160,28 158,27 156,28 155,26 154,24 156,23 158,24 160,25 162,27 163,29 166,30 166,28 166,26 164,25 162,23 160,21 158,21 156,19 154,21 153,20 152,18 154,17 152,15 153,12 152,10 152,8 152,6 153,4 156,4 158,5 160,3 164,3 162,4 162,6 162,8 162,10 164,11 166,9 165,7 166,5 168,3 170,4 171,5 170,8 168,7 168,10 169,11 170,13 170,15 173,16 173,14 174,12 172,11 174,9 173,8 173,6 174,3 176,4 177,6 176,9 176,11 176,14 176,16 176,18 177,20 176,23 176,26 177,28 176,31 177,34 176,37 176,39 177,41 177,43 176,45 177,46 178,48 176,48 177,50 177,52 178,54 175,54 175,57 175,60 175,63 176,65 176,69 175,68 174,66 172,65 171,68 168,68 169,65 167,66 166,64 165,62 164,60 162,59 163,57 166,57 167,59 168,61 170,62 172,63 171,59 171,56 169,54 165,53 164,51 161,50 158,49 155,47 153,48 154,50 155,51 157,52 158,54 160,55 160,57 158,56 157,58 159,59 160,61 159,62 157,61 155,60 153,60 151,60 150,58 149,60 150,62 151,63 153,64 154,62 156,63 155,65 155,67 154,69 153,71 151,71 151,69 152,67 151,66 149,65 147,64 147,62 145,61 145,59 147,59 148,57 147,56 146,54 145,56 143,55 142,54 140,54 138,53 139,51 141,52 142,50 142,48 142,46 144,47 145,45 147,45 148,47 146,48 145,50 144,52 146,52 148,50 148,52 149,54 150,55 152,55 152,57 154,58 155,56 155,54 153,53 151,52 151,50 150,48 152,46 150,45 149,43 148,42 146,42 145,40 144,42 143,44 141,43 142,41 141,40 142,39 141,37 141,35 141,33 141,31 139,30 141,29 141,27 139,27 138,26 137,29 136,28 136,26 137,24 138,22 138,20 136,19 137,17 135,16 133,15 132,13 132,11 131,9 129,8 129,10 129,12 129,14 129,16 130,17 131,19 133,19 134,21 135,23 134,25 133,27 133,29 132,31 130,32 131,33 132,35 131,36 132,38 130,38 130,40 132,40 133,41 132,43 134,44 134,45 134,47 136,47 137,45 137,43 135,42 136,40 134,39 135,37 136,35 134,35 134,33 135,31 137,32 138,33 139,35 138,36 137,38 139,39 138,41 139,43 140,45 139,47 139,49 136,49 134,50 136,51 135,53 136,55 138,56 135,57 137,58 138,59 140,59 141,57 143,58 142,60 143,62 144,64 145,66 146,67 147,69 148,67 149,69 148,71 147,72 145,71 143,72 144,73 146,74 148,74 149,75 150,73 152,74 151,76 150,78 152,79 154,80 156,80 156,82 155,84 155,85 157,86 158,88 159,89 161,90 162,89 161,87 163,87 164,85 164,83 166,83 170,81 168,79 166,80 164,79 162,78 162,81 161,83 161,85 159,86 158,84 159,82 159,80 158,78 158,76 160,77 161,75 161,73 160,71 159,73 157,74 156,76 155,78 153,77 154,75 154,73 155,71 157,72 158,71 158,69 157,68 158,66 158,64 160,64 162,63 163,65 161,66 161,68 163,68 164,69 163,71 166,71 164,73 163,75 164,77 166,77 167,74 171,73 173,75 174,79 173,83 174,86 174,89 174,92 175,94 176,96 175,98 176,99 178,100 177,102 175,101 173,101 171,102 170,100 172,99 173,97 171,97 171,95 170,93 168,92 168,90 170,91 170,89 170,87 169,85 167,85 166,86 167,88 165,88 164,90 166,90 165,92 164,94 166,94 166,96 168,95 169,97 168,98 165,98 162,98 163,96 162,94 162,92 160,92 159,94 157,93 156,92 158,91 156,90 155,88 153,87 152,85 153,83 153,82 151,81 149,80 148,82 150,83 150,85 148,85 147,84 145,83 144,85 143,86 144,87 146,87 145,89 144,90 143,92 144,93 146,93 147,91 147,90 148,88 149,87 151,88 152,89 154,90 153,92 151,92 150,90 149,92 148,94 149,96 148,98 146,98 146,96 144,96 143,98 144,100 144,101 146,102 147,100 149,100 149,102 150,103 150,105 149,107 148,105 146,104 144,104 143,106 145,106 147,107 146,109 144,108 142,108 140,107 141,105 142,103 141,102 142,100 140,99 141,97 142,95 140,96 139,94 139,92 141,91 142,89 141,88 140,86 139,88 138,90 137,88 135,88 135,86 137,86 136,84 136,82 134,82 134,80 136,79 138,80 138,82 139,84 140,83 142,84 143,82 141,81 141,79 142,77 144,78 144,80 146,81 147,79 148,77 146,77 145,76 143,75 141,75 140,74 139,77 137,77 136,75 137,73 136,72 137,69 138,67 140,68 140,69 139,71 141,72 142,70 144,69 143,68 143,66 142,64 141,66 139,65 140,63 140,62 138,61 137,63 136,65 135,63 134,62 135,60 133,59 132,57 133,55 132,53 131,51 132,49 131,48 129,48 129,46 131,46 130,44 129,42 128,44 127,46 126,48 125,50 127,50 128,51 129,53 130,55 127,54 125,53 124,52 122,51 123,49 124,47 125,45 126,43 127,41 127,39 128,37 129,35 128,34 127,32 125,31 124,30 123,28 121,27 120,25 120,23 119,21 118,20 118,18 115,17 113,18 114,20 114,22 114,24 116,23 117,25 115,26 115,28 116,29 118,27 119,29 121,30 118,31 120,32 121,33 122,35 123,33 125,34 124,36 125,37 125,39 124,41 124,43 122,42 122,40 122,38 120,37 119,35 117,35 116,33 115,32 113,31 112,29 111,28 111,26 108,27 107,26 105,24 103,23 101,25 100,23 98,24 98,26 98,28 98,30 98,32 98,34 100,33 100,31 101,28 103,26 104,28 103,30 103,32 103,34 105,35 108,34 106,33 106,30 108,30 109,31 111,32 112,34 113,35 113,37 113,39 112,41 111,42 112,44 112,45 110,44 109,46 111,47 111,49 113,48 114,46 115,45 115,43 114,42 115,41 115,39 116,37 118,38 118,40 119,41 119,43 117,43 117,45 119,46 120,45 122,45 121,47 121,49 120,50 119,52 120,53 122,54 123,55 125,56 127,57 129,58 130,60 131,62 131,64 131,66 132,67 135,67 134,69 132,70 132,72 134,72 133,74 133,76 134,78 132,78 130,77 130,75 129,73 129,71 130,69 128,68 126,67 125,66 128,65 128,63 125,64 125,62 127,61 126,59 124,60 122,60 123,58 121,57 119,56 117,56 117,54 115,53 115,51 117,51 118,49 118,48 116,47 115,49 113,50 112,52 110,51 109,49 108,48 107,50 108,52 109,53 111,54 112,55 114,55 113,58 114,60 113,63 113,66 115,68 118,68 117,65 117,62 116,59 119,59 120,62 121,64 122,65 121,68 122,70 125,70 126,71 126,73 127,75 127,77 128,79 130,80 131,81 131,83 133,84 132,86 132,88 131,90 134,90 135,91 137,92 136,94 133,93 133,96 134,97 136,98 137,96 138,98 137,100 139,101 138,103 139,105 138,106 136,105 136,103 135,102 133,102 134,100 132,99 130,98 130,96 130,93 128,94 125,94 124,91 122,89 121,86 119,84 116,83 116,87 117,89 118,91 120,94 122,96 123,97 125,98 127,97 127,99 127,101 129,102 130,100 131,102 132,104 133,105 132,107 135,107 134,109 134,111 135,114 135,117 138,118 141,118 140,121 141,123 142,125 142,128 143,131 143,134 144,136 145,138 148,138 149,135 148,133 147,131 146,128 145,126 145,123 145,121 143,121 143,119 143,117 144,115 143,114 140,115 139,114 139,112 137,111 138,108 139,109 141,110 142,112 144,112 144,110 146,111 146,113 147,115 148,117 146,117 146,119 148,120 148,123 151,124 150,127 151,129 152,131 153,133 153,135 153,137 151,138 150,141 153,140 153,142 155,143 153,144 154,146 156,146 158,148 161,148 162,150 164,149 166,150 167,148 165,147 164,146 164,144 161,145 161,143 159,144 158,142 158,139 157,138 156,136 159,136 161,133 159,130 157,133 156,130 156,128 157,125 154,126 154,123 151,121 151,117 150,115 149,113 148,111 149,109 151,109 151,111 152,113 154,111 154,109 152,107 152,105 153,103 154,101 152,101 152,99 151,98 152,96 151,94 153,94 154,95 154,97 155,99 156,97 156,95 158,96 160,96 160,97 158,98 159,99 157,100 158,101 158,103 156,102 155,104 155,106 157,106 159,107 157,108 158,110 159,111 161,112 162,114 163,116 163,118 164,119 166,120 167,117 166,115 165,111 163,110 161,109 161,107 164,107 163,105 161,104 161,101 164,102 166,103 166,105 168,103 169,105 168,106 170,107 167,108 169,109 170,111 168,111 169,113 170,115 170,118 171,120 171,122 171,124 172,126 174,125 173,123 174,121 175,119 174,118 172,117 173,115 174,113 173,112 175,111 173,110 173,108 173,106 172,104 174,103 176,104 175,106 177,106 176,108 176,109 178,110 177,112 176,114 177,115 175,116 176,117 178,118 177,120 176,122 177,123 176,125 176,127 176,129 173,128 173,130 174,131 176,132 175,134 176,135 178,136 178,140 176,139 174,139 175,137 173,136 173,133 171,133 170,131 170,129 169,128 167,126 167,123 166,122 163,123 163,121 161,121 160,119 160,117 158,115 156,113 154,115 156,116 155,118 157,118 157,119 157,121 159,121 159,123 161,124 160,126 163,126 163,128 165,130 165,132 167,133 169,134 171,135 169,136 169,138 171,138 172,139 171,141 173,142 175,141 176,143 176,145 176,147 176,149 178,150 176,152 174,151 173,149 173,147 173,145 171,144 169,143 168,141 167,140 166,137 163,136 161,139 164,140 165,142 166,144 167,145 169,146 171,147 170,149 171,151 171,153 173,153 175,154 176,155 178,156 177,158 176,160 177,161 175,162 176,163 178,164 177,166 176,168 174,167 175,165 174,164 172,163 171,162 169,161 170,159 172,160 173,161 174,159 173,158 175,157 174,156 172,155 171,157 169,157 169,155 168,153 168,151 166,152 163,152 164,154 166,155 166,157 167,159 166,162 168,163 169,165 171,165 172,167 170,168 171,170 172,171 173,169 175,170 177,170 178,172 178,176 176,175 175,173 174,172 174,174 174,176 175,177 176,179 178,182 176,181 174,182 173,180 171,182 171,184 173,184 175,184 176,185 178,186 177,188 176,190 177,192 177,194 175,192 174,194 175,196 176,197 178,198 175,199 176,201 178,202 177,204 176,206 175,208 177,208 177,210 178,214 176,213 176,212 174,211 174,210 172,209 170,208 169,210 167,209 167,208 168,206 169,205 171,206 173,207 174,205 175,203 173,202 172,204 170,203 170,202 171,200 173,200 172,198 173,196 171,195 172,193 173,191 174,189 175,187 173,187 171,186 170,188 171,189 171,191 169,190 167,189 168,187 168,186 168,184 168,180 166,177 164,175 161,175 161,178 163,179 164,181 164,185 165,187 164,189 162,189 161,188 161,186 161,184 160,182 158,180 157,177 158,174 155,173 152,174 151,177 154,177 155,180 156,183 157,185 157,187 153,188 154,189 156,190 159,190 159,192 161,192 162,193 164,194 165,193 164,191 166,191 168,192 169,193 169,195 170,197 169,199 168,201 167,199 167,197 167,195 165,196 165,198 164,200 165,201 165,203 167,203 166,205 165,207 164,209 163,207 162,206 163,205 163,203 161,203 161,201 162,199 162,198 163,196 161,195 160,197 159,199 158,197 159,195 158,194 156,194 156,192 153,193 153,195 152,197 154,198 155,196 156,197 156,199 155,201 157,201 159,201 158,203 157,204 158,205 160,205 159,207 158,208 156,207 154,207 155,209 157,210 159,210 160,211 161,209 162,211 162,213 161,214 162,215 164,215 166,216 167,217 169,218 170,220 171,221 170,223 171,225 170,226 170,228 172,227 173,225 174,223 173,222 174,221 175,219 173,219 172,218 173,216 171,215 170,216 168,215 167,214 165,213 164,211 166,211 168,212 170,213 171,211 172,213 174,214 175,216 176,217 178,218 177,220 177,222 176,224 176,225 178,226 177,228 175,227 174,229 172,229 173,231 175,232 176,230 177,232 177,234 176,236 176,237 178,238 178,240 175,241 174,240 175,239 173,237 174,235 174,234 172,233 171,235 170,236 169,238 171,238 172,239 171,241 169,241 168,240 166,239 165,237 167,237 168,235 167,234 165,233 164,235 163,236 162,238 164,239 165,241 163,241 161,240 159,240 157,240 158,238 160,237 159,236 161,235 160,234 161,232 163,233 164,231 166,231 168,232 170,233 170,231 169,230 167,229 166,228 167,227 166,225 168,225 168,223 167,222 168,220 166,219 165,221 164,223 163,224 164,225 164,227 162,227 163,229 162,230 160,229 160,227 158,226 159,224 160,225 161,223 160,222 161,220 163,221 164,219 163,217 162,218 160,217 158,217 159,219 157,219 155,218 154,220 153,218 151,217 150,219 152,220 152,222 152,224 151,226 153,226 154,224 154,222 156,221 158,221 157,223 156,225 155,227 157,228 157,230 159,231 158,233 156,232 156,234 157,235 156,237 155,239 154,241 152,241 152,240 150,239 149,241 148,239 146,239 146,241 145,240 143,240 144,238 144,236 145,234 146,236 147,235 148,237 149,235 149,233 148,232 146,231 145,230 144,232 143,234 142,236 141,238 141,239 140,241 138,241 136,240 138,239 139,237 137,236 135,235 133,235 132,236 134,237 136,238 134,239 133,241 132,239 131,240 129,240 130,238 130,236 131,234 129,233 129,231 130,229 129,228 130,226 131,227 132,229 131,231 132,232 134,232 135,233 137,234 139,234 140,235 141,233 142,231 142,230 141,229 140,227 142,227 144,228 146,228 147,229 149,230 151,230 152,231 151,233 152,234 151,236 151,237 153,238 154,236 154,234 154,232 155,230 154,229 152,228 150,228 148,227 149,225 149,224 150,222 149,221 148,220 146,220 147,218 149,217 148,216 146,215 145,214 144,216 145,217 144,219 143,218 141,217 142,215 142,214 140,213 140,211 140,210 141,208 139,207 138,209 137,211 136,213 138,213 139,215 138,216 139,218 140,219 142,220 143,221 145,222 145,223 147,223 146,225 145,226 143,225 142,223 141,225 140,223 139,225 138,223 139,221 137,220 136,222 136,223 137,225 136,226 137,227 137,229 139,229 139,231 138,232 136,231 134,230 135,228 133,227 134,225 133,224 131,224 131,222 133,222 134,221 135,219 137,218 135,217 136,215 134,214 134,212 135,210 136,209 136,207 134,207 133,205 131,206 129,206 130,204 130,202 131,200 132,198 130,197 129,195 128,192 126,191 123,194 126,195 124,196 125,198 128,199 126,200 127,202 127,204 127,206 127,208 127,210 127,211 129,212 130,210 130,208 132,208 133,209 132,211 131,213 132,214 133,216 131,216 131,218 133,218 132,220 130,220 129,222 128,224 128,225 127,227 126,228 126,230 127,231 126,232 125,234 127,234 128,235 128,237 127,239 126,241 125,240 123,240 124,238 126,237 125,236 123,236 122,235 123,233 123,232 124,230 122,229 121,231 120,232 118,232 119,234 120,235 120,237 121,238 121,239 121,241 119,241 117,241 118,239 118,237 117,236 117,234 115,233 114,235 112,234 112,236 114,237 116,238 115,240 113,239 112,241 110,239 109,236 110,234 108,234 109,232 110,231 112,232 114,231 113,230 111,229 113,228 111,227 111,225 110,224 109,226 108,228 109,229 107,230 107,231 106,233 105,235 106,236 106,238 107,240 103,240 103,237 103,235 104,233 104,231 103,230 101,230 101,232 101,234 99,234 98,236 100,236 101,237 99,238 99,240 96,241 94,240 96,239 95,238 95,236 94,234 92,234 93,232 91,231 93,229 92,228 93,226 91,225 90,227 89,229 87,228 86,226 85,228 83,227 83,225 84,223 86,224 88,225 89,223 89,221 88,218 87,216 86,214 85,211 88,211 90,215 91,217 92,219 93,221 92,223 94,224 95,226 95,227 97,228 97,229 95,230 96,232 97,234 98,232 99,230 100,228 102,228 104,227 105,229 106,227 107,225 107,224 108,222 110,222 109,220 107,219 106,221 105,223 103,221 104,219 105,217 105,215 102,215 101,213 99,214 99,217 101,218 101,220 101,222 102,224 104,225 102,226 100,226 99,224 98,226 97,224 96,222 98,221 96,220 96,218 95,216 94,214 93,211 91,212 91,209 90,207 91,204 89,203 88,201 87,200 85,199 84,198 84,196 86,195 86,193 84,191 82,192 83,194 82,196 80,195 79,193 80,190 82,189 83,186 84,184 85,186 86,188 88,189 88,191 89,193 89,195 87,197 89,198 91,197 92,199 91,201 94,201 93,203 94,205 95,207 96,209 97,212 100,209 99,206 99,204 97,203 97,200 99,201 102,201 102,205 103,207 103,210 106,209 105,212 108,212 110,211 112,212 113,215 111,215 108,215 109,217 111,218 113,218 115,217 117,217 116,219 115,221 114,220 112,220 113,222 114,223 113,225 114,226 115,228 116,229 116,231 118,230 120,229 119,228 118,227 116,226 116,224 117,222 119,221 118,220 119,218 120,219 121,221 122,219 122,217 120,216 121,214 123,215 125,215 124,217 125,218 126,219 124,220 125,221 123,222 124,223 123,225 122,224 120,223 118,224 119,225 121,226 122,227 124,228 125,226 126,224 127,222 128,220 129,218 128,217 127,216 129,215 128,214 126,213 124,213 123,212 124,210 124,208 124,206 122,204 124,203 122,201 121,199 120,197 120,194 117,193 114,193 114,191 112,189 110,188 109,186 108,184 108,182 106,181 108,179 106,178 105,176 107,175 109,173 111,173 112,175 110,176 111,178 111,180 113,181 111,183 113,184 113,186 115,187 116,189 119,188 119,190 120,191 123,191 123,188 123,186 121,185 118,186 118,184 116,183 116,181 115,179 114,177 117,176 119,176 121,176 121,173 120,171 118,169 117,171 118,173 116,174 114,173 114,171 112,170 112,168 113,166 111,165 110,162 110,159 112,160 113,162 114,163 115,165 115,168 117,167 118,165 120,167 122,168 123,170 126,171 124,173 126,174 126,176 128,177 129,179 130,181 132,183 135,184 138,185 139,187 141,188 142,189 142,191 139,191 140,193 142,194 144,193 145,191 145,188 144,186 141,185 143,183 141,182 138,182 136,181 134,180 132,178 131,176 131,174 129,173 129,171 129,169 128,167 126,168 125,166 122,165 122,163 119,163 118,162 116,161 115,159 117,157 118,159 120,160 123,159 121,157 119,155 118,153 115,153 115,155 114,157 112,157 111,156 112,154 113,152 112,150 110,149 109,148 106,149 105,151 103,151 102,150 100,149 99,148 100,146 101,145 102,147 104,148 106,146 104,145 105,143 103,143 102,142 103,140 103,138 105,139 106,141 108,142 108,144 109,146 111,145 113,146 114,147 115,150 117,149 118,146 120,147 120,150 122,149 122,152 124,154 127,153 128,155 125,156 127,158 128,161 125,161 126,163 128,164 130,165 132,166 133,168 132,171 135,170 136,172 137,175 134,175 134,177 137,178 139,179 142,179 141,176 140,174 139,172 138,170 138,167 135,167 136,164 133,163 131,161 130,158 134,159 136,161 139,162 140,164 142,166 142,169 143,171 144,173 144,176 145,178 145,181 145,184 148,183 147,186 147,189 148,191 147,193 147,195 145,197 144,196 142,196 139,196 138,194 136,193 136,191 136,189 135,187 132,186 130,185 128,183 126,181 125,179 123,177 121,179 118,179 119,181 121,182 123,181 124,183 126,185 126,188 128,187 129,189 132,189 133,191 131,192 132,194 133,195 135,196 136,197 136,199 136,201 134,200 133,202 134,203 136,204 137,205 139,205 141,205 142,203 142,202 140,202 138,202 139,200 139,198 141,199 143,199 145,200 145,202 144,204 143,206 144,207 143,209 142,211 143,212 145,212 147,213 149,214 150,212 151,214 152,215 154,216 156,216 158,215 159,213 157,213 156,212 155,214 153,213 154,211 153,209 152,211 150,210 148,211 147,210 145,210 146,208 147,207 149,208 151,208 152,206 154,205 155,203 153,203 152,202 153,200 151,199 150,201 149,203 151,204 150,206 148,205 146,205 146,204 147,202 148,200 147,198 149,197 150,195 150,193 151,191 150,188 150,186 153,185 152,183 151,182 151,180 148,180 148,178 148,175 147,174 147,171 146,168 145,166 144,163 143,161 139,159 137,157 135,155 133,156 132,154 131,152 130,150 127,149 125,150 125,147 123,145 121,143 122,140 120,139 119,138 120,135 118,134 116,137 114,136 115,134 114,132 112,130 112,127 115,127 116,129 117,132 118,131 120,131 119,129 119,127 121,127 122,129 123,132 124,134 123,137 126,137 127,134 126,130 126,127 125,125 124,123 122,121 121,123 121,125 119,125 119,123 120,121 119,119 119,117 120,115 121,113 122,115 121,117 121,119 124,119 124,116 127,117 127,120 128,122 129,124 132,125 132,128 129,127 129,130 130,132 133,132 135,134 132,136 129,136 130,139 128,140 125,140 125,142 126,144 128,145 130,147 133,148 135,150 137,151 139,153 141,155 143,157 146,158 148,159 148,162 149,165 149,168 152,167 151,170 152,171 156,169 159,170 162,169 163,171 166,172 167,168 165,166 162,165 159,166 156,165 154,163 151,162 152,158 151,155 149,154 146,154 144,152 142,150 140,148 138,146 135,145 134,144 131,144 130,142 133,141 134,138 137,137 137,140 139,142 142,144 145,146 146,148 148,150 151,151 154,152 155,155 156,158 157,160 159,162 163,161 162,159 161,156 159,154 157,152 154,149 151,148 150,146 150,144 147,143 145,142 142,140 140,137 140,133 138,132 137,130 135,128 139,127 137,125 136,123 135,121 132,120 131,117 131,114 131,111 130,109 129,107 129,105 127,104 127,106 126,109 127,111 127,114 124,113 123,111 121,110 123,109 122,108 122,106 124,106 123,104 125,103 123,102 123,100 121,99 120,101 121,102 120,104 120,105 120,107 118,107 119,109 117,109 118,111 119,112 119,113 117,114 117,116 117,118 117,121 116,124 114,122 114,119 113,117 114,115 115,113 116,111 115,109 114,107 113,105 111,105 110,104 110,102 108,102 106,101 106,103 108,104 108,106 111,107 112,109 113,111 112,113 111,115 110,113 110,111 109,109 107,110 107,112 108,113 106,114 107,116 109,117 107,118 108,120 110,119 111,121 112,124 109,123 106,123 105,121 104,119 104,117 103,116 103,114 104,112 105,110 106,108 104,107 103,109 102,111 101,113 100,115 100,117 101,119 102,121 103,123 103,126 106,126 109,126 108,129 107,132 110,133 112,135 110,137 112,138 114,140 116,141 118,143 116,144 113,143 111,142 110,140 108,139 107,137 106,135 103,135 103,132 104,129 101,129 98,130 97,128 97,125 100,125 100,123 99,121 97,122 94,122 93,120 92,118 90,117 89,116 90,115 89,113 91,113 93,114 93,116 95,118 96,120 98,119 97,117 97,115 96,114 98,113 98,111 100,111 100,109 100,107 97,107 96,105 97,103 99,104 101,104 102,105 105,105 104,103 102,102 104,101 104,99 104,97 103,96 101,98 101,100 100,102 98,101 97,100 98,98 99,96 101,95 100,93 104,93 107,94 107,96 108,97 107,99 109,100 110,99 111,97 113,98 114,100 112,100 112,102 114,103 114,102 116,103 115,105 116,107 117,105 118,103 118,101 117,100 119,99 118,98 116,98 117,96 114,95 112,93 112,89 108,89 104,89 100,88 97,86 94,83 90,83 89,80 87,78 84,77 84,74 82,72 79,71 76,72 73,71 71,70 68,69 66,68 64,66 64,63 62,64 61,62 59,61 58,60 58,58 56,58 55,60 54,62 55,63 57,63 59,65 60,67 62,69 63,71 66,72 68,73 71,74 73,75 76,75 79,75 78,78 80,79 84,81 85,84 86,87 90,87 93,87 95,91 96,93 97,95 96,97 94,97 93,96 92,94 90,92 87,91 84,92 80,94 81,96 82,98 82,100 80,100 80,102 80,104 80,105 82,106 82,107 84,108 85,106 85,104 83,104 83,102 85,101 85,100 85,98 84,96 86,97 88,95 90,96 90,98 88,98 88,100 87,102 88,104 87,106 88,107 90,107 91,105 90,104 92,103 90,102 90,100 92,99 94,99 94,101 95,103 94,104 93,106 93,108 94,109 96,110 96,112 94,112 92,111 90,110 88,110 86,109 84,110 84,112 86,113 87,115 86,117 84,116 83,114 81,113 80,115 82,116 82,118 84,119 82,121 81,123 80,124 82,125 80,126 81,128 83,127 84,129 84,131 82,133 80,134 81,135 83,136 84,134 85,136 86,137 84,138 85,140 86,141 87,144 89,146 92,146 93,145 95,145 96,143 97,141 95,141 95,139 94,137 92,138 91,140 93,141 93,143 91,143 90,142 88,141 89,139 88,138 90,136 89,134 88,132 87,130 87,127 85,125 88,124 88,122 85,122 86,120 88,119 90,120 91,122 92,124 94,125 93,128 90,127 91,131 94,131 93,134 96,134 99,133 98,136 100,137 98,139 100,140 100,141 99,143 98,144 97,146 96,148 94,147 93,149 95,150 96,151 98,151 100,152 100,154 102,154 103,155 101,157 103,158 105,159 105,157 106,155 105,153 107,153 108,151 110,152 109,154 108,156 108,158 108,160 107,162 108,164 108,166 109,167 109,169 108,171 106,171 105,173 104,171 103,173 103,175 100,175 100,174 101,172 101,170 102,169 104,169 106,169 105,167 104,166 105,164 104,162 102,161 99,161 98,160 98,157 97,156 97,154 95,154 93,154 93,152 91,151 90,149 88,151 88,153 90,153 90,155 90,157 91,159 93,157 95,159 93,161 95,163 98,164 101,164 101,166 100,168 98,167 97,169 99,170 98,173 98,172 96,171 95,169 95,167 94,166 92,164 90,162 88,161 88,159 87,157 86,156 84,156 84,158 84,160 85,161 84,163 86,164 88,165 90,167 89,169 91,170 92,169 93,171 94,173 95,175 97,176 98,177 100,178 101,177 102,179 103,181 103,183 104,185 106,187 104,188 105,190 104,193 104,195 107,196 109,195 107,193 108,190 110,191 111,193 112,196 115,196 117,197 118,200 115,199 112,199 109,198 109,201 112,202 113,203 116,203 119,203 119,206 120,208 121,209 121,211 119,213 118,215 116,214 115,212 117,211 116,209 116,206 113,206 113,209 110,208 109,205 107,206 106,204 105,202 105,199 103,198 100,198 98,197 96,198 94,197 92,195 92,193 91,191 92,189 91,187 90,185 88,186 87,184 87,182 85,182 85,179 84,177 81,178 81,176 82,174 83,172 81,172 79,172 79,174 79,175 78,177 76,178 77,180 79,181 82,181 81,184 81,185 80,187 78,188 78,186 79,183 76,183 76,185 75,187 73,186 72,188 72,190 73,192 75,190 76,192 75,194 72,195 70,194 69,191 69,188 70,186 68,186 66,185 67,183 65,183 65,181 63,181 62,179 64,179 65,177 63,177 61,176 60,178 59,180 59,182 61,181 62,183 63,185 64,187 66,189 66,192 67,194 67,197 70,197 72,198 73,199 73,202 73,204 74,206 75,207 78,207 78,205 76,203 77,201 76,200 76,198 75,196 77,195 78,197 80,198 81,199 80,201 79,203 81,205 82,203 83,201 85,202 85,204 87,205 87,208 84,207 81,208 82,210 82,213 82,216 84,217 86,221 84,220 81,219 79,218 79,215 78,212 77,210 74,210 71,209 70,208 70,206 70,204 70,202 69,200 67,202 66,200 65,198 64,196 63,194 63,191 61,190 60,187 59,185 56,184 56,186 57,188 58,190 59,192 60,194 61,197 63,201 61,202 60,200 58,199 58,197 56,196 55,198 54,200 55,201 57,202 58,204 58,206 59,207 60,209 61,211 63,209 62,207 63,204 66,205 66,207 66,210 67,212 68,213 67,216 67,219 67,221 70,221 73,220 73,217 71,218 70,216 71,213 74,213 76,215 76,217 76,220 78,221 80,222 81,223 80,225 80,227 80,229 82,229 81,231 80,232 81,233 83,233 87,233 88,235 89,237 91,238 92,237 92,239 91,241 89,241 88,239 87,238 85,237 85,240 82,241 80,241 80,239 82,239 82,237 81,235 80,237 78,236 79,234 77,233 76,235 75,234 74,232 73,234 71,233 70,235 72,236 73,237 75,237 77,238 78,239 77,241 76,240 74,239 73,241 72,239 70,239 69,240 66,240 67,238 69,237 67,236 68,235 68,233 68,232 66,232 67,230 68,228 69,226 70,228 70,230 72,231 72,230 73,228 72,226 74,226 75,228 75,230 76,231 78,231 78,229 77,227 77,225 76,223 74,223 72,223 70,224 68,223 67,225 65,225 66,227 65,229 64,231 63,233 63,235 65,235 64,237 64,239 63,241 62,239 61,237 59,238 60,241 58,240 55,240 56,238 57,236 58,234 60,235 60,233 61,231 62,229 63,227 62,225 60,224 63,223 65,223 64,221 64,219 63,218 62,216 64,215 63,213 61,213 60,215 59,217 61,218 61,220 60,222 58,221 58,219 57,217 57,215 58,213 57,212 58,211 57,209 56,208 56,206 54,206 55,204 53,203 51,202 51,200 52,198 52,196 50,195 49,197 49,199 47,200 48,202 48,204 50,204 52,205 50,206 49,208 48,210 47,212 49,212 50,214 48,214 47,216 48,217 50,218 51,220 52,218 51,216 52,214 52,212 51,210 52,208 53,209 55,211 54,213 54,215 54,217 55,219 54,220 55,221 55,223 57,223 57,225 59,226 60,227 59,229 58,231 56,232 56,230 57,228 55,227 54,226 53,224 52,222 49,222 48,220 46,219 45,218 43,218 44,216 45,214 43,214 43,212 45,211 46,209 47,207 46,206 45,204 46,202 45,200 43,199 42,198 44,197 46,198 47,196 45,195 46,193 48,194 49,192 47,191 46,190 48,189 50,189 51,191 52,193 54,194 56,193 55,191 54,189 53,187 52,185 50,186 49,184 49,182 46,183 44,183 43,181 42,182 41,184 41,185 40,187 42,188 43,186 44,185 46,186 46,188 44,188 44,190 43,192 44,193 42,194 42,196 40,196 39,198 39,199 38,201 37,203 36,205 35,204 35,202 36,200 34,199 33,197 33,195 32,194 31,196 30,194 31,192 29,191 27,190 27,192 28,194 28,196 28,197 30,198 32,199 33,201 33,203 31,203 31,201 29,200 29,201 29,203 28,204 29,205 28,207 27,209 28,210 30,210 30,211 29,213 27,212 25,211 24,212 23,214 23,216 21,215 20,216 19,218 19,220 19,222 18,224 17,226 17,228 16,230 16,231 15,233 14,235 16,235 17,233 18,231 20,231 20,229 19,228 19,226 21,227 21,225 20,224 21,222 21,220 21,218 23,218 23,220 25,221 23,222 24,223 23,225 24,226 23,228 22,230 24,230 25,232 26,231 28,232 29,230 27,229 26,228 26,226 26,224 27,222 28,220 26,219 25,218 27,217 25,216 25,214 27,214 29,215 30,217 29,218 30,219 32,220 33,218 33,216 31,215 32,213 32,212 33,210 34,209 32,208 30,208 31,206 32,205 34,206 35,207 37,208 38,206 40,206 39,204 40,202 41,200 42,202 43,203 42,205 44,206 43,208 43,210 41,210 40,208 39,210 40,212 39,214 41,214 41,216 41,218 41,220 42,222 43,221 45,221 47,222 48,224 50,224 50,226 52,226 51,228 53,229 51,230 53,231 53,233 55,234 54,236 52,235 51,237 53,238 52,240 50,239 49,241 46,241 47,239 45,238 45,236 46,234 47,235 48,237 49,235 50,233 48,232 48,230 48,228 47,226 46,228 44,227 44,226 45,224 43,224 41,224 40,226 41,227 40,229 38,229 37,227 38,225 39,223 39,222 37,222 38,220 37,218 39,218 38,216 37,214 37,212 36,210 35,212 34,214 35,216 35,218 35,220 35,222 35,224 35,226 33,226 32,224 33,222 31,222 29,222 29,224 29,225 28,227 30,228 31,226 32,228 32,229 34,230 35,228 36,230 37,231 38,233 36,233 34,234 34,236 36,236 38,235 40,235 41,233 40,231 42,231 43,229 45,230 46,232 44,232 43,234 42,236 42,238 43,240 40,241 40,240 40,238 38,237 36,238 37,240 34,241 34,240 32,240 33,238 31,237 31,236 32,234 33,232 31,231 30,233 29,234 27,234 27,236 29,236 29,238 30,239 29,241 27,241 26,239 26,238 25,236 25,234 23,234 22,232 21,234 19,233 18,235 19,236 19,237 21,238 22,236 23,238 24,240 22,240 20,240 18,239 17,240 16,237 15,238 15,240 13,240 12,239 13,237 12,236 10,236 9,235 7,235 7,237 9,238 10,239 10,241 8,240 6,239 5,241 3,241 3,239 3,237 5,237 5,235 6,233 4,233 5,231 5,229 4,228 6,227 5,226 3,225 4,223 3,221 5,221 6,219 5,218 3,217 4,215 4,214 4,212 5,211 7,212 7,214 6,216 7,217 9,217 9,219 8,220 10,221 11,219 13,220 14,221 12,222 13,224 11,224 9,223 7,222 6,224 8,225 9,226 8,228 8,229 7,231 9,232 10,233 12,234 13,233 13,231 11,231 10,230 11,228 11,226 13,226 13,228 14,229 15,227 15,225 16,223 16,222 17,220 16,219 17,217 15,216 14,218 12,217 12,216 10,215 9,214 9,212 10,210 9,208 8,210 6,209 6,208 3,209 4,207 3,205 3,203 3,201 5,201 6,199 6,198 4,198 4,196 5,195 7,196 8,194 9,196 10,195 12,196 13,197 15,197 17,198 18,199 17,201 16,203 15,205 14,207 13,205 11,204 12,202 14,203 15,201 14,199 13,200 11,199 9,198 8,200 8,201 10,201 9,203 8,204 6,203 5,205 7,206 9,206 11,206 11,208 13,209 12,211 11,213 13,214 15,214 14,212 15,210 17,209 16,208 17,206 18,204 19,206 20,207 19,209 18,211 16,212 17,214 18,215 19,213 21,213 22,211 21,210 22,208 23,209 25,209 26,207 25,206 23,206 21,205 20,203 19,202 20,200 21,199 20,197 18,196 16,195 15,194 13,194 11,193 9,192 10,190 11,188 13,189 12,191 14,192 15,190 16,191 18,191 17,193 19,194 21,195 23,195 22,197 24,198 23,200 23,201 22,203 24,204 26,203 25,202 26,201 27,199 26,198 25,196 26,194 24,193 24,192 22,192 20,192 21,190 22,189 24,190 25,188 23,187 23,186 24,184 26,184 26,186 27,188 29,188 30,189 31,187 33,188 32,190 33,191 34,193 36,194 36,195 35,197 37,198 38,196 39,194 39,192 41,192 41,190 39,189 38,190 37,192 35,191 36,189 35,188 36,187 38,187 38,185 37,184 39,183 40,181 38,181 36,182 35,181 33,180 32,182 33,183 35,184 34,186 32,185 30,184 29,186 28,184 28,182 30,181 30,180 28,179 26,180 26,181 24,182 22,182 21,184 21,185 20,187 19,189 18,188 16,188 14,187 14,186 12,186 10,185 9,186 8,188 8,189 7,191 6,193 4,193 5,191 5,189 4,188 4,186 6,187 7,185 8,183 6,183 4,184 4,182 4,180 4,178 4,176 4,174 5,173 7,174 8,172 6,171 4,171 4,169 5,167 4,165 4,164 4,162 4,160 4,158 5,157 7,158 8,159 8,161 6,161 7,163 6,165 8,166 7,168 7,169 9,170 10,168 11,170 13,169 13,167 12,166 10,166 11,164 9,164 10,162 11,161 10,159 12,159 14,160 13,162 15,162 14,164 15,165 17,165 19,166 18,168 16,167 15,169 14,171 13,173 12,172 10,172 10,174 12,175 11,177 13,178 14,176 15,177 17,177 16,179 15,181 14,180 12,180 10,179 9,177 8,176 6,176 7,178 6,180 8,180 9,181 11,182 11,183 13,184 14,183 16,184 17,186 18,185 19,183 17,182 18,180 20,181 20,180 19,178 20,177 21,175 19,175 17,175 15,174 16,172 17,170 18,171 19,173 20,171 20,169 21,167 22,165 24,166 25,167 24,169 22,169 23,171 22,172 23,173 25,173 24,175 23,176 22,178 23,180 24,178 26,178 26,176 27,174 28,173 29,175 29,177 31,178 32,177 33,175 31,175 31,173 31,171 29,171 27,171 26,170 27,168 29,169 30,167 31,165 32,163 33,161 34,159 32,159 31,161 30,159 29,158 29,156 27,157 26,159 25,157 24,156 23,158 21,157 22,155 23,153 21,153 20,155 18,155 18,153 18,152 18,150 16,150 15,152 16,154 16,156 18,157 18,159 19,161 20,159 22,160 24,160 25,161 27,162 28,160 29,162 29,164 28,166 26,165 26,164 24,163 22,163 21,162 20,164 18,163 17,162 16,160 15,158 13,157 13,156 14,154 12,153 11,152 11,150 13,151 14,149 15,147 17,148 18,147 20,146 18,145 16,145 16,143 14,142 14,144 13,146 12,148 10,147 11,145 11,144 12,142 13,140 15,140 14,138 16,138 17,140 18,141 18,143 20,142 20,144 22,145 22,147 20,148 20,150 21,151 23,151 23,149 24,147 24,145 23,143 22,142 24,140 25,137 26,135 27,133 25,132 26,129 26,126 26,124 24,124 23,126 21,125 21,124 19,123 18,125 19,127 18,129 17,128 16,127 16,125 17,123 16,122 14,122 14,124 14,126 13,128 14,129 16,130 17,131 15,132 17,133 19,134 20,132 20,130 22,128 23,129 23,131 22,134 23,135 22,138 21,140 19,139 18,138 20,137 18,136 16,135 15,136 14,134 12,134 13,136 12,138 11,136 10,138 10,140 10,141 9,143 7,142 6,144 8,145 8,147 9,149 8,150 7,152 9,152 9,154 11,155 10,157 8,156 6,155 6,154 3,155 4,153 5,151 4,150 4,148 6,149 6,147 5,146 3,145 4,143 4,142 4,140 5,139 7,140 8,138 9,136 10,134 8,133 7,135 6,137 4,137 4,135 6,133 5,132 3,131 4,129 3,127 5,127 7,127 7,125 5,125 4,124 5,122 4,121 3,119 5,119 7,120 7,122 8,123 9,125 9,127 9,129 7,129 6,130 8,131 10,132 12,132 13,131 11,130 11,128 12,126 11,125 10,123 12,123 12,121 10,121 9,120 8,118 7,117 5,117 4,116 3,113 5,114 6,112 5,111 4,110 6,109 7,107 5,107 4,108 3,105 5,105 5,103 5,102 3,101 6,100 5,99 4,98 6,97 4,96 4,94 6,94 7,95 8,93 10,94 11,92 11,90 12,88 13,90 14,91 14,93 14,95 12,95 13,97 12,98 10,97 9,96 8,98 9,99 11,100 13,99 14,101 12,102 13,103 11,104 10,102 8,101 7,103 8,104 8,105 10,106 9,108 8,110 9,111 10,113 8,113 7,114 8,115 10,116 10,118 12,119 14,119 15,120 17,120 17,118 19,118 20,119 19,121 21,121 23,122 25,122 24,120 22,119 24,118 26,118 27,120 28,122 30,121 33,122 35,121 33,119 31,117 30,116 29,118 28,116 29,114 29,112 27,111 26,109 24,108 24,109 25,111 25,113 26,115 25,116 23,115 22,117 21,116 19,115 18,116 16,115 15,117 13,117 13,115 12,114 13,112 11,111 12,109 11,108 12,106 13,107 15,107 15,109 14,110 15,111 17,112 18,111 20,112 22,113 22,111 21,110 21,108 19,107 19,109 17,109 17,107 17,105 15,105 15,104 16,102 18,103 19,101 21,102 20,104 20,105 22,106 24,106 23,104 23,102 25,103 26,105 27,107 29,109 31,110 32,111 32,114 33,115 34,116 36,117 37,115 36,114 36,112 35,110 35,108 33,107 32,106 29,105 28,103 30,101 34,102 36,105 38,106 38,108 38,109 40,110 42,110 41,108 41,106 40,104 38,102 42,101 43,104 45,103 44,106 44,107 44,109 46,109 46,111 46,113 46,115 46,117 47,119 46,120 44,119 43,117 42,115 44,115 43,113 42,112 39,113 40,115 39,116 39,118 40,119 42,120 43,121 45,122 46,125 46,127 44,126 44,124 42,123 41,125 39,126 39,124 40,122 38,121 37,123 35,123 36,125 35,126 37,128 37,130 38,132 40,133 41,135 41,139 44,140 45,143 48,143 51,144 52,146 51,148 51,149 50,151 50,153 52,154 53,155 53,157 51,158 50,156 48,155 47,153 47,151 48,149 49,147 46,147 45,146 42,145 41,143 38,142 35,142 32,141 31,143 29,142 29,140 31,139 32,137 35,138 38,138 37,135 35,134 34,132 33,130 34,128 32,127 33,125 31,125 29,124 28,126 29,127 30,129 30,131 30,133 31,135 29,135 29,137 27,138 27,140 26,143 28,145 31,145 33,145 36,145 39,147 40,149 38,150 40,151 41,153 42,151 43,149 45,150 44,152 44,154 45,155 46,157 48,158 47,160 44,159 44,161 41,161 39,162 39,159 42,158 41,156 39,155 37,153 35,151 36,149 34,148 31,148 31,150 32,151 30,152 28,151 28,150 28,148 26,147 25,149 26,150 25,152 27,153 25,154 27,155 29,154 31,154 31,156 32,157 34,155 36,157 36,160 35,162 34,164 36,164 37,165 38,167 40,169 37,169 35,169 35,167 33,166 32,168 32,169 33,171 35,171 34,173 36,174 37,172 38,171 40,172 39,174 39,176 39,177 37,176 35,176 34,178 36,179 38,179 40,179 42,179 43,177 42,176 42,174 43,171 43,169 43,167 42,166 41,164 43,163 45,164 46,166 46,168 46,170 46,172 46,174 48,173 48,175 49,177 46,177 46,179 48,180 50,179 53,178 53,180 52,182 54,183 56,181 57,179 56,177 58,177 58,175 56,173 55,175 53,176 51,175 53,173 52,172 50,171 49,170 49,168 49,166 48,164 47,162 49,161 50,163 52,164 52,166 52,168 53,169 55,170 58,170 60,172 61,174 63,175 64,173 64,170 61,169 59,167 56,167 55,166 55,164 54,162 52,161 53,159 56,160 56,158 57,155 56,152 53,152 53,150 55,149 54,148 54,146 54,144 56,145 59,146 59,149 61,152 61,155 65,155 66,157 66,159 65,161 64,163 62,161 63,159 62,158 59,158 59,160 58,162 59,164 61,163 62,165 64,166 65,167 67,168 67,171 67,173 66,175 68,176 67,178 68,179 69,181 69,184 71,183 73,184 73,181 72,179 71,177 71,176 71,174 69,174 70,172 70,170 70,168 72,166 70,165 68,165 67,164 67,162 68,161 70,161 70,159 69,158 69,156 69,154 72,153 72,156 73,157 73,159 72,161 71,163 73,164 75,165 76,163 74,162 75,160 76,158 77,160 78,161 79,163 78,164 78,166 75,167 73,168 74,170 73,172 74,174 74,176 76,176 76,174 75,172 77,171 78,169 80,170 82,169 84,170 85,172 87,173 85,174 87,175 88,177 89,179 89,182 90,183 92,181 94,181 93,183 94,185 95,187 95,189 95,191 95,193 96,195 98,193 100,194 101,195 101,191 100,190 98,189 101,187 100,186 98,185 96,183 100,183 99,181 97,180 95,179 93,178 92,176 92,173 90,174 90,172 88,171 87,170 86,168 84,167 81,167 81,165 81,163 81,161 81,159 79,158 81,157 82,155 83,153 85,154 86,153 85,151 84,150 83,147 82,143 81,141 80,139 77,140 77,143 77,146 79,147 79,151 80,153 80,155 78,156 77,154 76,156 75,154 75,151 72,149 73,145 69,144 68,148 68,151 65,152 64,148 63,145 62,141 58,143 57,142 57,140 59,139 58,138 58,136 60,135 58,134 58,132 60,132 63,135 66,138 67,141 71,139 74,140 76,137 74,135 73,134 70,133 68,132 66,129 63,130 60,129 59,130 57,129 57,127 56,126 55,124 55,122 55,120 53,119 52,121 52,123 52,126 53,127 51,128 53,129 54,131 54,134 55,136 54,139 54,142 51,141 48,140 47,138 44,137 44,134 44,132 42,131 40,130 40,128 42,129 44,129 46,130 47,132 47,135 51,137 51,134 50,132 49,130 48,128 49,126 50,124 48,123 48,121 50,121 50,119 49,117 50,115 48,115 49,113 49,111 50,109 49,108 47,107 47,105 50,106 52,107 53,109 52,111 52,113 52,115 52,117 54,117 54,115 56,116 56,118 57,120 59,120 61,120 61,121 60,123 58,122 57,124 59,125 59,127 61,127 61,125 64,125 63,122 64,120 65,119 64,118 62,118 62,116 60,116 60,118 58,118 58,116 59,114 58,112 57,114 55,113 55,111 56,109 58,110 60,109 58,107 55,107 55,105 55,103 52,103 50,104 49,102 48,100 46,98 43,96 41,94 41,90 38,89 37,86 41,86 44,88 45,91 48,93 50,95 54,95 52,99 55,99 58,100 59,103 60,105 63,106 64,108 67,108 68,111 71,111 70,113 72,114 73,115 72,117 73,119 74,120 76,120 75,122 76,123 75,125 73,124 73,122 71,121 71,119 70,118 70,116 69,115 68,114 66,114 65,112 62,111 61,113 63,114 64,116 66,116 67,117 68,118 67,120 68,121 69,125 71,128 74,127 74,130 77,131 79,132 81,131 80,130 78,129 78,128 77,127 77,125 78,123 79,121 79,119 78,117 77,116 76,118 74,117 75,115 77,114 78,112 79,110 81,111 81,109 80,108 78,107 77,109 76,111 75,113 73,112 74,111 75,109 74,108 71,108 70,106 69,104 70,101 66,101 66,104 63,103 63,100 61,98 58,96 60,92 57,91 55,89 52,90 49,88 48,85 45,84 44,82 42,80 39,79 39,83 36,83 35,81 35,78 37,77 36,74 35,72 35,70 36,68 37,66 38,64 39,66 39,68 38,70 39,71 39,74 41,73 42,76 44,75 45,78 48,77 49,80 51,81 52,85 55,85 56,81 55,79 52,77 49,74 52,73 55,73 56,75 59,76 60,79 59,83 59,86 61,88 64,90 63,94 65,95 67,97 70,98 73,97 74,99 73,102 74,103 74,105 76,106 77,104 77,102 77,100 79,98 77,97 76,94 74,92 71,94 69,92 68,88 66,86 64,84 63,81 67,80 69,82 71,84 71,88 74,88 77,87 79,90 82,89 81,85 80,82 76,83 74,82 74,79 71,78 67,77 64,77 63,74 59,73 58,70 55,70 56,67 55,66 52,69 50,70 50,67 52,65 50,64 48,64 48,62 50,61 52,61 53,59 53,58 51,57 52,55 50,55 51,53 53,53 55,54 54,56 56,56 57,54 58,56 59,54 60,52 58,51 57,52 56,50 55,52 53,51 53,50 51,49 49,48 48,50 50,51 49,53 48,52 46,52 45,51 43,51 42,50 43,49 42,47 42,45 43,43 43,41 41,40 41,38 42,36 44,36 44,34 43,32 42,30 40,30 40,32 41,34 39,34 39,36 38,38 38,40 37,42 39,42 40,43 40,45 39,47 40,49 38,50 39,52 37,52 36,54 38,55 38,54 40,55 40,57 41,58 40,60 42,60 42,62 43,63 44,61 45,59 45,57 43,58 43,56 42,55 41,53 43,53 45,54 46,55 47,57 48,55 49,57 50,59 48,59 47,60 46,62 45,64 45,66 47,67 47,69 47,72 44,71 43,69 42,68 42,66 41,64 40,62 38,62 36,62 35,64 35,65 34,67 33,69 32,67 32,65 33,63 32,62 34,61 33,60 34,58 35,59 37,60 38,59 38,57 36,57 34,56 32,56 30,55 29,57 31,58 31,59 30,61 28,62 29,63 28,65 30,65 29,67 27,68 29,69 31,69 32,71 32,73 33,75 32,78 30,77 30,75 29,73 29,71 27,70 25,70 24,72 26,72 27,73 28,75 26,76 25,75 23,74 21,73 19,72 20,70 22,71 22,70 21,68 23,68 25,68 26,66 26,64 26,62 27,60 28,59 27,57 25,56 27,55 26,54 26,52 26,50 24,50 24,52 23,54 22,56 22,58 23,59 25,59 24,61 22,62 23,63 24,64 24,66 22,66 21,65 19,64 19,65 19,67 17,67 18,69 16,69 17,71 16,72 15,74 13,73 14,71 14,69 13,67 12,69 10,68 10,66 9,64 6,66 7,68 8,70 10,70 10,72 11,73 12,75 11,77 13,78 14,76 15,78 15,80 17,80 17,82 18,83 16,84 17,86 19,85 20,83 21,81 20,80 22,79 21,78 19,77 18,78 17,76 17,74 19,74 20,75 22,76 23,77 25,78 27,78 28,79 28,81 29,83 31,81 32,84 30,87 33,87 33,90 35,92 37,94 38,98 34,98 32,96 30,94 29,92 28,90 26,89 27,87 26,86 27,85 26,83 26,81 24,80 23,82 23,83 22,85 24,85 23,87 24,89 22,89 21,87 19,87 19,89 19,91 21,91 23,92 24,91 26,92 25,94 27,95 28,97 28,99 27,101 25,101 25,99 25,97 24,96 22,95 22,94 20,93 19,94 19,96 21,97 23,98 22,100 20,99 18,98 17,100 15,99 16,97 16,95 17,93 16,91 17,89 15,88 14,86 12,86 12,84 14,83 14,82 12,81 12,80 10,79 9,81 10,83 9,85 9,87 9,89 8,91 6,91 5,92 3,91 4,89 6,89 6,87 4,86 6,85 7,83 4,83 3,79 6,81 7,79 8,77 9,75 6,76 6,74 5,72 4,69 3,65 5,63 4,62 4,59 8,58 8,56 6,55 5,54 5,52 4,50 5,46 6,48 8,47 8,49 10,49 9,51 8,53 10,54 11,56 12,57 11,59 9,60 9,62 11,62 11,64 12,65 14,65 15,67 16,65 17,63 15,63 14,62 13,60 15,60 14,58 16,57 18,58 18,60 18,61 20,62 21,60 20,58 19,56 19,54 21,53 21,52 19,51 18,50 20,49 22,50 23,48 21,47 20,46 22,45 20,44 19,42 18,44 17,46 18,48 16,48 15,50 14,52 16,52 17,53 16,55 14,55 12,54 11,52 12,50 13,49 14,47 12,47 11,46 9,45 8,44 9,42 11,42 11,43 13,44 15,45 16,43 14,42 16,41 14,40 12,39 10,40 8,39 7,41 6,43 3,43 5,41 5,39 4,37 4,35 4,33 4,32 4,30 5,28 3,27 3,25 6,26 6,24 5,22 4,20 4,17 5,15 6,18 7,20 7,22 10,21 10,23 9,24 9,26 8,28 7,30 8,31 10,31 10,33 9,35 7,33 6,35 7,37 9,37 11,37 13,37 12,35 13,33 13,31 14,29 12,29 11,28 12,26 13,24 13,22 15,23 15,26 17,27 17,25 18,23 17,21 16,20 18,19 18,17 16,17 14,16 14,18 13,20 11,19 11,17 9,18 8,16 8,14 7,12 5,12 4,10 3,7 5,5 3,3" style="fill:none;stroke:black;stroke-width:1.1" />
</svg>